<?xml version="1.0" encoding="utf-8"?>
<!-- Generator: Adobe Illustrator 27.8.0, SVG Export Plug-In . SVG Version: 6.00 Build 0)  -->
<svg version="1.1" id="Cookie" xmlns="http://www.w3.org/2000/svg" xmlns:xlink="http://www.w3.org/1999/xlink" x="0px" y="0px"
	 viewBox="0 0 47.5 47.5" style="enable-background:new 0 0 47.5 47.5;" xml:space="preserve">
<style type="text/css">
	.st0{fill:#FFFFFF;}
</style>
<path class="st0" d="M23.8,2.5C12,2.5,2.5,12,2.5,23.8S12,45,23.8,45S45,35.5,45,23.8S35.5,2.5,23.8,2.5z M12.1,27.7
	C12.1,27.7,12,27.7,12.1,27.7c-1,1.1-3.8,2.5-4.9,1.6c-1.1-1,0-3.9,1-4.9c0.9-1.1,2.6-1.2,3.7-0.3C12.9,24.9,13,26.6,12.1,27.7z
	 M12.8,12.8c-0.5,0.6-1.3,0.6-1.9,0.2c-0.6-0.5-0.6-1.3-0.2-1.9c0.5-0.6,1.9-1.3,2.5-0.8C13.7,10.8,13.2,12.3,12.8,12.8z M19.2,14.7
	c1.3-0.6,2.9-0.1,3.6,1.3c0.7,1.3,0.9,4.5-0.5,5.2c-1.3,0.6-3.7-1.5-4.4-2.9C17.3,16.9,17.9,15.3,19.2,14.7z M23.2,38.6
	c-0.8,1.1-3.2,2.7-4.2,1.9c-1.1-0.8-0.5-3.6,0.3-4.7c0.8-1.1,2.2-1.4,3.3-0.6c0,0,0,0,0,0C23.7,36,24,37.5,23.2,38.6z M27.3,7.7
	c0.6-0.9,1.8-1.2,2.8-0.6c0.9,0.6,2.3,2.6,1.7,3.5c-0.6,0.9-3,0.5-3.9-0.1C26.9,9.9,26.7,8.6,27.3,7.7z M26,26.5
	c-0.5-1.5,2.1-3.6,3.6-4.1c1.5-0.5,3,0.3,3.5,1.8c0.5,1.5-0.3,3-1.8,3.5c-0.5,0.1-1.1,0.2-1.7,0.2C28,28,26.3,27.6,26,26.5z
	 M35.3,35.5c-0.5,0.9-2.7,0.4-3.6-0.1c-0.9-0.5-1.1-1.7-0.6-2.5c0.5-0.9,1.7-1.1,2.5-0.6C34.6,32.8,35.9,34.6,35.3,35.5z M38.4,21.8
	c-0.6-0.5-0.6-1.3-0.2-1.9c0.5-0.6,1.9-1.3,2.5-0.8c0.6,0.5,0.1,2-0.4,2.6C39.8,22.2,38.9,22.2,38.4,21.8z"/>
</svg>
