<?xml version="1.0" encoding="utf-8"?>
<!-- Generator: Adobe Illustrator 27.8.0, SVG Export Plug-In . SVG Version: 6.00 Build 0)  -->
<svg version="1.1" id="downArrow" xmlns="http://www.w3.org/2000/svg" xmlns:xlink="http://www.w3.org/1999/xlink" x="0px" y="0px"
	 viewBox="0 0 92 92" style="enable-background:new 0 0 92 92;" xml:space="preserve">
<style type="text/css">
	.st0{fill:#FFFFFF;}
</style>
<path class="st0" d="M46,0.7C21,0.7,0.7,21,0.7,46S21,91.3,46,91.3S91.3,71,91.3,46S71,0.7,46,0.7z M73.4,57.7L48.8,82.3
	C48,83.1,47,83.5,46,83.5s-2-0.4-2.8-1.2L18.6,57.7c-1.6-1.6-1.6-4,0-5.6c1.6-1.6,4-1.6,5.6,0l17.8,18V12.5c0-2.2,1.8-3.9,3.9-3.9
	s3.9,1.8,3.9,3.9v57.6l18-17.8c1.6-1.6,4-1.6,5.6,0C75,53.7,75,56.2,73.4,57.7z"/>
</svg>
