<?xml version="1.0" encoding="utf-8"?>
<!-- Generator: Adobe Illustrator 27.8.0, SVG Export Plug-In . SVG Version: 6.00 Build 0)  -->
<svg version="1.1" id="Capa_1" xmlns="http://www.w3.org/2000/svg" xmlns:xlink="http://www.w3.org/1999/xlink" x="0px" y="0px"
	 viewBox="0 0 800 800" style="enable-background:new 0 0 800 800;" xml:space="preserve">
<style type="text/css">
	.st0{fill:#FFFFFF;}
</style>
<path class="st0" d="M400.5,8C183.7,8,8,183.7,8,400.5S183.7,793,400.5,793C617.3,793,793,617.3,793,400.5S617.3,8,400.5,8z
	 M665.2,537.3c0,14.7-12,26.7-26.8,26.7H162.5c-14.7,0-26.7-12-26.7-26.7V265.1L385,425.3c0.3,0.2,0.7,0.3,1,0.5
	c0.4,0.2,0.7,0.4,1.1,0.6c1.9,1,3.9,1.8,6,2.3c0.2,0.1,0.4,0.1,0.6,0.1c2.2,0.5,4.5,0.9,6.8,0.9c0,0,0,0,0,0h0
	c2.3,0,4.5-0.3,6.8-0.9c0.2,0,0.4-0.1,0.6-0.1c2-0.5,4-1.3,6-2.3c0.4-0.2,0.7-0.4,1.1-0.6c0.3-0.2,0.7-0.3,1-0.5l249.2-160.3V537.3z
	 M600.9,236.9L400.5,366L200.1,236.9H600.9z"/>
</svg>
