<?xml version="1.0" encoding="utf-8"?>
<!-- Generator: Adobe Illustrator 27.8.0, SVG Export Plug-In . SVG Version: 6.00 Build 0)  -->
<svg version="1.1" id="logo_Immagine" xmlns="http://www.w3.org/2000/svg" xmlns:xlink="http://www.w3.org/1999/xlink" x="0px"
	 y="0px" viewBox="0 0 240.5 34" style="enable-background:new 0 0 240.5 34;" xml:space="preserve">
<style type="text/css">
	.st0{fill:#ECDD1E;}
	.st1{fill:#12110B;}
	.st2{fill:#851B12;}
	.st3{fill:#433E32;}
	.st4{fill:#F8F6F6;}
</style>
<path class="st0" d="M240.5,9.7v1c-0.1,0-0.3,0-0.4,0H111.9c-0.1,0-0.3,0-0.4,0c-0.5,0.1-1,0-1.6,0c-0.1,0-0.3-0.1-0.4-0.1
	c-0.2-0.1-0.4-0.2-0.7-0.4c0-0.4,0.3-0.3,0.5-0.4c0.2-0.1,0.3-0.1,0.5,0c0.6,0.4,1.3,0.4,1.9,0c0.2,0,0.4,0,0.6,0h127.7
	C240.1,9.8,240.3,9.8,240.5,9.7L240.5,9.7z"/>
<path class="st1" d="M108.9,10.1c0.2,0.1,0.4,0.2,0.7,0.4c0.1,0.1,0.3,0.1,0.4,0.1c0.5,0,1,0.1,1.6,0c0.1,0,0.3,0,0.4,0h128.1
	c0.1,0,0.3,0,0.4,0v0.2c-0.2,0-0.3,0-0.5,0c-15.2,0-30.4,0-45.5,0c-15.2,0-0.3,0-0.5,0c-0.8,0-1.5,0-2.3,0c0,0-0.1,0-0.1,0
	c-0.1,0-0.3,0-0.4,0h-78.8c-0.1,0-0.3,0-0.4,0c-0.1,0-0.3,0-0.4,0c-0.1,0-0.2,0-0.3,0c0-0.1-0.1-0.1-0.1,0c-0.1,0-0.1,0-0.2,0
	c-0.1,0-0.3,0-0.4,0c-0.7,0-1.3-0.1-1.8-0.6C108.7,10.2,108.8,10.1,108.9,10.1L108.9,10.1z"/>
<path class="st1" d="M240.5,9.7c-0.2,0-0.4,0-0.6,0H112.3c-0.2,0-0.4,0-0.6,0c-0.1-0.1-0.1-0.2-0.1-0.3c0.2,0,0.3,0,0.5,0
	c26.5,0,53,0,79.5,0c0.2,0,0.3,0,0.5-0.1c0.1,0.1,0.1,0.1,0.2,0.1c0.6,0,1.3,0,1.9,0c15.2,0,30.5,0,45.7,0c0.2,0,0.3,0,0.5,0
	L240.5,9.7L240.5,9.7z"/>
<path class="st0" d="M0,10.7v-1c0.2,0,0.3,0,0.5,0c5.3,0,10.6,0,15.9,0c0,0.3,0,0.6,0,0.9c-5.4,0-10.7,0-16.1,0
	C0.2,10.6,0.1,10.6,0,10.7L0,10.7z"/>
<path class="st1" d="M16.4,9.7c-5.3,0-10.6,0-15.9,0c-0.2,0-0.3,0-0.5,0V9.5c0.1,0,0.3,0,0.4,0c3,0,5.9,0,8.9,0c0.2,0,0.3,0,0.5,0
	c0.7,0,1.3,0,2,0c1.5,0,3,0,4.5,0C16.4,9.6,16.4,9.7,16.4,9.7L16.4,9.7z"/>
<path class="st1" d="M0,10.7c0.1,0,0.2,0,0.3,0c5.4,0,10.7,0,16.1,0c0,0.1,0,0.2,0,0.3c-1.7,0-3.4,0-5.1,0c-0.8,0-1.5,0-2.3,0
	c-2.8,0-5.7,0-8.5,0c-0.1,0-0.3,0-0.4,0C0,10.9,0,10.8,0,10.7L0,10.7z"/>
<path class="st2" d="M92.7,16c0.6-0.6,1.1-1.2,1.8-1.7c0.8-0.6,1.8-1,2.8-1.1c0.8-0.1,1.6-0.2,2.3-0.2c0.3,0,0.4,0,0.4-0.4
	c0.3-1.1,0.6-2.2,0.9-3.3c0.7-2.2,2-4.1,3.8-5.5c0.9-0.8,2-1.3,3.2-1.5c1.2-0.2,2.3-0.1,3.4,0.2c0,0.1,0,0.1,0,0.2
	c-0.5,0.7-1,1.3-1.5,2c-0.1,0.2-0.2,0.2-0.4,0.1c-0.5-0.3-1.1-0.6-1.7-0.7c-1.4-0.3-2.5,0.2-3.3,1.3c-0.5,0.7-0.8,1.5-1,2.3
	c-0.5,1.7-0.8,3.4-1.1,5.1c-0.1,1-0.3,1.9-0.4,2.9c0,0.1,0,0.1,0,0.2c-0.8,0-1.7,0-2.5,0c0.1-0.3,0-0.4-0.3-0.5
	c-0.6-0.3-1.3-0.6-2-0.7c-1.2-0.2-2.3,0.2-3,1.2C94.1,16,94,16,94,16.2c-0.2,0.3-0.5,0.6-0.5,0.9c-0.1,0.1-0.2,0.2-0.2,0.3
	c-0.1,0.2-0.2,0.5-0.3,0.7c-0.5,1.3-0.9,2.6-1.2,3.9c-0.4,1.8-0.7,3.5-0.5,5.3c0,0.4,0.1,0.8,0.3,1.2c0.2,0.6,0.8,0.8,1.3,0.5
	c0.2-0.1,0.4-0.3,0.6-0.5c0.7-0.6,1.2-1.3,1.7-2.1c1.3-1.8,2.3-3.8,3.2-5.8c0.5-1.1,0.8-2.1,0.8-3.3c0.9,0,1.7,0,2.6,0
	c-0.3,2.3-0.7,4.6-1,6.9c-0.2,1.2-0.4,2.3-0.5,3.5c-0.1,0.5-0.2,0.9,0,1.4c0.1,0.5,0.4,0.7,1,0.5c0.5-0.1,0.8-0.5,1.2-0.8
	c0.6-0.6,1.1-1.2,1.6-1.9c0.2-0.3,0.4-0.6,0.7-0.9c0,0.1,0,0.2,0,0.3c0,0.3-0.1,0.6-0.2,0.9c0,0.2,0,0.4-0.2,0.5
	c-0.8,1.1-1.7,2.2-2.8,3c-0.5,0.3-1,0.6-1.5,0.7c-0.3,0.1-0.7,0.1-1,0c-0.7-0.2-1-0.6-1.2-1.2c-0.2-0.6-0.2-1.2-0.1-1.8
	c0.1-1,0.2-2,0.4-3c0.1-1.1,0.3-2.1,0.5-3.2c0-0.1,0-0.1,0-0.2c0,0,0,0,0-0.1c0,0-0.1,0-0.1,0c0,0.1-0.1,0.1-0.1,0.2
	c-0.4,1.1-0.8,2.1-1.3,3.2c-0.9,1.8-1.9,3.5-3.3,4.8c-0.5,0.5-1.1,0.9-1.9,1.1c-0.8,0.2-1.5,0-2.1-0.5c-0.5-0.4-0.7-0.9-0.8-1.5
	c-0.3-1-0.3-2-0.2-3c0.1-2.4,0.8-4.7,1.8-6.8c0.3-0.7,0.7-1.3,1-1.9c0.1-0.1,0.2-0.3,0.2-0.4c0.1,0,0.2-0.1,0.2-0.3
	c0.2-0.3,0.5-0.6,0.7-0.9C92.6,16.1,92.7,16,92.7,16L92.7,16z"/>
<path class="st2" d="M133.6,22.2c0.2-0.1,0.2-0.3,0.3-0.4c0.6-1.6,1.3-3.2,2.2-4.7c0.7-1.1,1.4-2.2,2.3-3.1c0.6-0.6,1.3-1.1,2.1-1.2
	c1-0.2,1.8,0.2,2.2,1.2c0.1,0.4,0.2,0.8,0.2,1.2c0.1,1.1,0,2.2-0.2,3.3c-0.2,1.2-0.4,2.3-0.5,3.5c-0.2,1.2-0.4,2.3-0.5,3.5
	c-0.2,1.2-0.4,2.3-0.4,3.5c0,0.1,0,0.3,0.1,0.4c0.1,0.4,0.5,0.6,0.9,0.5c0.4-0.1,0.7-0.4,1-0.6c0.8-0.8,1.5-1.7,2.2-2.6
	c0.1-0.1,0.1-0.2,0.3-0.3c-0.2,0.7-0.1,1.5-0.6,2.1c-0.7,0.9-1.4,1.8-2.3,2.5c-0.6,0.5-1.3,0.9-2.1,0.9c-0.6,0-1.1-0.1-1.5-0.6
	c-0.2-0.3-0.3-0.6-0.4-0.9c-0.1-0.6-0.1-1.1-0.1-1.7c0.3-2.4,0.7-4.8,1.1-7.2c0.2-1.3,0.4-2.6,0.6-3.9c0.1-0.4,0-0.8,0-1.2
	c0-0.1,0-0.3-0.1-0.4c-0.1-0.4-0.5-0.6-0.9-0.5c-0.6,0.2-1.1,0.6-1.5,1.1c-0.8,0.9-1.5,2-2.1,3.1c-1,1.8-1.8,3.6-2.6,5.4
	c-0.2,0.4-0.2,0.9-0.3,1.4c-0.3,1.5-0.5,3.1-0.7,4.6c0,0.2-0.1,0.3-0.3,0.3c-0.7,0.1-1.3,0.1-2,0.1c-0.1,0-0.3,0.2-0.4,0
	c-0.1-0.1,0-0.3,0-0.4c0.3-1.6,0.6-3.2,0.9-4.7c0.2-1.1,0.3-2.3,0.5-3.4c0.2-1.4,0.4-2.7,0.6-4.1c0.1-1,0.4-2,0.4-3.1
	c0-0.1,0-0.3,0-0.4c-0.1-0.5-0.4-0.8-0.9-0.6c-0.5,0.1-0.9,0.5-1.3,0.9c-0.7,0.7-1.4,1.6-2,2.4c-0.1,0.1-0.1,0.1-0.2,0.2
	c0,0,0,0-0.1,0c0.1-0.5,0.2-1,0.2-1.5c0,0,0-0.1,0.1-0.1c0.8-1,1.5-2,2.6-2.8c0.6-0.4,1.2-0.8,1.9-0.9c1.1-0.2,1.9,0.3,2.1,1.4
	c0.2,0.8,0.1,1.5,0,2.3c-0.2,1.6-0.5,3.2-0.7,4.7C133.6,21.5,133.6,21.8,133.6,22.2L133.6,22.2z"/>
<path class="st2" d="M147.7,31.5c-0.1-0.3,0-0.5,0.1-0.8c0.3-1.5,0.6-3,0.8-4.5c0.2-1.2,0.4-2.3,0.5-3.5c0.2-1.3,0.4-2.6,0.6-4
	c0.1-0.9,0.3-1.9,0.4-2.8c0-0.3,0-0.5-0.1-0.8c-0.1-0.3-0.4-0.5-0.8-0.4c-0.3,0.1-0.6,0.2-0.8,0.4c-0.5,0.4-1,0.9-1.4,1.4
	c-0.4,0.5-0.7,0.9-1.1,1.4c-0.1,0.1-0.1,0.2-0.3,0.3c0.1-0.5,0.2-1,0.2-1.5c0-0.1,0.1-0.1,0.1-0.2c0.8-1.1,1.7-2.2,2.8-3
	c0.6-0.5,1.4-0.8,2.2-0.8c0.8,0,1.3,0.4,1.6,1.1c0.2,0.6,0.2,1.1,0.2,1.7c-0.1,1.2-0.3,2.4-0.5,3.7c-0.1,0.9-0.3,1.8-0.4,2.7
	c0,0.1,0,0.1,0,0.2c0.1,0,0.1-0.1,0.2-0.2c0.4-1,0.8-2.1,1.3-3.1c0.9-1.7,1.8-3.4,3.2-4.8c0.4-0.4,0.9-0.8,1.5-1.1
	c0.5-0.2,1.1-0.3,1.6-0.2c0.5,0.1,0.9,0.4,1.1,0.9c0.3,0.6,0.4,1.3,0.4,2c0,0.9-0.1,1.7-0.2,2.5c-0.2,1.4-0.4,2.7-0.6,4.1
	c-0.2,1.5-0.5,3-0.7,4.4c-0.1,0.7-0.2,1.4-0.2,2.1c0,0.9,0.5,1.2,1.3,0.8c0.5-0.3,0.9-0.6,1.3-1c0.7-0.7,1.2-1.5,1.8-2.3
	c0,0,0-0.1,0.1,0c0,0.5-0.1,1-0.2,1.5c0,0,0,0.1-0.1,0.1c-0.8,1.1-1.7,2.2-2.8,3c-0.6,0.4-1.2,0.8-2,0.8c-0.6,0-1.2-0.1-1.5-0.6
	c-0.3-0.5-0.4-1-0.5-1.5c0-0.9,0.1-1.8,0.2-2.7c0.2-1.5,0.5-3,0.7-4.4c0.2-1.5,0.5-3,0.7-4.4c0.1-0.6,0.2-1.2,0.1-1.7
	c0-0.1,0-0.1,0-0.2c-0.1-0.7-0.5-0.9-1.2-0.6c-0.5,0.2-0.9,0.6-1.2,0.9c-0.8,0.9-1.5,2-2.1,3.1c-1,1.8-1.9,3.7-2.7,5.7
	c-0.2,0.4-0.2,0.7-0.2,1.1c-0.3,1.6-0.5,3.2-0.7,4.8c0,0.2-0.1,0.3-0.4,0.4c-0.6,0-1.2,0.1-1.9,0.1
	C148.1,31.4,147.9,31.5,147.7,31.5L147.7,31.5z"/>
<path class="st2" d="M191.7,10.9c0.8,0,1.5,0,2.3,0c-0.2,0.6-0.2,1.1-0.3,1.7c-0.3,1.9-0.5,3.7-0.8,5.6c-0.3,2.3-0.7,4.7-1,7
	c-0.2,1.1-0.3,2.1-0.4,3.2c0,0.3,0,0.5,0.1,0.8c0.1,0.5,0.5,0.7,0.9,0.5c0.6-0.2,1.1-0.7,1.5-1.1c0.6-0.7,1.2-1.5,1.8-2.3
	c0-0.1,0.1-0.1,0.2-0.1c-0.1,0.5-0.1,0.9-0.2,1.4c0,0.1,0,0.2-0.1,0.2c-0.8,1.2-1.8,2.3-3,3.1c-0.4,0.3-0.8,0.5-1.3,0.6
	c-1.3,0.3-2.2-0.3-2.3-1.6c-0.1-0.7,0-1.5,0.1-2.2c0.2-1.7,0.5-3.5,0.8-5.2c0-0.1,0.1-0.2,0-0.3c-0.2-0.1-0.2,0.2-0.2,0.2
	c-0.6,1.8-1.4,3.5-2.4,5.1c-0.6,1-1.3,2-2.2,2.8c-0.5,0.5-1,0.9-1.7,1.1c-0.9,0.3-2,0.1-2.6-0.6c-0.3-0.3-0.5-0.7-0.6-1.1
	c-0.2-0.7-0.3-1.4-0.3-2.1c-0.1-2.6,0.6-5.1,1.6-7.5c0.7-1.6,1.6-3.2,2.8-4.5c0.7-0.8,1.5-1.5,2.5-2c0.7-0.3,1.5-0.5,2.3-0.6
	c0.6-0.1,1.3-0.1,1.9-0.1c0.2,0,0.3,0,0.3-0.2C191.3,12.1,191.5,11.6,191.7,10.9C191.7,11,191.7,10.9,191.7,10.9L191.7,10.9z
	 M182.4,26.4c0,0.2,0,0.4,0,0.6c0,0.2,0,0.4,0.1,0.6c0.1,0.4,0.1,0.7,0.3,1.1c0.3,0.5,0.7,0.6,1.1,0.4c0.3-0.1,0.6-0.3,0.8-0.6
	c0.7-0.7,1.3-1.5,1.8-2.3c1.3-2,2.4-4.1,3.3-6.3c0.1-0.2,0.2-0.5,0.3-0.8c0.2-1.1,0.3-2.1,0.5-3.2c0.1-0.4,0.1-0.4-0.3-0.6
	c-0.6-0.3-1.3-0.6-2-0.7c-1.1-0.2-2.1,0.1-2.9,1c-0.4,0.5-0.8,1-1,1.6c-0.6,1.3-1,2.7-1.4,4C182.7,23,182.4,24.7,182.4,26.4
	L182.4,26.4z"/>
<path class="st2" d="M127.4,26.2c-0.1,0.5-0.2,1-0.2,1.5c0,0.1-0.1,0.2-0.1,0.2c-0.8,1-1.5,2-2.5,2.8c-0.6,0.5-1.3,0.9-2.1,0.9
	c-1.1,0.1-1.7-0.4-2-1.4c-0.1-0.6-0.1-1.2-0.1-1.9c0.1-1.4,0.4-2.8,0.6-4.3c0.1-0.5,0.2-1,0.2-1.5c0-0.1,0.1-0.3,0-0.4
	c-0.2,0.1-0.2,0.2-0.2,0.3c-0.4,1.2-0.9,2.4-1.5,3.6c-0.7,1.4-1.5,2.7-2.5,3.8c-0.6,0.7-1.3,1.3-2.2,1.6c-0.8,0.3-1.7,0.2-2.4-0.4
	c-0.5-0.4-0.7-1-0.9-1.6c-0.2-0.9-0.3-1.8-0.2-2.6c0-1.1,0.2-2.2,0.4-3.2c0.4-1.6,1-3.2,1.8-4.6c0.6-1.1,1.2-2.1,2-3
	c1-1.2,2.2-2.1,3.7-2.7c0.7-0.3,1.4-0.4,2.2-0.4c0.7,0,1.4,0,2.2,0c0.6,0,1.2,0.1,1.8,0.1c0.1,0.1,0,0.2,0,0.3
	c-0.4,2.3-0.9,4.6-1.2,6.9c-0.3,2.2-0.7,4.5-1,6.7c-0.1,0.6-0.2,1.2-0.2,1.7c0,0.2,0,0.3,0.1,0.5c0.1,0.4,0.5,0.6,0.9,0.5
	c0.4-0.1,0.8-0.4,1.1-0.7c0.8-0.8,1.5-1.7,2.2-2.6C127.2,26.3,127.2,26.3,127.4,26.2L127.4,26.2z M119,14.7c-0.4,0-1,0.2-1.5,0.7
	c-0.5,0.5-0.9,1-1.2,1.6c-0.5,1-0.8,2-1.2,3.1c-0.7,2.3-1.2,4.7-1.1,7.2c0,0.5,0.1,1.1,0.4,1.5c0.3,0.4,0.7,0.5,1.1,0.3
	c0.3-0.1,0.5-0.3,0.8-0.5c0.6-0.6,1.2-1.3,1.7-2.1c1.3-1.8,2.3-3.8,3.2-5.8c0.2-0.5,0.5-1,0.6-1.6c0.2-1.1,0.3-2.2,0.5-3.3
	c0-0.1,0-0.2-0.1-0.3C121.2,15,120.3,14.7,119,14.7L119,14.7z"/>
<path class="st2" d="M210.9,13.2c-0.3,1.6-0.6,3.2-0.9,4.8c-0.2,1-0.3,2-0.5,3.1c-0.2,1.4-0.4,2.7-0.6,4c-0.1,1-0.3,1.9-0.4,2.9
	c0,0.3,0,0.7,0,1c0,0.6,0.5,0.9,1,0.7c0.5-0.2,0.9-0.6,1.3-1c0.7-0.7,1.3-1.5,1.9-2.4c0-0.1,0.1-0.1,0.2-0.2c0,0.6-0.1,1.1-0.2,1.6
	c0,0,0,0.1-0.1,0.1c-0.8,1.2-1.7,2.2-2.9,3.1c-0.6,0.5-1.3,0.8-2.1,0.8c-0.8,0-1.3-0.4-1.5-1.1c-0.1-0.3-0.2-0.6-0.2-1
	c0-0.9,0.1-1.9,0.2-2.8c0.2-1.5,0.4-2.9,0.7-4.4c0,0,0-0.1,0-0.2c-0.2,0-0.2,0.1-0.2,0.2c-0.3,1-0.7,1.9-1.1,2.8
	c-0.8,1.6-1.6,3.2-2.8,4.5c-0.5,0.6-1,1.1-1.7,1.5c-0.6,0.3-1.3,0.5-2,0.4c-0.9-0.2-1.5-0.8-1.8-1.7c-0.2-0.6-0.3-1.2-0.3-1.8
	c0-1.1,0-2.2,0.1-3.2c0.2-1.6,0.7-3.1,1.3-4.5c0.7-1.5,1.4-2.8,2.4-4.1c0.9-1.1,1.9-2,3.1-2.6c0.9-0.5,1.9-0.7,3-0.7
	c0.7,0,1.4,0,2.1,0C209.7,13.1,210.3,13.1,210.9,13.2L210.9,13.2z M199.5,26.7c0,0.3,0,0.8,0.1,1.4c0.1,0.3,0.1,0.5,0.3,0.8
	c0.2,0.3,0.6,0.4,1,0.3c0.3-0.1,0.5-0.3,0.7-0.5c0.6-0.5,1-1.1,1.5-1.7c1.6-2.2,2.8-4.6,3.9-7.1c0.1-0.2,0.2-0.4,0.2-0.7
	c0.2-1.1,0.3-2.2,0.5-3.3c0-0.2,0-0.3-0.2-0.4c-0.7-0.4-1.4-0.6-2.1-0.7c-0.9-0.1-1.8,0-2.5,0.7c-0.6,0.6-1.1,1.3-1.4,2.1
	c-0.5,1.2-0.9,2.5-1.3,3.8C199.8,22.9,199.6,24.7,199.5,26.7L199.5,26.7z"/>
<path class="st2" d="M27.3,15.9c1.2-1.4,2.6-2.4,4.4-2.8c0.4-0.1,0.8-0.1,1.2-0.1c0.7,0,1.5,0,2.2,0c0.5,0,1.1,0.1,1.6,0.1
	c0.2,0,0.2,0.1,0.2,0.3c-0.1,0.7-0.3,1.5-0.4,2.2c0,0.1,0,0.2,0,0.3c-0.1,0.1-0.1,0.2-0.1,0.3c-0.1,0.3-0.1,0.6-0.2,0.9
	c0,0.1,0,0.2,0,0.3C36,17.9,36,18.5,35.9,19c-0.2,1.6-0.5,3.2-0.7,4.8c-0.2,1.5-0.4,3-0.6,4.6c0,0.3,0,0.6,0,0.9
	c0.1,0.4,0.5,0.6,0.9,0.5c0.4-0.1,0.8-0.4,1.1-0.7c0.8-0.8,1.5-1.7,2.2-2.6c0.1-0.1,0.1-0.2,0.3-0.3c-0.1,0.6-0.2,1.1-0.3,1.6
	c0,0,0,0.1-0.1,0.1c-0.8,1.1-1.7,2.2-2.8,3c-0.5,0.4-1.1,0.7-1.8,0.7c-1.1,0.1-1.8-0.5-2-1.6c-0.1-0.8-0.1-1.6,0-2.4
	c0.2-1.4,0.4-2.8,0.6-4.1c0-0.3,0.1-0.5,0.1-0.8c0-0.1,0.1-0.3,0-0.5c-0.2,0.1-0.2,0.2-0.2,0.3c-0.5,1.3-1,2.6-1.7,3.9
	c-0.8,1.5-1.7,2.9-2.9,4c-0.5,0.5-1,0.9-1.7,1.1c-0.8,0.3-1.6,0.2-2.3-0.4c-0.3-0.2-0.5-0.6-0.6-0.9c-0.2-0.5-0.3-1-0.4-1.6
	c-0.1-0.9-0.1-1.7,0-2.6c0.2-2.3,0.9-4.5,1.9-6.6c0.3-0.6,0.6-1.1,1-1.7c0.1-0.1,0.1-0.2,0.1-0.3c0.6,0,1.1,0,1.7,0
	c-0.1,0.1-0.1,0.3-0.2,0.4c-0.5,1.2-0.8,2.4-1.2,3.6c-0.5,1.9-0.8,3.8-0.7,5.7c0,0.5,0.1,1,0.3,1.5c0.3,0.5,0.7,0.7,1.2,0.4
	c0.2-0.1,0.4-0.3,0.6-0.4c0.6-0.6,1.2-1.2,1.6-1.9c1.4-2,2.5-4.1,3.5-6.3c0.4-1,0.6-2,0.7-3c0.1-0.1,0.1-0.2,0.1-0.3
	c0.1-0.3,0.1-0.6,0.2-0.9c0-0.1,0-0.2,0-0.3c0.2-0.4,0-0.4-0.2-0.5c-0.7-0.4-1.4-0.6-2.1-0.7c-0.7-0.1-1.4-0.1-2,0.3
	c-0.4,0.2-0.8,0.5-1,0.9c-0.2,0-0.4,0-0.7,0S27.5,16,27.3,15.9L27.3,15.9z"/>
<path class="st2" d="M177.7,18.8c0,2.6-0.6,5-1.8,7.2c-0.7,1.3-1.6,2.6-2.7,3.6c-1,0.9-2.1,1.6-3.5,1.9c-1.7,0.3-2.8-0.3-3.7-1.6
	c-0.7-1.2-1-2.5-1.1-3.8c-0.1-1.8,0.2-3.5,0.7-5.2c0.4-1.3,1-2.5,1.7-3.6c0.6-1,1.3-1.9,2.1-2.6c0.9-0.8,1.9-1.5,3.1-1.7
	c0.7-0.2,1.5-0.2,2.2,0.1c0.8,0.3,1.4,0.9,1.8,1.6c0.5,0.8,0.8,1.7,0.9,2.7C177.7,17.8,177.7,18.4,177.7,18.8L177.7,18.8z
	 M167.9,24.8c0,0.9,0.1,1.8,0.2,2.7c0.1,0.7,0.3,1.4,0.8,2c0.4,0.5,1,0.8,1.7,0.7c0.6-0.1,1.1-0.5,1.5-0.9c0.6-0.7,1-1.5,1.4-2.3
	c0.9-2.1,1.3-4.4,1.3-6.7c0-0.5,0-1.1,0-1.6c0-0.7-0.1-1.3-0.3-2c-0.1-0.6-0.3-1.2-0.8-1.7c-0.5-0.6-1.1-0.8-1.8-0.6
	c-0.6,0.1-1,0.5-1.4,1c-0.7,0.8-1.1,1.8-1.5,2.8C168.2,20.2,167.9,22.4,167.9,24.8L167.9,24.8z"/>
<path class="st2" d="M9,10.9c0.8,0,1.5,0,2.3,0c-0.3,1.2-0.4,2.5-0.6,3.7c-0.4,2.4-0.7,4.9-1.1,7.3c-0.2,1-0.4,1.9-0.8,2.8
	c-0.6,1.6-1.5,2.8-2.8,3.9c-0.1,0.1-0.2,0.1-0.3,0.3H6c1.1,0,2.2,0,3.2,0c1,0.1,2.1,0,3.1,0.1c1.9,0,3.6-0.5,5.2-1.7
	c0.1,0,0.1-0.1,0.3-0.1c0,0.2-0.1,0.5-0.1,0.8c0,0.3-0.2,0.6-0.4,0.8c-0.6,0.6-1.1,1.3-1.8,1.8c-0.6,0.6-1.4,0.9-2.3,1
	c-0.6,0.1-1.3,0-1.9,0c-0.3,0-0.6,0-0.9,0c-0.8,0-1.6-0.1-2.4-0.1c-1,0-2-0.1-3-0.2c-0.8,0-1.5-0.1-2.3-0.1c-0.6,0-1.3-0.1-1.9-0.1
	c0.1-0.3,0.4-0.6,0.6-0.9c0.3-0.5,0.7-0.9,1-1.4c0.1-0.2,0.2-0.2,0.4-0.2c0.3,0,0.7,0,1,0c0.8-0.1,1.3-0.5,1.7-1.2
	C6,26.7,6.2,25.8,6.4,25c0.4-1.7,0.6-3.4,0.8-5.1c0.3-2,0.6-4.1,0.9-6.1c0.2-0.8,0.4-1.6,0.7-2.4C8.9,11.2,9,11.1,9,10.9L9,10.9z"/>
<path class="st2" d="M231.3,24.2c0,0.4,0,0.7,0,1.1c0,0.9,0.1,1.8,0.4,2.6c0.2,0.4,0.4,0.9,0.7,1.2c0.5,0.5,1.1,0.6,1.8,0.6
	c1.3-0.1,2.4-0.8,3.4-1.5c0.6-0.5,1.2-0.9,1.8-1.5c0,0,0.1,0,0.1-0.1c-0.1,0.5-0.1,0.9-0.2,1.3c0,0.1-0.1,0.1-0.1,0.2
	c-1.1,0.9-2.1,1.8-3.4,2.5c-0.9,0.5-1.8,0.9-2.8,1c-1.7,0.2-2.9-0.5-3.7-2c-0.5-1-0.8-2-0.8-3.1c-0.2-2.5,0.3-4.8,1.3-7.1
	c0.8-1.8,1.9-3.5,3.3-4.9c0.8-0.8,1.7-1.3,2.8-1.6c0.5-0.1,0.9-0.2,1.4-0.1c0.7,0.1,1.2,0.5,1.6,1.1c0.4,0.6,0.6,1.3,0.6,2.1
	c0.1,1.2-0.1,2.3-0.6,3.4c-0.5,1.2-1.4,2.2-2.4,3c-1.4,1.1-2.9,1.7-4.6,1.8C231.8,24.2,231.5,24.2,231.3,24.2L231.3,24.2z
	 M231.3,23.1c0.3,0,0.6,0,0.8-0.1c1.2-0.2,2.4-0.7,3.3-1.6c1-1,1.6-2.2,1.7-3.6c0.1-0.8,0.1-1.5-0.1-2.3c-0.3-0.9-1-1.3-1.9-0.9
	c-0.6,0.3-1,0.7-1.4,1.2c-0.9,1.2-1.4,2.5-1.8,3.9C231.6,20.9,231.4,22,231.3,23.1L231.3,23.1z"/>
<path class="st2" d="M69.7,15.9c0.8-1.1,1.8-2.1,3-2.7c0.7-0.4,1.5-0.5,2.3-0.5c0.6,0,1.1,0.3,1.5,0.8c0.5,0.7,0.8,1.5,0.8,2.3
	c-0.8,0-1.7,0-2.5,0c0-0.9-0.6-1.5-1.4-1.4c-0.2,0-0.4,0.1-0.6,0.2c-0.5,0.3-1,0.7-1.3,1.2c-0.1,0.1-0.2,0.1-0.2,0.3
	c-0.2,0.3-0.4,0.6-0.5,0.9c-0.1,0.1-0.2,0.2-0.2,0.3c-0.1,0.1-0.1,0.3-0.2,0.4c-0.6,1.4-1.1,2.9-1.2,4.5c0,0.2-0.2,0.6,0,0.7
	c0.2,0.2,0.5,0,0.8,0c1.4-0.3,2.7-0.9,3.7-2c0.9-1,1.4-2.2,1.4-3.6c0.8,0,1.6,0,2.3,0c-0.2,1.4-0.8,2.6-1.7,3.7
	c-1.3,1.5-2.8,2.5-4.8,2.9c-0.5,0.1-1.1,0.1-1.6,0.2c-0.1,0-0.2,0-0.2,0.2c0,1.3,0,2.6,0.5,3.8c0.4,0.9,1.1,1.4,2.1,1.5
	c0.6,0,1.2-0.1,1.7-0.4c1.2-0.5,2.2-1.2,3.1-2c0.3-0.2,0.5-0.4,0.8-0.7c0,0.5-0.1,0.9-0.2,1.3c0,0.1-0.1,0.1-0.1,0.2
	c-1.4,1.3-2.8,2.4-4.6,3.1c-0.8,0.3-1.5,0.5-2.4,0.4c-1-0.1-1.8-0.6-2.4-1.4c-0.7-0.9-1.1-2-1.2-3.1c-0.3-2.7,0.1-5.2,1.2-7.7
	c0.3-0.7,0.7-1.4,1.1-2.1c0.1-0.1,0.1-0.2,0.2-0.3c0.2-0.3,0.4-0.6,0.6-0.9C69.6,16.1,69.7,16,69.7,15.9L69.7,15.9z"/>
<path class="st2" d="M213,18.2c0-0.2,0.1-0.5,0.1-0.7c0-0.4,0.2-0.7,0.4-1.1c0.7-1,1.5-1.9,2.4-2.7c0.6-0.5,1.2-0.8,1.9-1
	c1.1-0.2,1.8,0.3,2,1.1c0.2,0.7,0.3,1.4,0.2,2.1c0,0.4,0,0.8-0.1,1.2c-0.1,1.3-0.4,2.5-0.5,3.7c-0.1,0.4-0.1,0.7-0.1,1.2
	c0.1-0.2,0.2-0.3,0.2-0.4c0.6-1.5,1.2-2.9,2-4.3c0.7-1.3,1.5-2.5,2.6-3.5c0.5-0.5,1.1-0.9,1.7-1.2c0.8-0.3,1.5-0.2,2.2,0.2
	c0.2,0.1,0.2,0.2,0.1,0.4c-0.5,0.9-1,1.7-1.4,2.6c-0.1,0.2-0.1,0.2-0.4,0.1c-0.8-0.6-1.4-0.7-2.4,0.1c-0.7,0.6-1.2,1.3-1.7,2.1
	c-1.3,2-2.3,4.3-3.3,6.5c-0.2,0.4-0.2,0.7-0.2,1.1c-0.2,1.7-0.5,3.3-0.7,5c0,0.2-0.1,0.3-0.3,0.3c-0.6,0-1.3,0.1-1.9,0.1
	c-0.2,0-0.3,0-0.5,0.1c-0.1-0.1,0-0.2,0-0.4c0.3-1.5,0.6-3.1,0.8-4.6c0.2-1.1,0.3-2.2,0.5-3.3c0.3-1.7,0.5-3.5,0.8-5.2
	c0.1-0.6,0.1-1.2,0.2-1.8c0-0.3,0-0.7-0.1-1c-0.2-0.4-0.5-0.6-0.9-0.4c-0.4,0.1-0.8,0.4-1.1,0.7c-0.8,0.8-1.4,1.7-2,2.5
	c-0.1,0.1-0.1,0.2-0.2,0.3C213.1,18.3,213.1,18.2,213,18.2L213,18.2z"/>
<path class="st2" d="M40,15.9c0.4-0.5,0.8-1,1.3-1.4c0.6-0.6,1.3-1.2,2.1-1.5c0.4-0.2,0.9-0.3,1.4-0.2c0.5,0.1,0.9,0.4,1.1,0.9
	c0.3,0.6,0.3,1.2,0.3,1.7c0,0.1,0,0.3,0,0.4c0,0.1,0,0.2,0,0.3c-0.1,0.3-0.1,0.6-0.1,0.9c0,0.1,0,0.2,0,0.3c0,0-0.1,0.1-0.1,0.1
	c-0.2,1.3-0.4,2.6-0.6,3.9c0,0.2-0.1,0.5-0.1,0.8c0,0,0.1,0,0.1-0.1c0-0.1,0.1-0.2,0.1-0.3c0.4-1.1,0.9-2.2,1.4-3.3
	c0.2-0.4,0.4-0.7,0.6-1.1c0.5,0,0.9,0,1.4,0c-1,1.4-1.8,2.8-2.5,4.3c-0.5,1.1-1,2.1-1.5,3.2c-0.2,0.4-0.2,0.9-0.3,1.3
	c-0.2,1.5-0.5,3.1-0.7,4.6c0,0.2-0.1,0.3-0.3,0.3c-0.6,0-1.3,0.1-1.9,0.1c-0.1,0-0.3,0.2-0.4,0c-0.1-0.1,0-0.3,0-0.4
	c0.2-1.2,0.4-2.5,0.7-3.7c0.2-1.1,0.4-2.2,0.5-3.4c0.2-1.1,0.3-2.3,0.5-3.4c0.1-1,0.3-2,0.4-3c0-0.1,0-0.2,0-0.3
	c0.1-0.3,0.1-0.6,0.1-0.9c0-0.1,0-0.2,0-0.3c0-0.3,0-0.5-0.1-0.8c-0.2-0.4-0.5-0.6-0.9-0.4c-0.6,0.2-1.1,0.7-1.5,1.2
	C40.7,15.9,40.3,15.9,40,15.9L40,15.9z"/>
<path class="st2" d="M60,17.4c-0.2,1.1-0.3,2.1-0.5,3.2c-0.3,1.8-0.5,3.6-0.8,5.4c-0.1,0.7-0.2,1.4-0.2,2.1c0,0.3,0,0.6,0.1,0.8
	c0.1,0.5,0.5,0.7,1,0.6c0.4-0.1,0.7-0.2,1-0.4c0.8-0.5,1.4-1.1,2-1.8c0.1-0.1,0.2-0.3,0.4-0.4c-0.1,0.5-0.1,1-0.2,1.5
	c-0.1,0.3-0.3,0.5-0.5,0.7c-0.7,0.8-1.5,1.6-2.4,2.1c-0.6,0.3-1.2,0.5-1.9,0.5c-0.9,0-1.5-0.4-1.9-1.3c-0.3-0.7-0.3-1.5-0.3-2.3
	c0-0.7,0.1-1.4,0.2-2.1c0.2-1.5,0.5-3,0.7-4.5c0.2-1.2,0.4-2.3,0.5-3.5c0-0.2,0-0.3,0.1-0.5C58.2,17.4,59.1,17.4,60,17.4L60,17.4z"
	/>
<path class="st3" d="M111.6,9.5c0,0.1,0,0.2,0.1,0.3c-0.6,0.4-1.3,0.4-1.9,0c-0.2-0.1-0.3-0.2-0.5,0c-0.2,0.1-0.5,0-0.5,0.4
	c-0.1,0-0.1,0.1-0.2,0.2c0,0-0.1-0.1-0.1,0c-0.1,0.2-0.2,0.3-0.2,0.6c0,0.4,0,0.7,0,1.1c-0.1,0.4,0,0.8-0.1,1.1c0,0.1,0,0.1,0.1,0.2
	c0,0,0,0,0,0c0.6-0.4,1.2-0.8,1.9-1c0.2,0,0.3-0.2,0.4-0.4c0.1-0.3,0-0.7-0.1-1c0.1,0,0.3,0,0.4,0c-0.1,0.2,0,0.4,0,0.7
	c0.1,0.4,0.2,0.8,0.2,1.2c0,0.4,0,0.8-0.1,1.2c-0.2,0.4-0.2,0.8-0.5,1.2c0,0.1,0,0.1,0.1,0.2c0.1,0,0.2,0.1,0.2,0.1
	c0.3,0.1,0.4,0.1,0.5-0.2c0.2-0.5,0.3-1.1,0.4-1.6c0.1-0.7,0-1.5,0-2.2c0.1-0.1,0.1-0.2,0.1-0.3c0-0.1-0.1-0.1-0.2,0
	c0-0.1-0.1-0.1-0.1-0.2c0.1,0,0.3-0.1,0.4,0c-0.1,0.1,0,0.3,0,0.4c0.1,0.9,0,1.7,0,2.5c-0.2,0.4-0.1,0.9-0.3,1.3
	c-0.1,0.2-0.2,0.4-0.2,0.6c0,0.2,0,0.3,0.2,0.4c0.3,0.1,0.4,0.4,0.4,0.7c0,0.3-0.2,0.4-0.4,0.4c-0.2,0-0.3,0-0.5,0
	c-0.3,0-0.5,0.1-0.6,0.3c-0.2,0.3-0.4,0.5-0.6,0.7c-0.1,0.1-0.1,0.1-0.2,0.2c-0.3,0.1-0.6,0.3-0.9,0.4c-0.4,0.2-0.8,0.1-1.2,0
	c-0.3,0-0.7-0.6-0.7-1c0-0.2,0-0.3,0-0.5c0-0.1,0-0.2,0-0.3c0.1-0.2,0.1-0.5,0.1-0.7c0-0.1,0-0.2-0.1-0.2V16c0.2,0,0.4-0.1,0.4-0.3
	c0-0.4,0.2-0.7,0.3-1.1c0.1-0.2,0-0.3-0.1-0.4c-0.1-0.1-0.2-0.2-0.2-0.3c-0.1-0.2-0.2-0.4-0.2-0.6c0-0.6,0-1.1,0-1.7
	c0-0.6,0.2-0.5,0.2-0.8c0-0.3,0.2-0.6,0.4-0.9c0.3-0.3,0.2-0.4-0.1-0.8c-0.3-0.3-0.6-0.7-0.8-1.2c0-0.1-0.1-0.2,0-0.3
	C107,7.5,107,7.2,107,7c0-0.2,0.1-0.3,0.3-0.4c0.2-0.1,0.3-0.3,0.5-0.3c0.5-0.1,1,0,1.4,0.2c0.2,0.1,0.5,0.2,0.7,0.4
	c0.5,0.3,0.9,0.7,1.2,1.2c0.3,0.5,0.5,0.9,0.7,1.4L111.6,9.5z M108.3,8.4c0.1,0,0.2,0.1,0.3,0.2c0.1,0.1,0.1,0.1,0.2,0
	c0.1-0.1,0.3-0.1,0.4-0.2c0.2-0.1,0.2-0.2,0.1-0.3c-0.1-0.1-0.2-0.2-0.3-0.3c-0.2-0.1-0.4-0.1-0.6,0c-0.2,0.1-0.1,0.3-0.1,0.4
	C108.3,8.3,108.3,8.4,108.3,8.4C108,8.3,108,8,108,7.7c0-0.1,0.1-0.2,0.2-0.2c0.3,0,0.5-0.1,0.7,0c0.3,0.2,0.7,0.4,0.9,0.7
	c0.3,0.4,0.6,0.7,0.8,1.1c0.1,0.2,0.2,0.2,0.4,0.2c0.2-0.1,0.2-0.2,0.1-0.4c-0.1-0.5-0.4-0.9-0.6-1.2c-0.3-0.4-0.6-0.8-1.1-1
	c-0.2-0.1-0.3-0.2-0.4-0.3c-0.1-0.1-0.2-0.1-0.3-0.2c-0.3,0-0.6-0.1-0.8-0.1c-0.1,0-0.3,0-0.4,0.1c-0.4,0.3-0.7,1.2-0.4,1.7
	c0.2,0.2,0.4,0.5,0.5,0.7c0,0.1,0.1,0.1,0.2,0.1c0.2,0.1,0.3,0.1,0.5,0c0.2-0.1,0.2-0.2,0.1-0.5C108.3,8.6,108.3,8.5,108.3,8.4
	L108.3,8.4z M108.6,17.8c0-0.1,0.2-0.2,0.2-0.3c-0.1-0.1-0.3,0-0.4-0.1c0,0,0,0,0,0c-0.1,0-0.1,0.1-0.1,0.2
	C108.2,17.8,108.3,17.8,108.6,17.8c0,0.1-0.1,0.1-0.2,0.2c-0.3,0.2-0.5,0.1-0.5-0.3c-0.1-0.3,0-0.6,0-0.9c0-0.4,0-0.9,0.3-1.3
	c0.1-0.8,0.8-1.3,1.2-1.9c0,0,0.1-0.1,0.2-0.1c0.2-0.1,0.4-0.3,0.6-0.4c0.2-0.1,0.2-0.2,0.1-0.4c0-0.2-0.2-0.1-0.3-0.1
	c-0.2-0.1-0.4,0-0.6,0.2c-0.3,0.2-0.5,0.5-0.8,0.6c-0.1,0-0.1,0.1-0.1,0.1c-0.1,0.4-0.4,0.6-0.6,0.8c-0.1,0.1-0.1,0.2-0.2,0.3
	c-0.1,0.2-0.1,0.3-0.2,0.5c-0.1,0.2-0.2,0.3-0.2,0.5c0,0.2,0,0.4-0.2,0.5c-0.1,0-0.1,0.1-0.1,0.2c0,0.3-0.1,0.6-0.1,0.9
	c-0.1,0.4,0,0.7,0.2,1c0.1,0.1,0.2,0.3,0.4,0.3c0.5,0.1,1,0,1.4-0.3c0.2-0.1,0.3-0.2,0.5-0.3c0.3-0.1,0.4-0.4,0.6-0.6
	c0.1-0.1,0.1-0.2,0.1-0.4c0-0.1,0-0.1-0.1-0.2c-0.3-0.1-0.6,0-0.7,0.2C109.3,17.5,108.9,17.6,108.6,17.8
	C108.7,17.8,108.7,17.8,108.6,17.8L108.6,17.8z M107.3,12.4c0,0.4,0.1,0.8,0.1,1.2c0,0.2,0.1,0.2,0.3,0.2c0.1,0,0.2,0,0.3-0.2
	c0.1-0.4,0.1-0.7,0.1-1.1c-0.1-0.7,0-1.5,0.3-2.2c0.2-0.4,0.4-0.7,0.8-0.8c0.2-0.1,0.4-0.2,0.6-0.3c0.2-0.1,0.2-0.2,0.1-0.4
	c-0.1-0.2-0.2-0.2-0.4-0.1c-0.4,0.1-0.7,0.4-1,0.6c-0.4,0.2-0.5,0.7-0.8,1c0,0.3-0.3,0.4-0.3,0.7C107.4,11.4,107.3,11.9,107.3,12.4
	L107.3,12.4z M111.3,17c0.3,0,0.4-0.1,0.5-0.3c0-0.2,0-0.3-0.3-0.4c-0.1,0-0.2-0.1-0.3-0.1c-0.4-0.1-0.8-0.2-1.1-0.6
	c-0.1-0.1-0.1-0.1-0.2-0.1c-0.2,0-0.3-0.1-0.5-0.3c-0.1-0.1-0.2-0.3-0.4-0.2c-0.2,0.1-0.2,0.3-0.2,0.4c0,0.1,0,0.1,0,0.2
	s0,0.1,0.1,0.2c0.5,0.2,0.9,0.6,1.4,0.7c0,0,0.1,0,0.1,0.1C110.7,17,111.1,16.9,111.3,17L111.3,17z M110.9,13.7
	c0-0.3-0.1-0.4-0.3-0.3c-0.1,0-0.2,0.1-0.3,0.1c-0.3,0.2-0.6,0.4-0.9,0.5c-0.1,0.1-0.2,0.2-0.3,0.3c-0.1,0.1-0.1,0.2,0.1,0.3
	c0.3,0.2,0.5,0.3,0.8,0.5c0.2,0.1,0.3,0,0.3-0.2c0-0.2,0.1-0.3,0.2-0.5C110.7,14.2,110.9,13.9,110.9,13.7L110.9,13.7z M108.7,17.1
	c0.1,0,0.1,0,0.2,0c0.4,0,0.5-0.3,0.4-0.7c-0.1-0.3-0.4-0.3-0.6-0.2c-0.4,0-0.4,0-0.4,0.4C108.2,17.1,108.2,17.1,108.7,17.1z
	 M110.4,9.5c0-0.1-0.1-0.2-0.2-0.2c-0.1,0-0.2-0.1-0.3,0.1c-0.1,0.1,0.1,0.2,0.2,0.2C110.1,9.6,110.2,9.7,110.4,9.5
	C110.3,9.6,110.3,9.5,110.4,9.5L110.4,9.5z"/>
<path class="st2" d="M16.4,10.9c0-0.1,0-0.2,0-0.3c0-0.3,0-0.6,0-0.9c0-0.1,0-0.2-0.1-0.3c0-0.2,0-0.3-0.1-0.4
	c-0.4-1.4-1.5-1.8-2.6-1.5c-1,0.2-1.5,1-1.8,1.9c-0.7,0-1.3,0-2,0c0.8-1.3,1.8-2.3,3.1-3c0.8-0.4,1.6-0.6,2.5-0.5
	c0.7,0.1,1.3,0.4,1.9,0.7c0.4,0.2,0.6,0.5,0.5,1c-0.1,0.6-0.2,1.1-0.3,1.7v0c-0.1,0.1-0.1,0.2-0.1,0.3c0,0.3-0.1,0.6-0.1,0.9
	c-0.1,0.1-0.1,0.2-0.1,0.3c0,0.2,0,0.3-0.3,0.3c-0.2,0-0.4,0-0.6,0C16.4,11.2,16.4,11,16.4,10.9L16.4,10.9z"/>
<path class="st3" d="M23.6,9.3c0.2,0.2,0.4,0.1,0.6,0.1c0.3,0,0.4,0.1,0.5,0.4c0,0.1,0,0.1,0,0.2c-0.2,0.2-0.2,0.5-0.4,0.6
	c-0.2,0.1-0.3,0.3-0.2,0.6c0.1,0.2,0.1,0.4,0.1,0.7c0,0.7,0,1.3-0.1,2c-0.1,0.5-0.1,1.1-0.4,1.6c-0.1,0.1-0.2,0.4,0,0.5
	c0,0.1-0.1,0.1-0.1,0.2c-0.2,0-0.3-0.1-0.5-0.2c-0.4,0-0.7-0.3-1-0.6c-0.2-0.3-0.5-0.3-0.8-0.5c-0.1-0.1-0.3,0-0.4,0.1
	c-0.2,0.3-0.1,0.5,0.2,0.7c0.1,0.1,0.2,0.1,0.2,0.2c0.5,0.5,1,0.8,1.7,1c0.1,0,0.2,0.1,0.2,0.1c-0.1,0-0.2,0-0.2,0.1
	c-0.2-0.1-0.4,0-0.4,0.2c-0.2,0.3-0.4,0.6-0.7,0.8c-0.4,0.2-0.9,0.5-1.3,0.6c-0.3,0.1-0.7,0-1,0c-0.3-0.1-0.4-0.3-0.5-0.5
	C19,18.3,19,18.1,19,18c0-0.6,0-1.2,0.1-1.7c0-0.2,0.1-0.3,0.2-0.4c0.1,0.1,0.1,0.2,0.2,0.3c-0.1,0.1-0.1,0.1-0.2,0.3
	c0,0.3-0.1,0.7-0.1,1c0,0.3,0.1,0.7,0.2,0.9c0.1,0.1,0.2,0.3,0.4,0.3c0.5,0.1,0.9,0,1.3-0.2c0.2-0.1,0.4-0.3,0.6-0.4
	c0.2-0.1,0.4-0.4,0.6-0.6c0.1-0.1,0.2-0.3,0-0.4c-0.1-0.2-0.6-0.1-0.7,0.1c-0.1,0.2-0.2,0.3-0.4,0.4c-0.1,0-0.2,0.1-0.2,0.2
	c-0.1,0.3-0.4,0.3-0.6,0.4c-0.1,0.1-0.2,0-0.2-0.1c-0.1-0.1-0.1-0.2-0.1-0.3c0-0.2,0-0.4,0-0.6c0-0.5,0.1-1,0.3-1.5
	c0.2-0.6,0.5-1.1,0.9-1.5c0.3-0.3,0.6-0.6,0.9-0.8c0.1-0.1,0.3-0.2,0.4-0.2c0.3,0,0.3-0.1,0.3-0.4c0-0.3-0.1-0.4-0.4-0.3
	c-0.4,0.2-0.8,0.3-1.2,0.6c-0.1-0.1-0.1-0.1,0-0.2c0.2-0.2,0.6-0.4,0.9-0.5c0.5-0.1,0.7-0.5,0.6-1C22.7,11,22.7,11,22.4,11
	c-0.1,0-0.2,0-0.2,0c0-0.1-0.1-0.1-0.1,0c-0.1,0-0.2,0-0.2,0c0-0.1-0.1-0.2-0.2-0.3c0-0.1-0.2-0.1-0.1-0.3c0.5,0.2,1,0.1,1.5,0.3
	c0.5,0.1,0.9-0.1,1.3-0.3c0.1,0,0.1-0.1,0.1-0.2c0-0.3-0.2-0.4-0.5-0.4c-0.1,0-0.2,0-0.3,0.1C23.6,9.7,23.5,9.6,23.6,9.3L23.6,9.3z
	 M23.8,12.1c0-0.3,0-0.6-0.1-0.8c-0.1-0.3-0.3-0.4-0.6-0.4c-0.1,0-0.2,0.1-0.2,0.3c0,0.1,0.1,0.3,0.1,0.4c0.1,0.4,0.2,0.8,0.2,1.3
	c0,0.3-0.1,0.7-0.1,1c0,0.1,0,0.2-0.1,0.2c-0.2,0.3-0.3,0.7-0.4,1c0,0.2,0,0.3,0.3,0.4c0.2,0.1,0.3,0,0.4-0.2
	c0.2-0.6,0.3-1.2,0.4-1.8C23.9,13.1,23.9,12.6,23.8,12.1L23.8,12.1z M23,13.6c0-0.2-0.1-0.3-0.3-0.2c-0.1,0-0.2,0.1-0.2,0.1
	c-0.3,0.2-0.6,0.4-0.9,0.5c-0.1,0.1-0.2,0.2-0.3,0.3c-0.1,0.1,0,0.2,0,0.2c0.3,0.2,0.6,0.3,0.9,0.5c0.1,0.1,0.3,0,0.3-0.2
	c0-0.4,0.3-0.6,0.4-1C23,13.8,23,13.7,23,13.6L23,13.6z M20.3,17.1c0,0.2,0,0.3,0,0.5s0.1,0.2,0.3,0.2c0.1,0,0.2-0.1,0.3-0.2
	c0.1-0.2,0.2-0.4,0.4-0.5c0.2-0.2,0.2-0.3,0.1-0.5c-0.1-0.2-0.2-0.3-0.3-0.5c-0.2-0.3-0.4-0.2-0.6,0.1
	C20.4,16.4,20.3,16.8,20.3,17.1L20.3,17.1z"/>
<path class="st1" d="M19.5,16.1c-0.1-0.1-0.1-0.2-0.2-0.3c0-0.1,0.1-0.3,0.1-0.4c0.1,0,0.1-0.1,0-0.2c0.1-0.3,0.1-0.6,0.3-0.8
	c0.1-0.1,0.1-0.1,0-0.2c-0.2-0.3-0.4-0.5-0.5-0.8c0-0.1,0-0.2,0-0.2c0-0.7-0.1-1.5,0-2.2h-1.8c0-0.1,0-0.2,0.1-0.3c0.3,0,0.7,0,1,0
	c0.3,0,0.6,0.1,0.7,0c0.2-0.1,0.2-0.4,0.3-0.6c0-0.1,0.1-0.1,0.1-0.2h-2c0-0.1,0-0.2,0.1-0.3c0,0,0.1,0,0.1,0h1.9
	c0.1-0.3,0-0.4-0.1-0.6c-0.2-0.2-0.3-0.4-0.4-0.6c0-0.1-0.1-0.1,0-0.2c0,0,0.1,0,0.1,0c0.2,0.3,0.4,0.6,0.6,0.9
	c0.1,0.1,0.3,0.2,0.4,0.1c0,0,0.1,0,0.1,0c0.1-0.1,0.1-0.2,0.2-0.2c0,0.1,0,0.2,0,0.3c-0.3,0.3-0.6,0.6-0.8,0.9
	c-0.2,0.3-0.3,0.7-0.3,1.1c0,0.7-0.1,1.4,0,2.1c0,0.1,0,0.2,0.1,0.3c0,0.1,0.1,0.2,0.1,0.3c0.1,0.1,0.2,0.1,0.3,0c0,0,0,0,0.1-0.1
	c0.2-0.1,0.4-0.2,0.2-0.4c0,0,0-0.1,0-0.1c0.1-0.5-0.1-0.9,0-1.4h0c0,0,0,0,0-0.1c0-0.1,0-0.2,0-0.2c0,0,0-0.1,0-0.2
	c0-0.4,0-0.8,0.3-1.2c0,0,0.1,0.1,0.1,0.1c0,0.2-0.2,0.2-0.1,0.4h1c0.1,0.1,0.2,0.1,0.2,0.3c-0.3,0-0.7,0-1,0c-0.2,0-0.3,0-0.3,0.3
	c0,0.3,0,0.7,0,1c0,0.4-0.1,0.7,0,1.1c0,0.1,0.1,0.1,0.2,0.1c0.1,0,0.1-0.1,0-0.1c0.1-0.2,0.3-0.3,0.5-0.3c0.1,0,0.2-0.1,0.2,0.1
	c0,0.1-0.1,0.1-0.1,0.2l0,0c-0.1,0-0.1,0.1-0.2,0.1c-0.1,0-0.2,0-0.2,0.1c-0.3,0.3-0.4,0.7-0.7,1C20,14.5,20,14.8,19.9,15
	c0,0,0,0.1,0,0.1c0,0.2-0.2,0.2-0.2,0.4c-0.1,0.1-0.1,0.2,0,0.4C19.6,16,19.6,16.1,19.5,16.1L19.5,16.1z"/>
<path class="st1" d="M60,17.4c-0.9,0-1.7,0-2.6,0c-2.8,0-5.6,0-8.4,0c-0.5,0-0.9,0-1.4,0c-0.5,0-1,0-1.5,0c0-0.1,0-0.2,0-0.3
	c0.2,0,0.3,0,0.5,0h21.8c0.2,0,0.3,0,0.5,0c0,0.1-0.1,0.2-0.2,0.3C65.8,17.4,62.9,17.4,60,17.4L60,17.4z"/>
<path class="st1" d="M77.3,17.4c-0.8,0-1.6,0-2.3,0c-1.4,0-2.9,0-4.3,0c0-0.1,0.1-0.2,0.2-0.3c6.8,0,13.7,0,20.5,0s0.3,0,0.5,0
	c0,0.1-0.1,0.2-0.2,0.3c-4.6,0-9.2,0-13.8,0C77.7,17.4,77.5,17.4,77.3,17.4L77.3,17.4z"/>
<path class="st1" d="M106.8,17.2c0,0.1,0,0.2,0,0.3c-1.5,0-3,0-4.5,0c-0.2,0-0.3,0-0.5,0c-0.9,0-1.7,0-2.6,0c-2,0-4,0-5.9,0
	c0-0.1,0.1-0.2,0.2-0.3c4.3,0,8.6,0,12.9,0C106.5,17.1,106.6,17.1,106.8,17.2L106.8,17.2z"/>
<path class="st1" d="M23,17.3c0-0.1,0.1-0.1,0.2-0.1c3.5,0,7,0,10.5,0c0,0.1,0,0.2-0.1,0.3c-0.2,0-0.3,0-0.5,0c-1.8,0-3.6,0-5.5,0
	c-0.6,0-1.1,0-1.7,0c-0.7,0-1.4,0-2.1,0C23.6,17.4,23.3,17.4,23,17.3L23,17.3z"/>
<path class="st1" d="M43.5,17.1c0,0.1,0,0.2,0,0.3h-3.7c-0.2,0-0.4,0-0.6,0c-1,0-2,0-3,0c0-0.1,0-0.2,0-0.3c0.2,0,0.4,0,0.6,0
	C39.1,17.1,41.3,17.1,43.5,17.1z"/>
<path class="st2" d="M39.2,17.4c0.2,0,0.4,0,0.6,0c-0.2,0.3-0.4,0.6-0.6,1C39.1,18,39.2,17.7,39.2,17.4z"/>
<path class="st3" d="M19.7,14.3c0.1,0,0.1,0.1,0,0.2C19.7,14.4,19.7,14.3,19.7,14.3z"/>
<path class="st3" d="M19.4,15.2c0.1,0.1,0.1,0.1,0,0.2C19.3,15.3,19.3,15.3,19.4,15.2z"/>
<path class="st2" d="M213.1,18.3C213.1,18.3,213,18.4,213.1,18.3C213,18.3,213,18.3,213.1,18.3C213,18.2,213,18.3,213.1,18.3
	L213.1,18.3z"/>
<path class="st3" d="M191.7,10.9c0,0,0,0.1-0.1,0.1c0,0,0-0.1-0.1-0.1C191.6,10.9,191.7,10.9,191.7,10.9L191.7,10.9z"/>
<path class="st2" d="M57.7,15.9c0.1-0.5,0.1-0.9,0.2-1.5H55c0.3-0.4,0.6-0.8,0.8-1.2c0.1-0.1,0.2-0.1,0.3-0.1c0.5,0,1,0,1.6,0
	c0.4,0,0.4,0,0.5-0.4c0.2-1.1,0.3-2.2,0.5-3.3c0-0.2,0.1-0.3,0.1-0.5c0-0.4,0.2-0.6,0.6-0.7c0.7-0.2,1.4-0.4,2.2-0.7
	c-0.3,1.9-0.5,3.7-0.8,5.5h4.7c-0.2,0.3-0.4,0.6-0.6,0.9c-0.1,0.2-0.2,0.4-0.4,0.6c-0.2,0.1-0.5,0-0.7,0c-1-0.1-1.9-0.2-2.9-0.1
	c-0.3,0-0.3,0-0.3,0.3c0,0.4-0.2,0.8-0.1,1.2C59.4,16,58.5,16,57.7,15.9L57.7,15.9z"/>
<path class="st2" d="M194.3,9.5c-0.6,0-1.3,0-1.9,0c-0.1,0-0.2,0-0.2-0.1c0.2-0.9,0.6-1.7,1.1-2.5c0.8-1.4,1.9-2.6,3.2-3.5
	c1-0.7,2-1.1,3.2-1.2c1-0.1,2,0,3,0.3c0.1,0.1,0,0.2-0.1,0.2c-0.5,0.6-0.9,1.3-1.4,1.9c-0.2,0.2-0.2,0.2-0.5,0.1
	c-0.6-0.3-1.2-0.6-1.9-0.7c-1.1-0.1-2.1,0.2-2.8,1.1c-0.6,0.6-0.8,1.4-1.1,2.2c-0.2,0.6-0.4,1.3-0.5,1.9
	C194.3,9.3,194.3,9.4,194.3,9.5L194.3,9.5z"/>
<path class="st2" d="M48.6,15.9c0.5-0.7,1-1.3,1.6-1.9c0.5-0.5,1-0.9,1.7-1.1c0.8-0.3,1.5-0.2,2.2,0.2c0.2,0.1,0.2,0.2,0.1,0.4
	c-0.4,0.7-0.7,1.4-1.1,2c-0.1,0.1-0.2,0.2-0.1,0.4c-0.1,0-0.2,0.2-0.2,0.3c-0.1,0.3-0.2,0.5-0.5,0.8c-0.1-0.3-0.1-0.6-0.3-0.8
	c0-0.1-0.1-0.2-0.2-0.3c-0.1-0.2-0.3-0.2-0.5-0.2c-0.3,0-0.5,0.1-0.7,0.2C49.9,16,49.2,16,48.6,15.9L48.6,15.9z"/>
<path class="st0" d="M20.2,9.1c-0.2,0.1-0.3,0-0.4-0.1c-0.2-0.3-0.4-0.6-0.6-0.9c0-0.3,0-0.6,0-0.9c0-0.2,0.1-0.3,0.2-0.5
	c0,0,0.1-0.1,0.1-0.1c0.1,0,0.1-0.1,0.1-0.2c-0.1-0.1-0.2-0.1-0.2,0c0.1-0.1,0.2-0.2,0.3-0.1v0h0c0.1,0.1,0.3,0,0.4,0
	c0.1,0,0.2,0,0.3,0c0.1,0.1,0.3,0.1,0.4,0c0.3,0,0.4,0.3,0.6,0.4c0.4,0.2,0.8,0.5,1.1,0.9c0.3,0.4,0.6,0.8,0.8,1.3
	c0.1,0.2,0,0.3-0.2,0.3c-0.1,0-0.3,0-0.4,0c-0.1-0.1-0.1-0.3-0.2-0.4c-0.4-0.4-0.6-0.9-1.1-1.2c-0.3-0.2-0.5-0.4-0.9-0.3
	c-0.4,0-0.5,0.1-0.4,0.5c0.1,0.2,0.1,0.4,0.3,0.6c0.1,0.1,0.1,0.1,0.1,0.2c-0.1,0-0.2,0.1-0.2,0.2C20.2,9,20.2,9,20.2,9.1L20.2,9.1z
	"/>
<path class="st1" d="M74.9,15.9c0.8,0,1.7,0,2.5,0c5,0,9.9,0,14.9,0c0.2,0,0.3,0,0.5,0c0,0.1-0.1,0.2-0.2,0.3c-0.2,0-0.3,0-0.5,0
	c-6.7,0-13.5,0-20.2,0c-0.2,0-0.3,0-0.5,0c0-0.1,0.1-0.2,0.2-0.3C72.7,16,73.8,16,74.9,15.9L74.9,15.9z"/>
<path class="st1" d="M52.7,16.2c0-0.1,0.1-0.2,0.2-0.3c1.6,0,3.1,0,4.7,0c0.9,0,1.7,0,2.6,0c3,0,6,0,9,0c0.2,0,0.3,0,0.5,0
	c0,0.1-0.1,0.2-0.2,0.3c-1.6,0-3.2,0-4.8,0C60.8,16.2,56.7,16.2,52.7,16.2z"/>
<path class="st1" d="M106.8,16v0.2c-0.1,0-0.2,0-0.3,0H94.3c-0.1,0-0.2,0-0.3,0c0-0.1,0.1-0.2,0.2-0.3c1.8,0,3.5,0,5.3,0
	c0.8,0,1.7,0,2.5,0c1.4,0,2.9,0,4.3,0C106.5,15.9,106.7,15.9,106.8,16L106.8,16z"/>
<path class="st1" d="M23.5,16.1c0-0.1,0.1-0.1,0.1-0.2h3.2c0.2,0,0.3,0,0.5-0.1c0.2,0.1,0.5,0,0.7,0.1c0.2,0,0.4,0,0.7,0
	c1.7,0,3.5,0,5.2,0c0,0.1,0,0.2,0,0.3c-0.2,0-0.3,0-0.5,0c-3.1,0-6.1,0-9.2,0C23.9,16.2,23.7,16.3,23.5,16.1L23.5,16.1z"/>
<path class="st1" d="M19.6,6.4L19.6,6.4L19.6,6.4c-0.1-0.2,0-0.2,0.1-0.2c0.5-0.1,1-0.1,1.5,0.2c1,0.5,1.8,1.4,2.2,2.4
	c0.1,0.2,0.1,0.3,0.1,0.5c-0.2,0.2,0,0.4,0,0.5c0,0-0.1,0-0.1,0c-0.3-0.2-0.6-0.2-1-0.1c0,0-0.1,0-0.2,0c-0.1-0.2-0.2-0.1-0.3-0.1
	c-0.2,0-0.4,0-0.6,0.2c-0.1,0.1-0.1,0.1-0.2,0.2c0,0,0,0-0.1,0l0,0c0,0,0-0.1-0.1-0.1l0,0c-0.1-0.1-0.3,0-0.3-0.2
	c0-0.1,0.1-0.2,0.2-0.2c0.1,0,0.1,0,0.1,0c0.2-0.1,0.4-0.2,0.7-0.4c0,0,0.1,0.1,0.1,0.1c0.1,0.2,0.2,0.1,0.4,0.1c0.1,0,0.2,0,0.4,0
	c0.1,0,0.3,0,0.4,0c0.2,0,0.3-0.1,0.2-0.3c-0.2-0.5-0.5-0.9-0.8-1.3c-0.3-0.4-0.6-0.7-1.1-0.9c-0.2-0.1-0.4-0.4-0.6-0.4
	c-0.1-0.1-0.3-0.1-0.4,0c-0.1,0-0.2,0-0.3,0C19.9,6.3,19.8,6.3,19.6,6.4z"/>
<path class="st1" d="M40,15.9c0.3,0,0.7,0,1,0h2.6c0,0.1,0,0.2,0,0.3c-0.2,0-0.3,0-0.5,0c-2.2,0-4.4,0-6.7,0c0-0.1,0-0.2,0.1-0.3
	C37.7,15.9,38.8,15.9,40,15.9L40,15.9z"/>
<path class="st1" d="M51.8,15.9c0.1,0.1,0.2,0.1,0.2,0.3c-2,0-3.9,0-5.8,0c0-0.1,0-0.2,0-0.3c0.8,0,1.6,0,2.4,0c0.7,0,1.4,0,2.1,0
	C51,15.9,51.4,15.9,51.8,15.9L51.8,15.9z"/>
<path class="st1" d="M19.3,6.8c-0.1,0.1-0.2,0.3-0.2,0.5c-0.1,0.3,0,0.6-0.1,0.9c-0.2,0-0.2-0.3-0.2-0.4c0-0.4-0.1-0.8,0.2-1.1
	C19.1,6.7,19.2,6.7,19.3,6.8L19.3,6.8z"/>
<path class="st3" d="M19.3,6.8c-0.1,0-0.2,0-0.2,0c0-0.1,0.1-0.2,0.2-0.2c0.1-0.1,0.2-0.1,0.2,0c0,0.1,0,0.1-0.1,0.2
	C19.4,6.7,19.4,6.7,19.3,6.8z"/>
<path class="st3" d="M19,8.2c0.1-0.3-0.1-0.6,0.1-0.9C19.1,7.5,19.1,7.8,19,8.2C19.1,8.1,19,8.2,19,8.2L19,8.2L19,8.2z"/>
<path class="st3" d="M17.6,9.5c0,0-0.1,0-0.1,0v0C17.6,9.4,17.6,9.5,17.6,9.5z"/>
<path class="st0" d="M111.5,11c0,0.1,0.1,0.1,0.1,0.2c0,0.1,0,0.2,0.1,0.3c0,0.7,0.1,1.5,0,2.2c-0.1,0.6-0.2,1.1-0.4,1.6
	c-0.1,0.3-0.2,0.3-0.5,0.2c-0.1,0-0.2-0.1-0.2-0.1c-0.1,0-0.1-0.1-0.1-0.2c0.2-0.4,0.3-0.8,0.5-1.2c0.2-0.3,0.1-0.8,0.1-1.2
	c0.1-0.4-0.1-0.8-0.2-1.2c0-0.2-0.1-0.4,0-0.7c0.1,0,0.1,0,0.2,0c0,0,0.1,0,0.1,0C111.3,10.9,111.4,11,111.5,11L111.5,11z"/>
<path class="st3" d="M111.2,10.9C111.2,10.9,111.1,10.9,111.2,10.9C111.1,10.9,111.2,10.9,111.2,10.9z"/>
<path class="st0" d="M71.3,16.2c0.2,0,0.3,0,0.5,0c6.7,0,13.5,0,20.2,0c0.2,0,0.3,0,0.5,0c-0.2,0.3-0.5,0.6-0.7,0.9
	c-0.2,0-0.3,0-0.5,0c-6.8,0-13.7,0-20.5,0C70.9,16.8,71.1,16.5,71.3,16.2L71.3,16.2z"/>
<path class="st0" d="M94,16.2c0.1,0,0.2,0,0.3,0c4.1,0,8.1,0,12.2,0s0.2,0,0.3,0c0.1,0,0.1,0.1,0.1,0.2c0,0.2,0,0.5-0.1,0.7
	c-0.2,0-0.3,0-0.5,0c-4.3,0-8.6,0-12.9,0C93.5,16.8,93.7,16.5,94,16.2L94,16.2z"/>
<path class="st0" d="M23.5,16.1c0.2,0.1,0.4,0.1,0.6,0.1c3.1,0,6.1,0,9.2,0c0.2,0,0.3,0,0.5,0c0,0.3-0.1,0.6-0.2,0.9
	c-3.5,0-7,0-10.5,0C23.2,17.1,23.1,17,23,17c-0.7-0.2-1.2-0.5-1.7-1c-0.1-0.1-0.2-0.1-0.2-0.2c-0.3-0.2-0.3-0.5-0.2-0.7
	c0.1-0.2,0.2-0.2,0.4-0.1c0.3,0.1,0.5,0.2,0.8,0.5c0.2,0.3,0.6,0.5,1,0.6C23.2,16,23.3,16.1,23.5,16.1L23.5,16.1z"/>
<path class="st0" d="M36.4,16.2c2.2,0,4.4,0,6.7,0c0.2,0,0.3,0,0.5,0c0,0.3,0,0.6-0.1,0.9c-2.2,0-4.5,0-6.7,0c-0.2,0-0.4,0-0.6,0
	C36.3,16.9,36.4,16.6,36.4,16.2L36.4,16.2z"/>
<path class="st0" d="M46.2,16.2c2,0,3.9,0,5.8,0c0.2,0.2,0.2,0.5,0.3,0.8c0.2-0.3,0.3-0.5,0.5-0.8c4,0,8,0,12,0c1.6,0,3.2,0,4.8,0
	c-0.2,0.3-0.4,0.6-0.6,0.9c-0.2,0-0.3,0-0.5,0H46.6c-0.2,0-0.3,0-0.5,0C46.1,16.8,46.1,16.5,46.2,16.2L46.2,16.2z"/>
<path class="st0" d="M108.6,17.8L108.6,17.8c0.3-0.2,0.6-0.4,0.8-0.7c0.2-0.2,0.5-0.3,0.7-0.2c0.1,0,0.1,0.1,0.1,0.2
	c0,0.1,0,0.3-0.1,0.4c-0.2,0.2-0.4,0.4-0.6,0.6c-0.2,0.1-0.3,0.2-0.5,0.3c-0.4,0.2-0.9,0.4-1.4,0.3c-0.2,0-0.3-0.2-0.4-0.3
	c-0.2-0.3-0.3-0.6-0.2-1c0-0.3,0.1-0.6,0.1-0.9c0-0.1,0-0.2,0.1-0.2c0.2-0.1,0.2-0.3,0.2-0.5s0-0.4,0.2-0.5c0.1-0.1,0.1-0.3,0.2-0.5
	c0-0.1,0.1-0.2,0.2-0.3c0.2-0.3,0.5-0.5,0.6-0.8c0-0.1,0.1-0.1,0.1-0.1c0.4-0.1,0.6-0.4,0.8-0.6c0.2-0.1,0.4-0.2,0.6-0.2
	c0.1,0,0.3,0,0.3,0.1c0,0.2,0,0.3-0.1,0.4c-0.2,0.1-0.4,0.3-0.6,0.4c-0.1,0-0.1,0-0.2,0.1c-0.4,0.6-1.1,1.1-1.2,1.9
	c-0.3,0.4-0.3,0.8-0.3,1.3c0,0.3-0.1,0.6,0,0.9c0.1,0.4,0.2,0.4,0.5,0.3C108.5,17.9,108.7,17.9,108.6,17.8L108.6,17.8L108.6,17.8z"
	/>
<path class="st0" d="M108.3,8.4c0,0.1,0,0.1,0,0.2c0.1,0.2,0.1,0.3-0.1,0.5c-0.2,0.1-0.3,0.1-0.5,0c-0.1,0-0.1-0.1-0.2-0.1
	c-0.2-0.3-0.4-0.5-0.5-0.7c-0.3-0.4,0-1.4,0.4-1.7c0.1-0.1,0.3-0.1,0.4-0.1c0.3,0,0.6,0,0.8,0.1c0.1,0,0.2,0,0.3,0.2
	c0.1,0.1,0.2,0.2,0.4,0.3c0.5,0.2,0.8,0.6,1.1,1c0.3,0.4,0.5,0.8,0.6,1.2c0,0.2,0,0.3-0.1,0.4c-0.2,0.1-0.3,0-0.4-0.2
	c-0.2-0.4-0.5-0.7-0.8-1.1c-0.2-0.3-0.6-0.5-0.9-0.7c-0.2-0.1-0.5-0.1-0.7,0c-0.1,0-0.2,0.1-0.2,0.2C108,8,108,8.3,108.3,8.4
	L108.3,8.4L108.3,8.4z"/>
<path class="st0" d="M107.3,12.4c0-0.5,0.1-1,0.1-1.5c0-0.3,0.3-0.4,0.3-0.7c0.3-0.3,0.4-0.7,0.8-1c0.3-0.2,0.6-0.5,1-0.6
	c0.2,0,0.3,0,0.4,0.1c0.1,0.1,0.1,0.3-0.1,0.4c-0.2,0.1-0.4,0.3-0.6,0.3c-0.5,0.1-0.7,0.5-0.8,0.8c-0.3,0.7-0.3,1.4-0.3,2.2
	c0,0.4,0,0.7-0.1,1.1c0,0.2-0.1,0.2-0.3,0.2c-0.1,0-0.2,0-0.3-0.2C107.4,13.1,107.2,12.7,107.3,12.4L107.3,12.4z"/>
<path class="st0" d="M111.3,17c-0.2-0.1-0.6,0-0.8-0.4c0,0-0.1-0.1-0.1-0.1c-0.6-0.1-1-0.5-1.4-0.7c-0.1,0-0.1-0.1-0.1-0.2
	c0-0.1,0-0.1,0-0.2c0-0.1,0-0.3,0.2-0.4c0.2-0.1,0.3,0.1,0.4,0.2c0.1,0.1,0.2,0.3,0.5,0.3c0.1,0,0.1,0.1,0.2,0.1
	c0.3,0.3,0.7,0.5,1.1,0.6c0.1,0,0.2,0.1,0.3,0.1c0.2,0.1,0.3,0.2,0.3,0.4C111.8,16.9,111.6,17,111.3,17L111.3,17z"/>
<path class="st0" d="M108.7,17.1c-0.5,0-0.5,0-0.5-0.5c0-0.4,0.1-0.4,0.4-0.4c0.2,0,0.5,0,0.6,0.2c0.2,0.4,0,0.6-0.4,0.7
	C108.8,17.1,108.8,17.1,108.7,17.1z"/>
<path class="st1" d="M111.7,11.5c-0.1-0.1-0.1-0.2-0.1-0.3c0.1-0.1,0.1-0.1,0.2,0C111.9,11.3,111.9,11.4,111.7,11.5L111.7,11.5z"/>
<path class="st0" d="M17.5,9.7h2c0.1,0.1,0,0.2-0.1,0.2c-0.1,0.2-0.1,0.5-0.3,0.6c-0.2,0.1-0.5,0-0.7,0c-0.3,0-0.7,0-1,0
	C17.3,10.3,17.4,10.1,17.5,9.7z"/>
<path class="st0" d="M19.5,16.1c0.1,0,0.1-0.1,0.1-0.2c0.1-0.1,0.1-0.2,0-0.4c0-0.2,0.2-0.3,0.2-0.4c0,0,0-0.1,0-0.1
	c0.2-0.2,0.2-0.5,0.4-0.7c0.3-0.3,0.4-0.7,0.7-1c0.1,0,0.1,0,0.2-0.1c0.1,0,0.1-0.1,0.2-0.1l0,0c0,0,0.1-0.1,0.1-0.2l0,0
	c0.3-0.3,0.8-0.4,1.2-0.6c0.3-0.2,0.4-0.1,0.4,0.3c0,0.2,0,0.4-0.3,0.4c-0.1,0-0.3,0.2-0.4,0.2c-0.3,0.2-0.6,0.5-0.9,0.8
	c-0.4,0.5-0.7,1-0.9,1.5c-0.2,0.5-0.2,1-0.3,1.5c0,0.2-0.1,0.4,0,0.6c0,0.1,0,0.2,0.1,0.3c0.1,0.1,0.1,0.1,0.2,0.1
	c0.2-0.1,0.5-0.2,0.6-0.4c0-0.1,0.1-0.1,0.2-0.2c0.2-0.1,0.3-0.2,0.4-0.4c0.1-0.2,0.6-0.3,0.7-0.1c0.1,0.1,0.1,0.3,0,0.4
	c-0.2,0.2-0.3,0.4-0.6,0.6c-0.2,0.1-0.4,0.3-0.6,0.4c-0.4,0.2-0.9,0.4-1.3,0.2c-0.2,0-0.3-0.2-0.4-0.3c-0.2-0.3-0.3-0.6-0.2-0.9
	c0-0.3,0.1-0.7,0.1-1C19.3,16.3,19.4,16.2,19.5,16.1L19.5,16.1z"/>
<path class="st0" d="M23.8,12.1c0,0.4,0.1,0.9,0,1.5c-0.1,0.6-0.2,1.2-0.4,1.8c-0.1,0.2-0.2,0.3-0.4,0.2c-0.3-0.1-0.3-0.2-0.3-0.4
	c0.1-0.4,0.1-0.7,0.4-1c0-0.1,0.1-0.1,0.1-0.2c0-0.3,0.1-0.7,0.1-1c0.1-0.4-0.1-0.8-0.2-1.3c0-0.1,0-0.3-0.1-0.4
	c0-0.2,0-0.3,0.2-0.3c0.3-0.1,0.5,0.1,0.6,0.4C23.9,11.5,23.9,11.8,23.8,12.1z"/>
<path class="st0" d="M21.3,10.1c0.1-0.1,0.2-0.1,0.2-0.2c0.1-0.2,0.3-0.2,0.6-0.2c0.1,0.1,0.2,0.1,0.3,0.1c0,0,0.1,0,0.2,0
	c0.3,0,0.6,0.2,1,0.1c0.1,0,0.1,0,0.1,0c0.1,0,0.2-0.1,0.3-0.1c0.3,0,0.4,0.1,0.5,0.4c0,0.1,0,0.2-0.1,0.2c-0.4,0.2-0.8,0.4-1.3,0.3
	c-0.5-0.2-1-0.1-1.5-0.3l0,0c0,0,0-0.1-0.1-0.1l0,0C21.3,10.2,21.3,10.2,21.3,10.1L21.3,10.1z"/>
<path class="st0" d="M21.6,10.7h-1c-0.1-0.2,0.1-0.3,0.1-0.4c0.1-0.1,0.3-0.2,0.5-0.2l0,0c0,0.1,0,0.1,0.1,0.1l0,0
	c0,0.1,0,0.2,0.2,0.2l0,0c0,0.1,0,0.1,0.1,0.1l0,0C21.3,10.5,21.5,10.6,21.6,10.7L21.6,10.7z"/>
<path class="st1" d="M22.1,10.9C22.1,10.9,22,10.9,22.1,10.9C22,10.9,22.1,10.9,22.1,10.9z"/>
<path class="st0" d="M21.8,9.2c-0.2,0.1-0.4,0.2-0.7,0.4c-0.1,0-0.1,0-0.1,0c-0.1,0-0.2,0.1-0.2,0.2c-0.1,0-0.2,0.2-0.2,0.3
	c-0.3,0.4-0.3,0.8-0.3,1.2c-0.1,0-0.1,0.1,0,0.2c0,0.1,0,0.2,0,0.2c0,0,0,0.1,0,0.1c-0.1,0.5,0.1,0.9,0,1.4c0,0,0,0.1,0,0.1
	c0.2,0.2,0,0.3-0.2,0.4c0,0-0.1,0-0.1,0.1c-0.1,0.2-0.2,0.2-0.3,0c-0.1-0.1-0.1-0.2-0.1-0.3c0-0.1,0-0.2-0.1-0.3
	c-0.1-0.7,0-1.4,0-2.1c0-0.4,0.1-0.7,0.3-1.1c0.2-0.4,0.5-0.6,0.8-0.9c0.5-0.1,0.8-0.5,1.2-0.7C21.9,8.7,22,9,21.8,9.2L21.8,9.2z"/>
<path class="st3" d="M21.8,9.2c0.2-0.3,0.1-0.5-0.1-0.7C21.3,8.7,21,9,20.5,9.1c0-0.1,0-0.2,0-0.3c0-0.1,0-0.1-0.1-0.2
	c-0.1-0.2-0.2-0.4-0.3-0.6c-0.1-0.4,0-0.5,0.4-0.5c0.4,0,0.6,0.2,0.9,0.3c0.5,0.3,0.7,0.8,1.1,1.2c0.1,0.1,0.1,0.3,0.2,0.4
	c-0.1,0-0.2,0-0.4,0c0-0.2-0.1-0.3-0.1-0.4c-0.1,0-0.1,0.1-0.1,0.2c0,0.1-0.1,0.1-0.1,0.1C21.9,9.3,21.9,9.2,21.8,9.2L21.8,9.2z
	 M20.7,7.8c-0.2,0-0.3,0-0.4,0.2c-0.1,0.2,0,0.4,0.1,0.5c0.1,0.1,0.2,0.3,0.4,0.2c0.2-0.1,0.3-0.1,0.5-0.2c0.1,0,0.2-0.2,0.1-0.2
	C21.2,8,21.1,7.7,20.7,7.8L20.7,7.8z"/>
<path class="st3" d="M20.5,10.1c0.1-0.1,0.1-0.2,0.2-0.3c0.1,0.2,0.3,0,0.3,0.2c-0.2,0-0.3,0.1-0.5,0.2
	C20.6,10.2,20.6,10.2,20.5,10.1L20.5,10.1z"/>
<path class="st3" d="M20.4,13.3c0.1,0,0.1,0,0.2,0c0.1,0,0.1,0.1,0,0.1C20.5,13.4,20.4,13.4,20.4,13.3z"/>
<path class="st3" d="M19.6,15.6c0,0.1,0,0.2,0,0.4C19.5,15.8,19.5,15.7,19.6,15.6z"/>
<path class="st3" d="M19.5,13.3c0,0.1,0.1,0.2,0.1,0.3C19.4,13.5,19.4,13.4,19.5,13.3z"/>
<path class="st3" d="M21.1,13.3c0,0.1-0.1,0.1-0.2,0.1C20.9,13.3,21,13.3,21.1,13.3z"/>
<path class="st3" d="M20.2,11.5c0-0.1,0-0.1,0-0.2C20.3,11.4,20.3,11.4,20.2,11.5z"/>
<path class="st3" d="M20.2,11.8C20.2,11.8,20.2,11.7,20.2,11.8C20.2,11.7,20.2,11.8,20.2,11.8C20.2,11.8,20.2,11.8,20.2,11.8
	L20.2,11.8z"/>
<path class="st3" d="M20,13.8C20,13.8,20,13.7,20,13.8C20,13.7,20,13.8,20,13.8z"/>
<path class="st3" d="M20.2,9.1C20.2,9,20.2,9,20.2,9.1C20.3,9.1,20.2,9.1,20.2,9.1z"/>
<path class="st3" d="M19.8,15c0,0,0,0.1,0,0.1C19.8,15.1,19.8,15,19.8,15z"/>
<path class="st4" d="M21.3,13.1L21.3,13.1L21.3,13.1z"/>
<path class="st4" d="M51.8,15.9c-0.4,0-0.8,0-1.2,0c0.2-0.1,0.5-0.2,0.7-0.2C51.5,15.7,51.7,15.8,51.8,15.9L51.8,15.9z"/>
<path class="st3" d="M20.4,6.5c0.1,0,0.3-0.1,0.4,0C20.7,6.5,20.5,6.5,20.4,6.5z"/>
<path class="st3" d="M19.6,6.4c0.1-0.1,0.3-0.1,0.4,0C19.9,6.5,19.8,6.5,19.6,6.4z"/>
<path class="st3" d="M23.4,9.9c-0.3,0.1-0.6,0-1-0.1C22.8,9.6,23.1,9.7,23.4,9.9z"/>
<path class="st3" d="M22.3,9.8c-0.1,0-0.2,0-0.3-0.1C22.2,9.7,22.3,9.7,22.3,9.8z"/>
<path class="st3" d="M21.4,10.3c-0.2,0-0.2,0-0.2-0.2c0,0,0,0,0.1,0C21.3,10.2,21.3,10.2,21.4,10.3z"/>
<path class="st3" d="M21,9.6c0,0,0.1-0.1,0.1,0C21.1,9.6,21,9.6,21,9.6z"/>
<path class="st3" d="M21.2,10.1C21.2,10.1,21.1,10.1,21.2,10.1C21.2,10,21.2,10.1,21.2,10.1z"/>
<path class="st3" d="M21.4,10.4C21.3,10.4,21.3,10.4,21.4,10.4C21.4,10.3,21.4,10.3,21.4,10.4z"/>
</svg>
