<?xml version="1.0" encoding="UTF-8"?>
<svg id="logo_Immagine" data-name="logo Immagine" xmlns="http://www.w3.org/2000/svg" viewBox="0 0 1202.4 148.1">
  <path d="m1202.4,38v4.8c-.7,0-1.3,0-2,0h-640.7c-.7,0-1.5,0-2.2,0-2.6.3-5.2-.1-7.8-.2-.7,0-1.4-.3-2.1-.6-1.1-.6-2.2-1.2-3.3-1.9-.2-1.8,1.6-1.4,2.4-2.1.8-.6,1.5-.3,2.3.2,3.1,1.8,6.3,2.2,9.5,0,.9,0,1.9,0,2.8,0h638.3c.9,0,1.9,0,2.8,0Z" style="fill: #ecdd1e; stroke-width: 0px;"/>
  <path d="m544.3,40c1.1.6,2.2,1.2,3.3,1.9.7.4,1.4.6,2.1.6,2.6,0,5.2.5,7.8.2.7,0,1.5,0,2.2,0h640.7c.7,0,1.3,0,2,0v1.2c-.8.2-1.6.1-2.4.1-75.9,0-151.8,0-227.6,0s-1.6,0-2.4,0c-3.8,0-7.7,0-11.5-.1-.2,0-.4,0-.6,0-.7,0-1.5,0-2.2,0h-393.8c-.7,0-1.5,0-2.2,0-.7-.1-1.3,0-2,.2-.6,0-1.1-.2-1.7-.2-.1-.3-.3-.3-.4,0-.3,0-.6.2-.9.2-.7-.2-1.3-.2-2-.1-3.5.2-6.7-.5-9.1-3.2.1-.4.4-.7.8-.8Z" style="fill: #12110b; stroke-width: 0px;"/>
  <path d="m1202.4,38c-.9,0-1.9,0-2.8,0h-638.3c-.9,0-1.9,0-2.8,0-.6-.3-.6-.8-.6-1.3.9,0,1.7,0,2.6,0,132.5,0,265.1,0,397.6,0,.8,0,1.7.2,2.5-.3.3.3.7.3,1.1.3,3.2,0,6.5,0,9.7,0,76.1,0,152.3,0,228.5,0,.8,0,1.6-.1,2.4.1v1.2Z" style="fill: #12110b; stroke-width: 0px;"/>
  <path d="m0,42.8v-4.8c.8,0,1.6,0,2.4,0,26.5,0,53,0,79.6,0,.2,1.5.2,3.1,0,4.6-26.9,0-53.7,0-80.6,0-.5,0-.9,0-1.4,0Z" style="fill: #ecdd1e; stroke-width: 0px;"/>
  <path d="m81.9,38.1c-26.5,0-53,0-79.5,0-.8,0-1.6,0-2.4,0v-1.2c.7,0,1.5-.1,2.2-.1,14.9,0,29.7,0,44.6,0,.8,0,1.6,0,2.4,0,3.3.2,6.7.1,10,0,7.5,0,14.9,0,22.4,0,.4.4.4.9.4,1.4Z" style="fill: #12110b; stroke-width: 0px;"/>
  <path d="m0,42.8c.5,0,.9,0,1.4,0,26.9,0,53.7,0,80.6,0,0,.5,0,.9,0,1.4-8.5,0-17,0-25.5,0-3.9-.2-7.7-.2-11.6,0-14.2,0-28.5,0-42.7,0-.7,0-1.5,0-2.2-.1,0-.4,0-.8,0-1.2Z" style="fill: #12110b; stroke-width: 0px;"/>
  <path d="m463.7,69.2c2.8-3,5.5-5.9,8.8-8.4,4.1-3.1,8.8-4.9,13.9-5.7,3.9-.6,7.8-.9,11.7-.8,1.7,0,1.8,0,2.2-1.8,1.3-5.6,2.8-11.2,4.6-16.7,3.7-11.1,10.1-20.3,19.1-27.7,4.7-3.8,9.9-6.5,15.9-7.6,5.8-1.1,11.6-.7,17.2,1,.2.4.1.6,0,.8-2.5,3.4-5,6.7-7.4,10.1-.6.9-1.2,1-2.1.4-2.6-1.5-5.3-2.8-8.3-3.4-6.9-1.3-12.4,1-16.5,6.7-2.5,3.5-3.9,7.6-5.1,11.7-2.4,8.4-4,16.9-5.3,25.5-.7,4.8-1.5,9.7-2.2,14.5,0,.3,0,.7,0,1-4.2.2-8.5.2-12.7,0,.4-1.4-.2-2.1-1.5-2.7-3.2-1.6-6.5-2.8-10-3.4-6.2-1-11.4.8-15.1,6.2-.5.3-.9.7-1,1.3-1.2,1.4-2.3,2.9-2.7,4.7-.5.3-.8.8-.8,1.4-.5,1.2-1.1,2.4-1.6,3.6-2.3,6.4-4.4,12.8-5.9,19.5-1.9,8.8-3.3,17.6-2.6,26.6.2,2,.5,4,1.3,5.8,1.2,2.9,4.1,4.1,6.6,2.5,1.1-.7,2.2-1.4,3.2-2.3,3.3-3.1,6-6.6,8.5-10.3,6.3-9.1,11.4-18.9,16-28.9,2.4-5.3,3.9-10.7,4.1-16.5,4.3,0,8.6-.2,12.9,0-1.7,11.5-3.3,23-5,34.4-.9,5.8-1.8,11.7-2.6,17.5-.3,2.3-.8,4.6-.2,6.9.7,2.5,2.2,3.5,4.8,2.7,2.4-.7,4.2-2.3,5.9-4,3-2.8,5.5-6,7.9-9.3,1.1-1.4,2.1-2.9,3.4-4.7,0,.7,0,1.1,0,1.4-.2,1.6-.5,3.1-.8,4.7-.1.9-.2,1.9-.8,2.6-4.1,5.6-8.4,11-14.1,15.1-2.3,1.6-4.8,2.9-7.6,3.4-1.7.4-3.5.4-5.1,0-3.3-.8-5.1-3-5.9-6.1-.8-2.9-.9-5.8-.6-8.9.4-5,1.2-9.9,1.9-14.8.7-5.3,1.6-10.6,2.4-15.9,0-.3.1-.5.1-.8,0,0-.1-.2-.2-.3-.2-.2-.4,0-.5.1-.2.3-.3.7-.5,1.1-2,5.4-4,10.7-6.6,15.8-4.4,8.9-9.4,17.3-16.6,24.2-2.7,2.6-5.7,4.6-9.4,5.5-3.9.9-7.6.2-10.6-2.4-2.3-2-3.4-4.7-4.2-7.6-1.3-4.9-1.5-9.8-1.2-14.8.5-12.1,3.9-23.4,9-34.2,1.5-3.3,3.3-6.5,5.2-9.6.4-.7,1-1.3,1-2.1.7-.2.9-.7,1.1-1.3,1.1-1.5,2.3-3.1,3.4-4.6.5-.3.9-.8,1.1-1.4Z" style="fill: #851b12; stroke-width: 0px;"/>
  <path d="m667.8,100.4c.9-.7,1-1.5,1.3-2.1,3-8.1,6.6-16,11-23.4,3.3-5.6,7-10.9,11.7-15.4,3-2.9,6.3-5.3,10.5-6.1,4.8-.8,9,.9,10.9,5.8.7,1.9,1.1,3.8,1.2,5.8.3,5.5-.2,11-1,16.4-.9,5.8-1.8,11.5-2.6,17.3-.9,5.8-1.8,11.5-2.6,17.3-.8,5.8-2,11.6-2.1,17.6,0,.7,0,1.4.3,2.2.7,2.2,2.3,3.1,4.5,2.4,2-.6,3.7-1.9,5.2-3.2,4.2-3.8,7.6-8.3,10.9-13,.4-.5.6-1.2,1.5-1.7-.8,3.7-.5,7.3-3,10.4-3.6,4.4-7.1,8.8-11.6,12.3-3.1,2.4-6.5,4.4-10.6,4.6-2.9.2-5.5-.4-7.5-2.8-1.2-1.4-1.7-3-2.1-4.7-.6-2.8-.6-5.7-.3-8.6,1.4-12.1,3.5-24.1,5.3-36.2,1-6.4,1.9-12.8,2.8-19.3.3-2,.2-4,0-6,0-.7-.2-1.3-.4-1.9-.7-2.2-2.3-3-4.5-2.4-3.2.9-5.4,3.1-7.5,5.5-4.2,4.7-7.3,10.1-10.3,15.6-4.8,8.8-8.9,18-12.9,27.2-.9,2.2-1.1,4.5-1.5,6.8-1.3,7.7-2.5,15.4-3.6,23.2-.2,1.1-.4,1.5-1.7,1.6-3.3.3-6.6.6-9.9.7-.7,0-1.5.8-2,0-.4-.6.1-1.3.2-1.9,1.4-7.9,2.9-15.8,4.3-23.7,1-5.6,1.7-11.3,2.5-16.9,1-6.8,2.1-13.6,3.1-20.4.7-5.1,1.8-10.2,1.8-15.4,0-.7,0-1.5,0-2.2-.3-2.6-2.2-3.8-4.7-3.1-2.6.7-4.5,2.5-6.4,4.3-3.7,3.7-6.8,7.8-9.8,12-.3.4-.5.7-.8,1.1,0,0-.1,0-.5,0,.4-2.5.8-4.9,1.2-7.4,0-.2.2-.5.4-.7,3.8-5.2,7.7-10.2,12.8-14.1,2.9-2.2,5.9-4,9.6-4.5,5.7-.8,9.4,1.4,10.6,7,.9,3.8.6,7.6.2,11.4-.9,7.9-2.3,15.8-3.4,23.6-.2,1.5-.5,3.1-.6,5Z" style="fill: #851b12; stroke-width: 0px;"/>
  <path d="m738.5,146.7c-.3-1.4.2-2.7.4-4,1.3-7.6,2.8-15.1,4.1-22.7,1-5.8,1.8-11.7,2.7-17.5,1-6.6,2-13.2,3-19.9.7-4.7,1.4-9.4,1.8-14.2.1-1.3,0-2.7-.5-3.9-.7-1.7-2.1-2.4-3.9-1.9-1.6.4-3,1.2-4.2,2.2-2.7,2-4.8,4.5-7,7.1-1.9,2.3-3.7,4.7-5.4,7.2-.3.5-.6,1-1.4,1.5.4-2.6.8-5,1.1-7.3,0-.4.3-.7.5-1.1,4-5.6,8.3-10.9,13.9-15,3.2-2.3,6.8-4,10.9-3.9,3.8,0,6.4,1.8,7.8,5.4,1.1,2.8,1.2,5.7,1.1,8.6-.4,6.2-1.3,12.2-2.3,18.3-.7,4.5-1.4,9.1-2,13.6,0,.3-.2.6,0,.9.7.1.7-.5.8-.9,2-5.2,4.1-10.4,6.6-15.4,4.3-8.7,9.2-17.1,16.2-24.1,2.2-2.2,4.6-4.1,7.4-5.3,2.6-1.2,5.3-1.6,8.2-.9,2.5.6,4.3,2.1,5.5,4.3,1.7,3.1,2,6.4,2.1,9.8,0,4.3-.4,8.5-1.1,12.7-1,6.8-2,13.6-3.1,20.5-1.1,7.4-2.3,14.8-3.3,22.2-.5,3.5-1.2,7.1-1.1,10.7,0,4.4,2.6,5.9,6.5,3.8,2.4-1.3,4.4-3.2,6.3-5.2,3.3-3.6,6.2-7.5,8.9-11.5,0-.1.2-.4.5-.2,0,2.4-.7,4.9-1,7.3,0,.2-.2.5-.4.7-4,5.6-8.3,10.9-13.9,15.1-2.9,2.2-6.1,3.8-9.8,4-3,.2-5.8-.4-7.7-3-1.7-2.3-2.2-4.9-2.3-7.7-.2-4.5.4-9,1.1-13.5,1.1-7.4,2.3-14.8,3.4-22.2,1.1-7.4,2.3-14.8,3.4-22.2.4-2.9.9-5.8.5-8.7,0-.3,0-.7-.1-1-.7-3.4-2.7-4.4-5.8-3.1-2.5,1-4.4,2.8-6.1,4.7-4.1,4.7-7.3,10-10.3,15.4-5.1,9.1-9.3,18.7-13.4,28.3-.8,1.8-.9,3.7-1.2,5.6-1.3,7.9-2.5,15.9-3.7,23.8-.2,1.1-.5,1.7-1.8,1.8-3.1.1-6.2.5-9.3.7-.7,0-1.5.2-2.4.3Z" style="fill: #851b12; stroke-width: 0px;"/>
  <path d="m958.5,44c3.8,0,7.7,0,11.5.1-.8,2.8-1.2,5.7-1.6,8.6-1.4,9.3-2.7,18.6-4.1,27.9-1.7,11.7-3.5,23.3-5.2,35-.8,5.3-1.5,10.6-2.2,15.9-.2,1.3,0,2.6.3,4,.6,2.4,2.4,3.4,4.7,2.6,3.1-1.1,5.4-3.3,7.6-5.7,3.2-3.5,6.1-7.4,8.8-11.3.2-.3.3-.6.8-.6-.4,2.4-.7,4.7-1.1,7.1,0,.4-.2.8-.5,1.1-4.2,5.9-8.8,11.6-14.9,15.7-2,1.4-4.2,2.4-6.7,2.9-6.5,1.4-10.8-1.7-11.7-8.2-.5-3.7-.2-7.3.3-10.9,1.2-8.7,2.6-17.4,3.8-26.2,0-.4.6-1.2,0-1.4-.9-.3-.8.8-.9,1.2-3.2,8.9-7,17.6-11.9,25.6-3.1,5.1-6.5,9.9-10.9,14-2.5,2.4-5.2,4.4-8.5,5.5-4.7,1.6-9.9.4-12.8-3-1.4-1.6-2.3-3.5-3-5.6-1.1-3.4-1.5-7-1.6-10.6-.4-13.2,2.8-25.5,8-37.5,3.6-8.2,8.2-15.8,14.2-22.5,3.6-4,7.6-7.7,12.5-10.1,3.6-1.7,7.4-2.5,11.3-3,3.2-.4,6.5-.6,9.7-.5.9,0,1.4-.2,1.6-1.2.6-2.9,1.4-5.7,2.1-8.5.3-.1.2-.4.3-.6Zm-46.4,77.6c0,.9,0,1.9,0,2.8,0,1,.2,2,.3,3,.3,1.8.6,3.7,1.5,5.3,1.3,2.3,3.3,3.1,5.7,2,1.5-.7,2.8-1.7,4.1-2.8,3.5-3.4,6.4-7.3,9.1-11.3,6.7-10,12.2-20.6,16.7-31.7.5-1.2,1.1-2.4,1.3-3.8.8-5.3,1.6-10.6,2.4-15.9.3-2,.3-2-1.4-2.9-3.1-1.7-6.3-2.8-9.8-3.3-5.7-1-10.6.4-14.4,4.9-2.1,2.5-3.9,5.2-5.2,8.2-2.9,6.5-5,13.3-6.8,20.2-2.2,8.3-3.5,16.7-3.6,25.3Z" style="fill: #851b12; stroke-width: 0px;"/>
  <path d="m636.8,120.3c-.4,2.6-.8,5-1.2,7.4,0,.5-.3.9-.6,1.2-3.8,5.1-7.7,10.1-12.7,14-3.1,2.4-6.4,4.3-10.4,4.7-5.3.5-8.7-1.9-9.9-7.1-.7-3.1-.7-6.2-.4-9.3.7-7.1,1.9-14.2,3-21.3.4-2.4.8-4.8,1.1-7.3,0-.7.4-1.4,0-2.2-.8.3-.8,1-1,1.6-2.1,6.1-4.6,12.1-7.5,17.8-3.5,6.9-7.5,13.4-12.6,19.1-3,3.4-6.4,6.5-10.8,8-4.2,1.4-8.3,1.1-11.8-1.9-2.5-2-3.6-4.9-4.4-7.9-1.1-4.3-1.3-8.8-1.2-13.2,0-5.5.8-10.8,2-16.2,1.8-8.2,4.8-15.9,8.8-23.2,2.9-5.3,6-10.3,9.9-14.9,5-5.9,10.9-10.7,18.3-13.3,3.5-1.3,7.2-2,10.9-2,3.6,0,7.2,0,10.8.2,3,.1,6.1.5,9.1.7.3.6,0,1.1,0,1.6-2,11.4-4.3,22.8-5.9,34.3-1.5,11.2-3.3,22.3-5,33.4-.4,2.9-.9,5.8-.9,8.7,0,.9,0,1.7.3,2.6.7,2.2,2.3,3.1,4.5,2.4,2.2-.6,3.9-2,5.5-3.5,4.2-3.9,7.6-8.6,10.9-13.2.3-.4.4-.8,1.2-1.2Zm-42-57.6c-2-.1-4.9,1.2-7.6,3.4-2.7,2.3-4.6,5.2-6.2,8.2-2.6,4.8-4.2,10.1-5.8,15.3-3.5,11.7-5.9,23.5-5.3,35.8.1,2.7.5,5.3,1.9,7.7,1.3,2.1,3.3,2.7,5.5,1.7,1.4-.6,2.7-1.5,3.8-2.6,3.2-3.1,6-6.6,8.5-10.3,6.3-9.1,11.5-18.8,15.9-29,1.1-2.6,2.5-5.1,3-8,.9-5.5,1.7-11,2.6-16.5.1-.7,0-1.2-.7-1.6-4.4-2.4-9-4-15.5-4.2Z" style="fill: #851b12; stroke-width: 0px;"/>
  <path d="m1054.3,55.4c-1.5,8.1-3,16.1-4.4,24.1-.9,5.1-1.6,10.2-2.3,15.3-1,6.8-2.1,13.5-3,20.2-.7,4.8-1.4,9.7-2,14.6-.2,1.6-.2,3.3-.1,5,.1,3.1,2.3,4.5,5.2,3.4,2.7-1,4.7-2.9,6.7-5,3.5-3.6,6.5-7.7,9.3-11.9.2-.3.4-.5.9-1,0,2.9-.7,5.4-1,7.8,0,.2-.2.4-.3.5-4.1,5.8-8.6,11.2-14.3,15.4-3.2,2.3-6.7,3.9-10.7,3.8-3.8-.1-6.4-2-7.7-5.5-.6-1.6-.9-3.2-.9-4.9-.2-4.7.4-9.4,1.1-14.1,1.1-7.3,2.2-14.5,3.3-21.8,0-.2,0-.5,0-.8-.9,0-.9.7-1.1,1.2-1.7,4.8-3.5,9.5-5.6,14.1-3.8,8.1-8.2,15.8-14.1,22.6-2.5,2.8-5.1,5.4-8.4,7.3-3.1,1.7-6.3,2.5-9.8,1.8-4.7-.9-7.3-4.1-8.8-8.4-1.1-3-1.6-6.1-1.7-9.2-.1-5.4,0-10.8.7-16.1,1.2-7.8,3.4-15.3,6.6-22.5,3.3-7.3,7.2-14.2,12.2-20.5,4.3-5.4,9.4-10,15.7-13,4.7-2.3,9.7-3.6,15-3.5,3.5,0,6.9,0,10.4.2,3.1.2,6.2.2,9.4.9Zm-56.7,67.5c0,1.4.1,4.1.7,6.8.3,1.4.7,2.7,1.6,3.8,1.2,1.6,2.9,2.1,4.8,1.4,1.4-.5,2.6-1.4,3.7-2.3,2.9-2.4,5.1-5.4,7.3-8.4,8-11,14.2-22.9,19.4-35.5.5-1.1,1-2.2,1.2-3.4.9-5.6,1.7-11.1,2.6-16.7.2-1.1-.2-1.7-1.1-2.2-3.4-1.8-6.9-3.1-10.7-3.6-4.6-.6-8.8.2-12.4,3.5-3.1,2.9-5.3,6.5-7,10.3-2.7,6.2-4.7,12.6-6.3,19.1-2.2,8.4-3.6,17-3.7,27.1Z" style="fill: #851b12; stroke-width: 0px;"/>
  <path d="m136.4,68.9c5.9-7.1,13.2-11.9,22.2-13.9,2-.5,4.1-.7,6.1-.7,3.7,0,7.3,0,11,.2,2.7,0,5.4.5,8.1.6,1.1,0,1.1.6.9,1.5-.7,3.7-1.4,7.4-2.1,11.1,0,.4-.1.9-.2,1.4-.4.4-.5.9-.4,1.4-.3,1.5-.5,3-.8,4.5,0,.5,0,.9-.1,1.4-.9,2.7-1.1,5.4-1.5,8.2-1.2,7.9-2.4,15.9-3.6,23.8-1.1,7.6-2.2,15.2-3.2,22.8-.2,1.5-.2,3.1.2,4.6.7,2.2,2.3,3.1,4.5,2.4,2.1-.6,3.9-2,5.5-3.5,4.2-3.9,7.6-8.5,10.9-13.2.3-.4.5-.9,1.3-1.4-.4,2.8-.9,5.4-1.3,7.9,0,.2-.2.5-.4.7-4.1,5.7-8.5,11.1-14.2,15.2-2.7,1.9-5.6,3.3-8.9,3.6-5.6.5-9.2-2.3-10.1-7.8-.7-4.1-.4-8.1.2-12.1.9-6.9,2-13.8,3.1-20.7.2-1.4.5-2.7.6-4.1,0-.7.4-1.5,0-2.4-.8.4-.8,1.2-1,1.7-2.4,6.6-5,13.2-8.3,19.4-3.9,7.4-8.4,14.4-14.5,20.2-2.4,2.3-5.1,4.3-8.4,5.3-4.2,1.3-8.2.9-11.6-2.1-1.5-1.2-2.4-2.8-3.2-4.5-1.1-2.5-1.7-5.2-2-7.9-.5-4.4-.4-8.7-.1-13.1.8-11.7,4.3-22.6,9.6-33.1,1.4-2.8,3-5.6,4.8-8.3.3-.5.7-1,.7-1.6,2.8,0,5.6-.1,8.4,0-.3.7-.6,1.3-.9,2-2.4,5.8-4.2,11.9-5.8,18-2.4,9.4-3.8,18.9-3.4,28.6.1,2.6.4,5.2,1.6,7.5,1.3,2.5,3.5,3.3,6,2.1,1.1-.6,2.2-1.3,3.1-2.1,3.2-2.8,5.8-6.2,8.2-9.7,6.9-9.8,12.4-20.4,17.3-31.4,2.1-4.8,3.1-9.8,3.4-15,.4-.4.3-.9.3-1.4.5-1.5.6-3.1.8-4.6,0-.4,0-.9.1-1.4.8-2.2.2-2-.9-2.6-3.3-1.8-6.8-3.1-10.5-3.6-3.4-.5-6.8-.4-9.8,1.5-1.9,1.2-3.9,2.4-4.9,4.7-1.1,0-2.2,0-3.3,0-1.1,0-2.3.3-3.4-.3Z" style="fill: #851b12; stroke-width: 0px;"/>
  <path d="m888.5,83.6c0,12.8-2.9,24.9-8.8,36.2-3.6,6.7-7.8,13-13.4,18.2-5,4.7-10.6,8.1-17.5,9.3-8.5,1.4-13.8-1.4-18.3-8.2-3.7-5.8-5.2-12.3-5.4-19.1-.3-8.9.9-17.6,3.6-26.1,2.1-6.4,5-12.5,8.5-18.2,3-4.8,6.4-9.3,10.5-13.2,4.4-4.2,9.4-7.4,15.4-8.7,3.7-.8,7.4-.9,11,.5,4.1,1.5,7,4.6,9.2,8.2,2.6,4.1,4,8.7,4.6,13.5.4,2.6.5,5.2.4,7.8Zm-49.2,29.6c0,4.6.3,9.2,1.1,13.7.7,3.6,1.7,7,4,9.9,2.2,2.7,5.1,3.9,8.6,3.3,3.2-.5,5.6-2.3,7.7-4.6,3-3.4,5-7.3,6.8-11.4,4.6-10.7,6.3-22,6.7-33.6,0-2.7,0-5.3-.2-8-.2-3.4-.5-6.7-1.3-10.1-.7-3.1-1.7-6-3.8-8.5-2.3-2.8-5.4-4-9.1-3.2-3,.7-5.2,2.5-7.1,4.8-3.5,4.1-5.7,8.9-7.6,13.9-4.2,10.8-5.8,22.2-5.9,33.7Z" style="fill: #851b12; stroke-width: 0px;"/>
  <path d="m44.9,44.1c3.9-.1,7.7-.2,11.6,0-1.5,6.1-2.2,12.4-3.2,18.6-1.9,12.2-3.5,24.4-5.7,36.5-.9,4.8-2.1,9.5-3.8,14-2.8,7.8-7.7,14.2-14.1,19.4-.5.4-1.1.7-1.5,1.6h1.7c5.4,0,10.8-.1,16.2.2,5.2.3,10.4.2,15.5.3,9.5.2,18.2-2.5,25.9-8.3.3-.2.6-.6,1.3-.5-.1,1.2-.3,2.5-.4,3.8-.2,1.6-.9,2.9-2,4.2-2.8,3.2-5.7,6.3-8.8,9.2-3.2,3-7,4.4-11.3,4.8-3.2.3-6.4.1-9.5-.2-1.5-.2-3.1,0-4.6-.1-3.9-.2-7.8-.3-11.8-.4-5-.2-9.9-.5-14.9-.8-3.8-.2-7.6-.3-11.4-.4-3.2-.1-6.3-.3-9.6-.5.7-1.7,1.9-3,2.9-4.4,1.6-2.4,3.4-4.6,5.1-6.9.6-.8,1.2-1.1,2.1-1.1,1.7,0,3.3,0,5-.2,3.9-.6,6.7-2.7,8.5-6.2,2-3.9,3.1-8.2,4-12.5,1.8-8.5,2.8-17.1,4.1-25.7,1.6-10.2,2.9-20.5,4.7-30.7.8-4,1.9-8,3.5-11.8.3-.6.6-1.2.6-1.9Z" style="fill: #851b12; stroke-width: 0px;"/>
  <path d="m1156.4,110.5c0,1.8,0,3.7,0,5.5.2,4.5.6,8.9,2.1,13.1.8,2.2,1.9,4.3,3.7,5.9,2.5,2.3,5.5,3.1,8.8,2.8,6.5-.6,12-3.8,17.2-7.4,3.2-2.3,6.2-4.7,9.1-7.4.1-.1.3-.2.7-.4-.3,2.3-.5,4.4-.8,6.5,0,.3-.4.6-.6.8-5.3,4.7-10.7,9.2-16.8,12.7-4.3,2.4-8.8,4.4-13.8,5-8.5,1-14.4-2.5-18.7-10.1-2.7-4.8-3.8-10-4.2-15.4-.8-12.4,1.5-24.2,6.5-35.5,4.1-9.2,9.4-17.6,16.7-24.6,3.9-3.8,8.4-6.7,13.8-8,2.3-.5,4.6-.8,6.9-.5,3.5.4,6,2.4,7.8,5.3,2.1,3.1,2.9,6.7,3.2,10.4.3,5.8-.5,11.5-2.9,16.9-2.7,6.1-6.8,11.1-12,15.2-6.8,5.4-14.5,8.5-23.2,9-1.1,0-2.2.2-3.5.4Zm.3-5.7c1.5.2,2.8-.1,4.1-.4,6.2-1.2,11.8-3.6,16.5-7.9,5.2-4.9,8.1-11,8.7-18.1.3-3.8.4-7.6-.7-11.3-1.4-4.7-5.2-6.4-9.7-4.3-2.8,1.4-5,3.5-6.8,6.1-4.3,6-7.2,12.5-9.2,19.6-1.5,5.3-2.5,10.7-2.9,16.4Z" style="fill: #851b12; stroke-width: 0px;"/>
  <path d="m348.7,69.1c4.1-5.5,8.9-10.4,15.2-13.5,3.6-1.8,7.4-2.6,11.3-2.4,3.2.2,5.6,1.7,7.6,4.2,2.7,3.4,3.8,7.4,4,11.6-4.1.2-8.3.1-12.4,0-.2-4.7-3-7.5-7.2-7.2-1.1,0-2.2.4-3.2,1-2.6,1.5-4.8,3.5-6.4,6.1-.5.3-.9.7-.9,1.3-1.2,1.4-2.2,2.9-2.7,4.7-.5.3-.8.8-.8,1.4-.4.6-.7,1.3-1,1.9-3.2,7.2-5.3,14.7-6.2,22.5-.1,1.2-.9,2.8-.2,3.6.9,1,2.5,0,3.8-.2,7.1-1.4,13.5-4.3,18.4-9.9,4.5-5.1,6.8-11.1,6.9-18,3.9,0,7.8-.2,11.7,0-.9,7.1-3.8,13.2-8.4,18.6-6.4,7.4-14.2,12.3-23.8,14.3-2.6.5-5.3.6-7.9.9-.7,0-1.1,0-1.1,1,0,6.5,0,13,2.7,19.2,1.9,4.6,5.4,7.2,10.4,7.4,3,0,5.9-.7,8.7-1.9,5.8-2.4,10.9-6.1,15.7-10.1,1.3-1.1,2.5-2.2,4-3.4,0,2.4-.5,4.5-.8,6.6,0,.3-.4.7-.7.9-6.9,6.3-14.1,12.1-22.9,15.6-3.8,1.5-7.7,2.4-11.9,2.1-5.1-.4-9-2.9-12.1-6.9-3.5-4.6-5.4-9.8-6-15.4-1.5-13.3.6-26.1,5.9-38.3,1.5-3.6,3.5-7,5.3-10.5.4-.4.7-.8.9-1.3,1.2-1.5,2.2-3,3.1-4.7.5-.3,1-.7,1.2-1.4Z" style="fill: #851b12; stroke-width: 0px;"/>
  <path d="m1064.9,80.6c.2-1.2.5-2.5.6-3.7.1-2,.9-3.7,2.1-5.3,3.6-4.8,7.4-9.4,12-13.3,2.8-2.3,5.8-4.2,9.4-4.9,5.3-1,8.8,1.4,10.2,5.7,1.1,3.4,1.4,7,1,10.6-.2,2-.2,4.1-.4,6.2-.7,6.3-1.8,12.5-2.7,18.7-.3,1.9-.7,3.7-.7,6,.6-.8.8-1.4,1-2,2.8-7.4,5.9-14.7,9.9-21.5,3.7-6.3,7.7-12.3,13-17.4,2.5-2.5,5.3-4.7,8.7-5.8,3.9-1.3,7.6-.9,11.1,1.2.8.5.9.9.4,1.8-2.4,4.3-4.8,8.7-7.2,13.1-.6,1.2-.7,1.2-1.8.3-4.1-3.2-6.8-3.6-11.9.7-3.5,3-6.2,6.7-8.7,10.6-6.5,10.2-11.5,21.3-16.4,32.3-.8,1.8-.9,3.7-1.2,5.6-1.2,8.3-2.5,16.5-3.7,24.8-.1.8-.3,1.3-1.3,1.3-3.2.2-6.5.5-9.7.7-.8,0-1.6.2-2.3.3-.5-.6-.2-1.2-.1-1.8,1.4-7.7,2.9-15.4,4.2-23.1.9-5.5,1.7-11,2.5-16.5,1.3-8.7,2.7-17.4,3.9-26.2.4-2.9.7-5.9.8-8.9,0-1.7,0-3.5-.7-5.1-.8-2.2-2.3-2.9-4.6-2.2-2.1.7-3.8,2.1-5.4,3.6-4,3.8-7.1,8.3-10.2,12.7-.4.5-.6,1.2-1.2,1.6-.1,0-.2-.2-.3-.3Z" style="fill: #851b12; stroke-width: 0px;"/>
  <path d="m200,69.1c2.1-2.4,4-4.9,6.3-7.2,3.1-3.1,6.4-6.1,10.5-7.7,2.2-.9,4.6-1.3,7-.8,2.7.5,4.4,2.2,5.6,4.6,1.3,2.8,1.4,5.8,1.6,8.7,0,.7,0,1.5,0,2.2-.2.5-.2,1-.1,1.5-.3,1.5-.4,3.1-.4,4.6,0,.5,0,.9,0,1.4-.1.2-.3.5-.3.7-.8,6.4-1.9,12.8-2.8,19.3-.2,1.2-.6,2.5-.4,3.9.2-.1.4-.2.4-.3.2-.5.4-1,.6-1.5,2.1-5.6,4.4-11.1,7.1-16.4.9-1.9,2.2-3.7,2.9-5.7,2.3-.1,4.7-.2,7,0-4.9,6.8-9,14.1-12.6,21.7-2.6,5.3-5,10.7-7.4,16.1-.9,2.1-.9,4.4-1.3,6.6-1.2,7.7-2.4,15.4-3.5,23.2-.2,1.1-.5,1.6-1.7,1.6-3.2.1-6.5.5-9.7.7-.7,0-1.7.9-2.2,0-.3-.5.1-1.4.2-2.1,1.1-6.2,2.2-12.4,3.3-18.6,1-5.6,1.8-11.2,2.7-16.9.9-5.7,1.7-11.4,2.5-17.1.7-5,1.7-10.1,2.1-15.1,0-.5,0-.9.1-1.4.5-1.5.5-3.1.4-4.7,0-.4,0-.9,0-1.4,0-1.3-.1-2.7-.6-3.9-.9-2.2-2.4-3-4.6-2.2-3.2,1.2-5.7,3.3-7.6,6.1-1.7,0-3.5.1-5.2,0Z" style="fill: #851b12; stroke-width: 0px;"/>
  <path d="m300,76.5c-.8,5.3-1.6,10.6-2.4,15.9-1.3,9-2.7,17.9-4,26.9-.5,3.5-.8,7-1.2,10.5-.1,1.4.1,2.8.4,4.1.6,2.5,2.4,3.6,5,3.2,1.9-.3,3.5-1.1,5.1-2.1,3.9-2.5,7.1-5.7,10.2-9.1.6-.6,1.1-1.3,2.1-1.9-.4,2.6-.7,5-1.2,7.3-.3,1.4-1.5,2.3-2.4,3.4-3.5,4.1-7.3,7.9-12.1,10.6-2.9,1.6-6,2.5-9.3,2.5-4.6,0-7.6-2.2-9.3-6.5-1.4-3.7-1.6-7.7-1.4-11.6.2-3.5.5-7,1.1-10.5,1.2-7.5,2.3-15.1,3.4-22.6.9-5.8,1.8-11.7,2.6-17.5.1-.8.2-1.7.3-2.6,4.3-.2,8.6-.2,12.8,0Z" style="fill: #851b12; stroke-width: 0px;"/>
  <path d="m558,36.8c0,.5,0,1.1.6,1.3-3.1,2.2-6.3,1.8-9.5,0-.8-.5-1.5-.8-2.3-.2-.8.6-2.6.2-2.4,2.1-.4.2-.7.4-.8.8-.2,0-.5-.3-.7,0-.6.8-1,1.7-1,2.8,0,1.8.2,3.7,0,5.5-.3,1.9,0,3.8-.5,5.7,0,.3,0,.7.4.9,0,0,.1,0,.2,0,3.1-1.8,5.8-4.2,9.4-4.9,1-.2,1.5-1,1.9-1.9.7-1.7.1-3.3-.4-4.8.7,0,1.3,0,2,.1-.7,1.1-.2,2.2,0,3.3.3,2,1.2,3.9,1,6-.2,2,.1,4.2-.7,5.9-1,2-1.2,4.2-2.4,6.1-.2.3,0,.7.3.8.4.2.8.5,1.2.7,1.3.6,1.8.4,2.4-1,1.1-2.7,1.5-5.5,2.1-8.2.7-3.6,0-7.3.2-10.9.6-.4.6-1,.4-1.5-.2-.6-.5-.4-.8,0-.2-.4-.4-.7-.6-1.1.6-.2,1.3-.3,2-.2-.5.7.1,1.3.2,1.9.4,4.3,0,8.5-.2,12.7-1.1,2-.5,4.3-1.3,6.3-.4,1-1,2-1.2,3.1-.2,1,0,1.5,1,1.9,1.4.6,2.2,2.1,2.1,3.5,0,1.3-.8,2.1-2.1,2.2-.9,0-1.7,0-2.6,0-1.4-.2-2.5.3-3.2,1.5-.8,1.4-1.8,2.4-3,3.4-.3.3-.7.7-1.2.8-1.6.4-3,1.4-4.4,2.1-2.1,1-4.2.5-6.2.2-1.6-.2-3.3-3-3.3-4.8,0-.8,0-1.6-.1-2.4,0-.4,0-.9,0-1.3.4-1.2.3-2.5.5-3.7,0-.4,0-.8-.4-1v-1.2c1,0,1.8-.4,1.8-1.5,0-2,1-3.7,1.6-5.5.3-.8.2-1.4-.3-2-.4-.5-.8-1.1-1.1-1.6-.6-.9-1-1.9-1-3,0-2.9-.2-5.7-.1-8.6s.8-2.6.9-4c.1-1.7,1-3.1,2-4.4,1.3-1.7,1.2-2.2-.3-3.8-1.7-1.7-2.9-3.6-3.8-5.8-.2-.4-.5-.9-.2-1.3.8-1,.7-2.2.8-3.4,0-.9.4-1.6,1.3-2,.8-.4,1.3-1.3,2.3-1.6,2.5-.6,4.8-.2,7,1,1.2.6,2.4,1.1,3.6,1.9,2.4,1.6,4.5,3.5,5.9,6,1.4,2.3,2.7,4.7,3.7,7.2Zm-16.5-5.2c.5.2.9.5,1.3.9.3.3.7.3,1.1.2.7-.3,1.5-.6,2.2-1,.8-.4.9-.9.3-1.5-.5-.5-1.1-1-1.6-1.4-.9-.7-1.9-.6-2.8-.2-1,.3-.6,1.3-.7,2.1,0,.4,0,.8.3,1.1-1.6-.8-1.6-2.3-1.7-3.7,0-.5.3-.9.9-.9,1.3,0,2.6-.4,3.7.2,1.7,1,3.5,2,4.6,3.7,1.3,1.9,3,3.5,4,5.6.5,1,1.2,1.2,2.1.8.9-.4.9-1.1.7-2-.6-2.3-1.8-4.3-3.1-6.2-1.4-2.1-3.2-3.9-5.6-4.9-.8-.3-1.4-.8-1.9-1.5-.4-.5-.9-.7-1.5-.8-1.4-.1-2.8-.3-4.2-.4-.7,0-1.5-.1-2.1.3-2.2,1.3-3.6,6.2-2.1,8.4.8,1.2,1.9,2.4,2.6,3.7.2.3.5.5.8.7.9.6,1.7.6,2.5,0,.9-.7,1-1.1.4-2.3-.1-.2-.1-.5-.2-.8Zm1.7,46.8c.2-.6,1.2-.9.8-1.6-.4-.7-1.3-.2-2-.3,0,0-.1,0-.2,0-.5,0-.7.3-.6.8,0,.9.3,1.1,2,1.1.2.7-.4.7-.8.9-1.7.9-2.3.6-2.7-1.3-.3-1.5,0-3,.2-4.5.2-2.2.2-4.5,1.7-6.4.4-4.2,3.9-6.4,6-9.6.2-.2.6-.3.9-.4,1-.6,2-1.3,3-1.9.8-.5.8-1.2.7-1.9-.1-.9-.9-.6-1.4-.7-1.1-.3-2,0-3,.8-1.4,1-2.4,2.6-4.2,3.2-.3,0-.6.4-.7.7-.3,1.8-1.9,2.8-2.8,4.2-.4.6-.7,1.1-.9,1.7-.3.8-.5,1.7-1,2.3-.7.8-.8,1.6-.8,2.6,0,.9,0,1.9-1,2.4-.4.2-.3.7-.3,1.1-.2,1.5-.4,3-.6,4.5-.3,1.8.2,3.5,1.2,5,.4.6,1,1.3,1.8,1.5,2.5.5,4.8-.2,6.8-1.3.8-.5,1.6-1.2,2.5-1.6,1.3-.6,2-1.9,3.1-2.8.5-.4.6-1.2.6-1.8,0-.3-.1-.6-.5-.8-1.3-.7-2.9-.2-3.6,1-1,1.5-2.7,2.1-3.9,3.3,0,0-.1,0-.2,0Zm-6.8-27.2c-.2,2,.4,3.9.7,5.9.1.8.6.9,1.3.9.6,0,1.2,0,1.3-.8.4-1.8.7-3.5.6-5.3-.3-3.7-.2-7.5,1.4-10.9.8-1.8,1.8-3.6,4.1-4.2,1-.3,1.9-1,2.8-1.5.8-.5.8-1.2.4-1.9-.4-.8-1-1-1.9-.7-2,.5-3.3,2.1-4.9,3.2-1.8,1.2-2.3,3.3-3.8,4.8,0,1.4-1.4,2-1.5,3.4-.1,2.5-.3,4.9-.5,7.4Zm20.3,23.2c1.6,0,2.2-.4,2.4-1.4.2-.9-.2-1.7-1.3-2.2-.4-.2-.8-.4-1.3-.5-2.2-.3-4.2-1.1-5.7-2.8-.3-.3-.5-.7-1-.7-1.1,0-1.7-.6-2.3-1.3-.6-.7-1.2-1.4-2.2-1-.8.3-.8,1.3-1,2.1,0,.3,0,.7,0,1s.2.7.6.9c2.4,1.2,4.5,3,7.2,3.5.2,0,.5.2.6.4,1,1.8,2.8,1.4,4,1.9Zm-2.1-16.5c0-1.5-.3-1.8-1.3-1.5-.4.1-.9.3-1.3.6-1.4,1-2.8,1.9-4.3,2.6-.7.3-1.1,1-1.5,1.6-.3.5-.3,1,.3,1.4,1.3.8,2.6,1.6,4,2.3.9.5,1.6,0,1.7-.9,0-.9.5-1.6.9-2.4.6-1.3,1.5-2.5,1.6-3.6Zm-11,17.1c.3,0,.7,0,1,0,2,0,2.7-1.5,1.8-3.3-.7-1.4-1.8-1.3-3-1.2-1.8,0-1.9,0-2.1,1.8-.3,2.6-.3,2.7,2.3,2.7Zm8.2-38c-.2-.6-.6-1-1.2-1.2-.5-.2-1.1-.4-1.4.3-.3.7.3.9.8,1.1.5.2,1,.7,1.6,0,0,0,0-.1.1-.2Z" style="fill: #433e32; stroke-width: 0px;"/>
  <path d="m82,44.1c0-.5,0-.9,0-1.4.1-1.5.2-3.1,0-4.6,0-.5,0-1-.4-1.4.2-.8-.2-1.5-.4-2.1-2.1-6.8-7.5-8.8-13-7.6-4.9,1.1-7.5,5.1-9,9.7-3.3,0-6.7.2-10,0,4-6.3,8.8-11.6,15.6-14.9,3.9-1.9,8-2.8,12.3-2.5,3.4.3,6.4,1.9,9.4,3.5,2.2,1.2,3.1,2.6,2.4,5.2-.7,2.8-.9,5.7-1.3,8.6,0,0,0,.2,0,.2-.4.3-.3.8-.3,1.3,0,1.5-.7,3-.5,4.6-.5.4-.4.9-.4,1.4,0,1-.2,1.7-1.4,1.6-.9,0-1.8,0-2.8,0-.4-.5-.1-1.1-.3-1.6Z" style="fill: #851b12; stroke-width: 0px;"/>
  <path d="m118,36c.8.8,1.9.6,2.8.5,1.5,0,2.1.7,2.7,1.8.2.3.2.6,0,.9-.8,1-.9,2.4-2.2,3.1-1,.5-1.7,1.5-.9,3,.4,1,.4,2.2.3,3.3,0,3.3.2,6.7-.5,9.9-.6,2.6-.3,5.5-1.9,8-.4.6-1.1,1.8-.2,2.7-.1.3-.3.6-.4.9-.9,0-1.6-.7-2.4-.8-2-.2-3.7-1.3-4.9-2.8-1.1-1.3-2.5-1.7-3.8-2.4-.7-.4-1.3-.2-1.9.6-1,1.4-.6,2.7.8,3.7.4.3.9.6,1.2,1,2.3,2.5,5.1,4.2,8.4,5.1.4.1.9.3,1.2.7-.4.1-.8.1-.9.5-1.1-.3-1.8.2-2.2,1.1-.8,1.7-2,3.1-3.5,4-2.1,1.2-4.3,2.4-6.6,3.1-1.5.4-3.3.2-4.9-.2-1.3-.3-1.9-1.6-2.7-2.5-.4-.5-.6-1.2-.6-1.8,0-2.9,0-5.8.4-8.7.1-.9.4-1.5,1.1-2,.3.5.5,1.1,1,1.5-.3.4-.7.7-.8,1.3-.1,1.7-.3,3.3-.5,5-.2,1.7.3,3.3,1.1,4.7.4.7,1.1,1.4,2,1.6,2.4.5,4.6-.1,6.7-1.2,1-.6,1.9-1.3,3-2,1.2-.7,1.9-1.8,2.8-2.8.6-.6.8-1.5.2-2.2-.6-.8-3.2-.5-3.7.5-.4.9-1.1,1.5-2,1.8-.4.2-.8.4-1,.9-.6,1.4-2.1,1.5-3.1,2.2-.4.3-.8,0-1-.3-.4-.5-.5-1.1-.6-1.7-.2-1,0-2,.1-3,.2-2.5.5-5,1.4-7.5,1-3,2.5-5.4,4.6-7.7,1.3-1.5,2.8-2.8,4.4-3.8.7-.4,1.4-1.2,2-1.2,1.6,0,1.6-.7,1.6-1.8,0-1.6-.6-2.1-2.1-1.4-1.9,1-4.1,1.4-5.8,2.9-.6-.3-.5-.7,0-1.1,1.2-1.2,2.8-1.8,4.4-2.3,2.5-.7,3.5-2.5,3-4.9-.4-1.8-.5-1.9-2.3-1.9-.4,0-.8,0-1.2,0-.1-.3-.3-.3-.4,0-.4.2-.8.2-1.2,0,0-.7-.4-1.1-1-1.3,0-.6-1.1-.7-.6-1.5,2.4,1.2,5.2.7,7.7,1.5,2.3.7,4.4-.5,6.4-1.4.5-.2.6-.6.5-1.2-.2-1.3-.9-2-2.3-1.8-.5,0-1,.2-1.5.4,0-.9-.8-1.8,0-2.7Zm1.2,14.1c0-1.7,0-2.9-.4-4.2-.4-1.5-1.6-2.2-3-1.8-.7.2-1.1.7-.9,1.5.2.6.3,1.3.4,1.9.3,2.1,1.2,4.1.9,6.3-.2,1.7-.4,3.3-.5,4.9,0,.4,0,.8-.3,1.1-1.1,1.6-1.3,3.4-1.8,5.2-.2,1.1,0,1.6,1.3,2,1.1.4,1.5.2,2-.9,1.2-2.8,1.6-5.8,2.2-8.8.5-2.6.3-5.1.1-7.3Zm-4.1,7.5c0-1.2-.4-1.4-1.5-1.1-.4.1-.8.3-1.1.5-1.4,1.1-2.9,1.9-4.5,2.7-.7.4-1,1-1.4,1.6-.3.4-.2.8.2,1.1,1.4.9,2.8,1.7,4.3,2.5.7.4,1.5,0,1.5-.8,0-1.9,1.5-3.2,2-4.9.2-.6.6-1.1.5-1.7Zm-13.5,17.3c0,.9,0,1.7.2,2.6.2.9.7,1.2,1.6.9.6-.2,1-.6,1.3-1.2.5-1.1,1.2-1.9,2-2.7.8-.8.8-1.6.3-2.5-.5-.8-1-1.6-1.5-2.3-1-1.3-2.1-1.2-2.9.3-.8,1.5-.9,3.2-.9,4.9Z" style="fill: #433e32; stroke-width: 0px;"/>
  <path d="m97.3,70c-.6-.3-.7-1-1-1.5.2-.7.3-1.4.4-2.1.5-.2.7-.4.2-.8.5-1.3.7-2.8,1.5-4,.6-.3.6-.6,0-.9-.9-1.3-2.2-2.5-2.5-4.2,0-.4-.2-.8-.2-1.2,0-3.7-.4-7.4,0-11.2h-9.2c0-.5,0-1.1.4-1.4,1.7,0,3.5,0,5.2,0,1.3,0,2.8.5,3.7-.2.8-.6,1-2.1,1.4-3.2.1-.3.6-.6.3-1.2h-10.1c0-.5-.1-.9.3-1.3.2,0,.3,0,.5,0h9.5c.4-1.3.1-2.1-.7-2.9-.8-.8-1.4-1.8-1.9-2.8-.1-.3-.3-.6,0-.8.2,0,.3-.2.5-.2,1,1.4,1.9,3,3.1,4.3.7.7,1.3,1,2.2.5.2,0,.3,0,.4-.2.3-.4.4-1.1,1.1-1.1,0,.6,0,1.1,0,1.7-1.5,1.3-2.8,2.8-3.8,4.5-1,1.7-1.6,3.5-1.5,5.5,0,3.6-.3,7.1.2,10.7-.1.5-.2,1,.3,1.3.2.5.3,1,.6,1.4.6.7,1.2.7,1.6-.2,0,0,.2-.2.3-.3.8-.6,1.8-1,.8-2.2,0,0,0-.3,0-.4.5-2.4-.3-4.7.2-7.1,0,0,.1,0,.1,0,0,0,0-.2,0-.3,0-.4-.1-.8,0-1.2.2-.2.2-.5.2-.8,0-2.2.2-4.2,1.6-6,.2.2.3.4.5.6.2.8-.8,1.2-.5,2.1h5.1c.6.3,1,.6,1,1.3-1.7,0-3.3,0-5,0-1,0-1.3.2-1.4,1.3-.2,1.6-.1,3.3-.2,4.9-.1,1.8-.6,3.6-.2,5.5.2.4.5.6.9.4.3-.1.3-.4,0-.6.6-1,1.7-1.4,2.7-1.7.4,0,.9-.3,1.1.3-.1.3-.3.6-.4.9h0c-.3.1-.7.3-1,.5-.4,0-.8,0-.9.4-1.4,1.4-1.9,3.6-3.5,4.9-1.1.9-1.1,2.4-1.9,3.4-.2.2-.2.4-.1.6-.2.8-1.2,1.2-1.1,2.2-.4.6-.3,1.2-.2,1.8,0,.5,0,.9-.5,1.1Z" style="fill: #12110b; stroke-width: 0px;"/>
  <path d="m300,76.5c-4.3-.2-8.6-.2-12.9,0-14.1,0-28.2,0-42.2,0-2.3-.2-4.7-.2-7,0-2.5,0-5,0-7.5,0,0-.5,0-.9,0-1.4.9,0,1.7,0,2.6,0h108.8c.9,0,1.7,0,2.6,0-.2.5-.5,1-.9,1.3-14.5,0-29,0-43.5,0Z" style="fill: #12110b; stroke-width: 0px;"/>
  <path d="m386.5,76.5c-3.9-.2-7.8-.1-11.7,0-7.2,0-14.4,0-21.6,0,0-.6.3-1.1.8-1.4,34.2,0,68.4,0,102.6,0s1.7,0,2.6,0c-.2.6-.5,1.2-1.1,1.3-23,0-45.9,0-68.9,0-.9,0-1.7,0-2.6,0Z" style="fill: #12110b; stroke-width: 0px;"/>
  <path d="m533.9,75.2c0,.4,0,.9,0,1.3-7.5,0-15.1,0-22.6,0-.8,0-1.6,0-2.4,0-4.3-.2-8.6-.1-12.9,0-9.9,0-19.8,0-29.6,0,0-.6.3-1.1.8-1.4,21.4,0,42.9,0,64.3,0,.8,0,1.6,0,2.4,0Z" style="fill: #12110b; stroke-width: 0px;"/>
  <path d="m115.2,75.7c.2-.4.6-.4.9-.5,17.4,0,34.8,0,52.3,0,0,.5,0,1-.3,1.4-.8,0-1.6,0-2.4,0-9.1,0-18.2,0-27.3,0-2.8-.2-5.6-.1-8.4,0-3.4,0-6.9,0-10.3,0-1.6,0-3.1-.3-4.6-.8Z" style="fill: #12110b; stroke-width: 0px;"/>
  <path d="m217.6,75.1c0,.5,0,.9-.1,1.4h-18.5c-1-.2-2-.2-3,0-4.9,0-9.9,0-14.8,0,0-.5,0-.9.1-1.4.9,0,1.9,0,2.8,0,11.2,0,22.4,0,33.5,0Z" style="fill: #12110b; stroke-width: 0px;"/>
  <path d="m196,76.5c1-.2,2-.2,3,0-1,1.5-2,3-3.2,4.8-.4-1.9.4-3.3.2-4.8Z" style="fill: #851b12; stroke-width: 0px;"/>
  <path d="m98.3,60.8c.6.2.7.5,0,.9,0-.3,0-.6,0-.9Z" style="fill: #433e32; stroke-width: 0px;"/>
  <path d="m96.8,65.6c.5.4.3.6-.2.8-.2-.3,0-.6.2-.8Z" style="fill: #433e32; stroke-width: 0px;"/>
  <path d="m1065.3,80.9c0,.2-.2.3-.3.4-.2-.2-.2-.5,0-.7.1,0,.2.2.4.3Z" style="fill: #851b12; stroke-width: 0px;"/>
  <path d="m958.5,44c0,.2,0,.5-.3.6,0-.2-.2-.3-.3-.5.2,0,.4,0,.6,0Z" style="fill: #433e32; stroke-width: 0px;"/>
  <path d="m288.3,69c.4-2.3.7-4.7,1.1-7.3h-14.5c1.6-2.2,2.9-4.1,4.2-6,.4-.6.9-.4,1.4-.5,2.6,0,5.2,0,7.8,0,2,0,2,0,2.3-2,.9-5.5,1.7-11,2.5-16.5.1-.8.4-1.6.4-2.3,0-1.9.8-2.9,2.8-3.4,3.6-.9,7.1-2.2,10.9-3.4-1.3,9.3-2.6,18.4-4,27.7h23.5c-1.2,1.7-2.1,3.1-3.1,4.5-.7,1-1.2,2.2-2.1,2.9-1,.7-2.3,0-3.5-.2-4.8-.5-9.5-.8-14.3-.7-1.5,0-1.5,0-1.7,1.5-.2,2-.8,3.9-.7,5.9-4.3.1-8.6.2-12.9,0Z" style="fill: #851b12; stroke-width: 0px;"/>
  <path d="m971.5,36.7c-3.2,0-6.5,0-9.7,0-.4,0-.8,0-1.1-.3,1.2-4.5,3.1-8.6,5.5-12.5,4.2-6.8,9.3-12.8,15.9-17.4,4.8-3.4,10.1-5.6,16-6.2,5.1-.5,10-.1,14.9,1.4.3.6,0,.8-.3,1.1-2.3,3.2-4.7,6.4-7.1,9.6-.9,1.2-1,1.2-2.3.5-2.9-1.6-5.9-3-9.3-3.4-5.6-.7-10.3,1-14.1,5.3-2.8,3.2-4.2,7-5.6,10.9-1.1,3.2-1.8,6.4-2.7,9.6-.1.4,0,.9-.1,1.4Z" style="fill: #851b12; stroke-width: 0px;"/>
  <path d="m242.8,69.1c2.5-3.3,5-6.5,8-9.4,2.5-2.3,5.1-4.5,8.3-5.6,3.9-1.4,7.7-1.1,11.2,1.1,1.2.7,1.2.8.5,2-1.8,3.4-3.7,6.8-5.5,10.2-.3.6-.8,1.1-.7,1.8-.7.2-.9.8-1.1,1.4-.6,1.3-1.2,2.6-2.3,4-.3-1.6-.5-2.9-1.4-4,0-.7-.4-1.1-1-1.4-.6-.8-1.4-1.1-2.4-1.1-1.4-.1-2.5.5-3.7,1.1-3.4.3-6.8.2-10.3,0Z" style="fill: #851b12; stroke-width: 0px;"/>
  <path d="m100.9,34.8c-.9.4-1.5.2-2.2-.5-1.2-1.3-2.1-2.8-3.1-4.3,0-1.5,0-2.9,0-4.4.1-.9.5-1.6,1-2.4.2-.1.5-.3.7-.4.3-.2.7-.6.4-1-.3-.5-.8-.4-1.2,0,.4-.6.9-.8,1.6-.5v.2s.2,0,.2,0c.7.3,1.5.1,2.2,0,.5.2,1.1.2,1.6.2.6.3,1.3.3,2,.2,1.4,0,2,1.5,3.2,2,2.2,1,3.8,2.7,5.3,4.5,1.7,2,3,4.2,4,6.6.4,1,0,1.7-1.1,1.7-.7,0-1.3,0-2,0-.4-.7-.5-1.5-1-2.1-1.8-2-2.9-4.5-5.3-6-1.5-.9-2.7-1.8-4.5-1.7-2.1.1-2.6.7-2.1,2.7.3,1,.7,2,1.4,2.8.3.3.6.6.5,1-.7,0-.8.7-1.1,1.1-.2,0-.3,0-.4.2Z" style="fill: #ecdd1e; stroke-width: 0px;"/>
  <path d="m374.4,69.1c4.1,0,8.3.2,12.4,0,24.8,0,49.6,0,74.5,0,.8,0,1.6,0,2.4,0-.1.6-.5,1.1-1,1.4-.9,0-1.7,0-2.6,0-33.6,0-67.3,0-100.9,0-.8,0-1.6,0-2.4,0,0-.6.4-1,.9-1.3,5.6,0,11.2,0,16.8,0Z" style="fill: #12110b; stroke-width: 0px;"/>
  <path d="m263.7,70.5c.2-.6.4-1.2,1.1-1.4,7.9,0,15.7,0,23.6,0,4.3.2,8.6.2,12.9,0,15,0,30,0,44.9,0,.9,0,1.7,0,2.6,0-.2.6-.7,1-1.2,1.4-7.9,0-15.8,0-23.8,0-20,0-40.1,0-60.1,0Z" style="fill: #12110b; stroke-width: 0px;"/>
  <path d="m534,69.2v1.2c-.5,0-.9,0-1.4,0h-61.1c-.5,0-1.1,0-1.6,0,.1-.6.5-1,1-1.3,8.9,0,17.7,0,26.6,0,4.2.2,8.5.2,12.7,0,7.2,0,14.4,0,21.7,0,.7,0,1.5,0,2.2,0Z" style="fill: #12110b; stroke-width: 0px;"/>
  <path d="m117.6,70.1c.1-.3.3-.6.4-.9h16c.8,0,1.6,0,2.4-.3,1.1.6,2.3.2,3.4.3,1.1,0,2.2,0,3.3,0,8.7,0,17.4,0,26.1,0,0,.4,0,.9-.1,1.4-.9,0-1.7,0-2.6,0-15.4,0-30.7,0-46.1,0-1,0-2,.2-2.9-.4Z" style="fill: #12110b; stroke-width: 0px;"/>
  <path d="m98.2,21.6h-.2s0-.2,0-.2c-.4-.8.4-.8.7-.8,2.5-.3,5-.3,7.3.9,5.2,2.6,8.8,6.8,11.2,11.9.4.8.7,1.7.7,2.6-.8.9,0,1.8,0,2.7-.2.2-.5.2-.7.2-1.6-.9-3.2-1.2-4.8-.3-.2,0-.5,0-.8,0-.3-.8-.9-.6-1.4-.5-1.1-.2-2.1,0-2.8,1-.3.4-.7.6-1,.9-.1,0-.2,0-.4,0h0c0-.2,0-.4-.3-.4h0c-.3-.7-1.4-.1-1.7-.9.2-.5.3-1.1,1.1-1.2.3,0,.5,0,.6-.2,1.1-.6,2.2-1.2,3.3-1.9.2.2.5.5.7.7.5.8,1.2.7,1.9.7.6,0,1.2,0,1.8,0,.7,0,1.3,0,2,0,1.1,0,1.5-.7,1.1-1.7-1-2.4-2.3-4.7-4-6.6-1.5-1.8-3.1-3.5-5.3-4.5-1.1-.5-1.8-1.9-3.2-2-.6-.5-1.3-.5-2-.2-.6,0-1.1,0-1.6-.2-.7-.6-1.5-.5-2.2,0Z" style="fill: #12110b; stroke-width: 0px;"/>
  <path d="m200,69.1c1.7.2,3.4.1,5.2,0h12.8c0,.4,0,.9,0,1.4-.9,0-1.7,0-2.6,0-11.1,0-22.2,0-33.3,0,0-.5,0-1.1.4-1.4,5.8,0,11.7,0,17.5,0Z" style="fill: #12110b; stroke-width: 0px;"/>
  <path d="m259.1,69.1c.6.3.9.7,1,1.4-9.8,0-19.5,0-29.2,0,0-.5,0-1,.1-1.5,3.9,0,7.9,0,11.9,0,3.4.1,6.9.2,10.3,0,2,0,4,0,6,0Z" style="fill: #12110b; stroke-width: 0px;"/>
  <path d="m96.5,23.2c-.4.7-.8,1.5-1,2.4-.7,1.5-.1,3.1-.4,4.6-1-.2-1.1-1.4-1-1.9,0-1.8-.3-3.9,1.2-5.4.4,0,.8.2,1.2.2Z" style="fill: #12110b; stroke-width: 0px;"/>
  <path d="m96.5,23.2c-.4,0-.8-.2-1.2-.2.2-.5.7-.8,1.1-1.2.4-.4.9-.5,1.2,0,.2.4,0,.7-.4,1-.2.2-.4.3-.7.4Z" style="fill: #433e32; stroke-width: 0px;"/>
  <path d="m95.1,30.2c.3-1.5-.3-3.1.4-4.6,0,1.5,0,2.9,0,4.4-.2,0-.3.2-.5.2,0,0,0,0,0,0Z" style="fill: #433e32; stroke-width: 0px;"/>
  <path d="m88.1,36.8c-.2,0-.3,0-.5,0,0,0,0-.2,0-.2.2,0,.3.1.5.2Z" style="fill: #433e32; stroke-width: 0px;"/>
  <path d="m557.7,44.2c.2.4.4.7.6,1.1,0,.6,0,1.1.4,1.6-.2,3.6.5,7.3-.2,10.9-.6,2.8-1,5.6-2.1,8.2-.6,1.4-1,1.6-2.4,1-.4-.2-.8-.4-1.2-.7-.3-.2-.5-.6-.3-.8,1.2-1.9,1.5-4.1,2.4-6.1.8-1.7.4-3.9.7-5.9.3-2.1-.7-4-1-6-.2-1.1-.7-2.2,0-3.3.3,0,.6-.2.9-.2.1,0,.3,0,.4,0,.6,0,1.1.2,1.7.3Z" style="fill: #ecdd1e; stroke-width: 0px;"/>
  <path d="m556,44c-.1,0-.3,0-.4,0,.1-.3.3-.3.4,0Z" style="fill: #433e32; stroke-width: 0px;"/>
  <path d="m356.7,70.4c.8,0,1.6,0,2.4,0,33.6,0,67.3,0,100.9,0,.9,0,1.7,0,2.6,0-1.1,1.5-2.3,3.1-3.4,4.6-.9,0-1.7,0-2.6,0-34.2,0-68.4,0-102.6,0,.6-1.8,1.5-3.3,2.7-4.7Z" style="fill: #ecdd1e; stroke-width: 0px;"/>
  <path d="m469.9,70.4c.5,0,1.1,0,1.6,0,20.4,0,40.7,0,61.1,0s.9,0,1.4,0c.4.2.5.6.4,1-.2,1.2,0,2.5-.5,3.7-.8,0-1.6,0-2.4,0-21.4,0-42.9,0-64.3,0,.4-1.8,1.5-3.3,2.7-4.7Z" style="fill: #ecdd1e; stroke-width: 0px;"/>
  <path d="m117.6,70.1c.9.6,1.9.4,2.9.4,15.4,0,30.7,0,46.1,0,.9,0,1.7,0,2.6,0-.2,1.6-.3,3.1-.8,4.6-17.4,0-34.8,0-52.3,0-.3-.4-.8-.5-1.2-.7-3.3-.9-6.1-2.6-8.4-5.1-.4-.4-.8-.7-1.2-1-1.3-.9-1.7-2.3-.8-3.7.6-.9,1.2-1,1.9-.6,1.3.7,2.7,1.1,3.8,2.4,1.2,1.5,2.9,2.6,4.9,2.8.9.1,1.6.8,2.4.8Z" style="fill: #ecdd1e; stroke-width: 0px;"/>
  <path d="m182.1,70.5c11.1,0,22.2,0,33.3,0,.9,0,1.7,0,2.6,0,.1,1.6.1,3.2-.4,4.7-11.2,0-22.4,0-33.5,0-.9,0-1.9,0-2.8,0,.3-1.5.5-3,.8-4.5Z" style="fill: #ecdd1e; stroke-width: 0px;"/>
  <path d="m230.8,70.5c9.8,0,19.5,0,29.2,0,.9,1.1,1,2.4,1.4,4,1-1.4,1.6-2.7,2.3-4,20,0,40.1,0,60.1,0,7.9,0,15.8,0,23.8,0-.9,1.6-1.9,3.2-3.1,4.7-.9,0-1.7,0-2.6,0h-108.8c-.9,0-1.7,0-2.6,0,0-1.6,0-3.1.3-4.6Z" style="fill: #ecdd1e; stroke-width: 0px;"/>
  <path d="m543.2,78.4c0,0,.2,0,.2,0,1.2-1.2,3-1.8,3.9-3.3.8-1.2,2.3-1.6,3.6-1,.3.2.5.4.5.8,0,.7,0,1.4-.6,1.8-1.1.9-1.8,2.1-3.1,2.8-.9.4-1.6,1.2-2.5,1.6-2.1,1.2-4.4,1.8-6.8,1.3-.8-.2-1.4-.8-1.8-1.5-.9-1.5-1.5-3.2-1.2-5,.2-1.5.4-3,.6-4.5,0-.4,0-.9.3-1.1,1-.6,1-1.5,1-2.4,0-.9.2-1.8.8-2.6.5-.6.7-1.6,1-2.3.2-.6.6-1.2.9-1.7.9-1.4,2.5-2.4,2.8-4.2,0-.3.4-.6.7-.7,1.8-.6,2.8-2.2,4.2-3.2.9-.7,1.8-1,3-.8.5.1,1.3-.2,1.4.7,0,.8,0,1.4-.7,1.9-1,.6-2,1.3-3,1.9-.3.2-.7.2-.9.4-2.1,3.1-5.6,5.4-6,9.6-1.4,1.9-1.5,4.2-1.7,6.4-.1,1.5-.5,3-.2,4.5.4,1.9.9,2.2,2.7,1.3.4-.2,1-.2.8-.9h0Z" style="fill: #ecdd1e; stroke-width: 0px;"/>
  <path d="m541.4,31.6c0,.3,0,.5.2.8.6,1.2.5,1.6-.4,2.3-.8.7-1.6.7-2.5,0-.3-.2-.6-.4-.8-.7-.8-1.3-1.8-2.4-2.6-3.7-1.4-2.2,0-7.1,2.1-8.4.7-.4,1.4-.3,2.1-.3,1.4,0,2.8.2,4.2.4.6,0,1.1.2,1.5.8.5.7,1.1,1.1,1.9,1.5,2.4,1,4.2,2.8,5.6,4.9,1.3,1.9,2.5,3.9,3.1,6.2.2.9.2,1.6-.7,2-.8.4-1.6.2-2.1-.8-1-2.1-2.7-3.7-4-5.6-1.2-1.7-2.9-2.7-4.6-3.7-1.1-.7-2.5-.3-3.7-.2-.5,0-.9.4-.9.9,0,1.4.1,3,1.7,3.7,0,0,0,0,0,0Z" style="fill: #ecdd1e; stroke-width: 0px;"/>
  <path d="m536.4,51.2c.2-2.5.4-4.9.5-7.4,0-1.3,1.5-2,1.5-3.4,1.4-1.4,2-3.6,3.8-4.8,1.6-1.1,2.9-2.7,4.9-3.2.9-.2,1.5,0,1.9.7.3.7.3,1.5-.4,1.9-.9.6-1.8,1.3-2.8,1.5-2.3.6-3.3,2.5-4.1,4.2-1.6,3.4-1.7,7.2-1.4,10.9.1,1.8-.2,3.6-.6,5.3-.2.8-.7.8-1.3.8-.7,0-1.1,0-1.3-.9-.3-2-.9-3.9-.7-5.9Z" style="fill: #ecdd1e; stroke-width: 0px;"/>
  <path d="m556.6,74.4c-1.1-.6-3-.2-4-1.9-.1-.2-.4-.4-.6-.4-2.8-.5-4.8-2.3-7.2-3.5-.4-.2-.6-.5-.6-.9s0-.7,0-1c.2-.7.2-1.7,1-2.1,1-.4,1.6.3,2.2,1,.6.7,1.2,1.4,2.3,1.3.4,0,.7.3,1,.7,1.5,1.7,3.5,2.6,5.7,2.8.5,0,.9.3,1.3.5,1.1.5,1.5,1.2,1.3,2.2-.2,1-.8,1.4-2.4,1.4Z" style="fill: #ecdd1e; stroke-width: 0px;"/>
  <path d="m543.5,75.1c-2.6,0-2.7,0-2.3-2.7.2-1.8.3-1.8,2.1-1.8,1.2,0,2.3-.2,3,1.2.9,1.8.2,3.2-1.8,3.3-.3,0-.7,0-1,0Z" style="fill: #ecdd1e; stroke-width: 0px;"/>
  <path d="m558.7,46.9c-.4-.5-.4-1-.4-1.6.3-.3.6-.6.8,0,.2.5.2,1.2-.4,1.5Z" style="fill: #12110b; stroke-width: 0px;"/>
  <path d="m87.3,38.1h10.1c.4.6-.1.8-.3,1.2-.4,1.1-.6,2.6-1.4,3.2-.9.7-2.4.2-3.7.2-1.7,0-3.5,0-5.2,0-.2-1.6.4-3,.5-4.6Z" style="fill: #ecdd1e; stroke-width: 0px;"/>
  <path d="m97.3,70c.4-.2.5-.6.4-1,.3-.6.3-1.2.2-1.8,0-.9.8-1.4,1.1-2.2.2-.2.2-.4.1-.6.8-1.1.8-2.5,1.9-3.4,1.6-1.3,2.1-3.5,3.5-4.9.3,0,.7,0,.9-.4.3-.2.7-.4,1-.6h0c.1-.2.3-.5.4-.8h0c1.6-1.4,3.8-1.8,5.8-2.8,1.4-.8,2-.3,2.1,1.4,0,1.1,0,1.9-1.6,1.8-.7,0-1.3.8-2,1.2-1.7,1-3.1,2.3-4.4,3.8-2,2.3-3.5,4.8-4.6,7.7-.9,2.5-1.2,5-1.4,7.5,0,1-.3,2-.1,3,.1.6.2,1.2.6,1.7.3.3.6.6,1,.3,1.1-.7,2.6-.8,3.1-2.2.2-.5.6-.7,1-.9.8-.4,1.5-.9,2-1.8.5-1,3.1-1.3,3.7-.5.5.7.3,1.6-.2,2.2-.9.9-1.7,2-2.8,2.8-1,.6-2,1.4-3,2-2,1.1-4.3,1.8-6.7,1.2-.9-.2-1.5-.9-2-1.6-.9-1.4-1.4-3-1.1-4.7.2-1.7.4-3.3.5-5,0-.6.5-.9.8-1.4Z" style="fill: #ecdd1e; stroke-width: 0px;"/>
  <path d="m119.2,50.1c.2,2.1.4,4.7,0,7.3-.6,3-1,6-2.2,8.8-.5,1.1-.9,1.3-2,.9-1.3-.4-1.6-.9-1.3-2,.4-1.8.7-3.7,1.8-5.2.2-.4.3-.7.3-1.1.2-1.7.3-3.3.5-5,.3-2.2-.6-4.2-.9-6.3,0-.7-.2-1.3-.4-1.9-.2-.8.2-1.3.9-1.5,1.4-.5,2.6.3,3,1.8.4,1.2.4,2.5.3,4.2Z" style="fill: #ecdd1e; stroke-width: 0px;"/>
  <path d="m106.4,40c.3-.3.8-.6,1-.9.7-.9,1.7-1.2,2.8-1,.3.7.9.5,1.4.5.2,0,.5,0,.8,0,1.6.1,3.2.8,4.8.3.3,0,.5,0,.7-.2.5-.1,1-.3,1.5-.4,1.4-.1,2.1.5,2.3,1.8,0,.5,0,1-.5,1.2-2.1.9-4.2,2.1-6.4,1.4-2.5-.8-5.2-.3-7.7-1.5h0c0-.2-.2-.3-.4-.4h0c-.2-.2-.4-.5-.4-.8Z" style="fill: #ecdd1e; stroke-width: 0px;"/>
  <path d="m107.8,42.7h-5.1c-.3-.9.7-1.4.5-2.1.7-.5,1.3-1.2,2.3-1h0c0,.3,0,.4.3.5h0c0,.6,0,1,.8.8h0c-.1.4-.1.7.4.4h0c-.5.8.6.9.6,1.5Z" style="fill: #ecdd1e; stroke-width: 0px;"/>
  <path d="m110.4,44c-.1,0-.3,0-.4,0,.1-.3.3-.3.4,0Z" style="fill: #12110b; stroke-width: 0px;"/>
  <path d="m109,35.4c-1.1.6-2.2,1.2-3.3,1.9-.3,0-.5,0-.6.2-.7,0-.8.7-1.1,1.2-.6.2-.8.9-1.2,1.3-1.3,1.8-1.6,3.8-1.6,6-.3.2-.3.5-.2.8-.2.4-.1.8,0,1.2,0,.1,0,.3,0,.4-.4,2.4.3,4.7-.2,7.1,0,.1,0,.3,0,.4,1,1.2,0,1.7-.8,2.2-.2,0-.3,0-.3.3-.4.9-1,.9-1.6.2-.3-.4-.4-.9-.6-1.4.1-.5,0-.9-.3-1.3-.5-3.6-.2-7.1-.2-10.7,0-2,.6-3.7,1.5-5.5,1-1.8,2.3-3.2,3.8-4.5,2.3-.7,4.1-2.4,6.2-3.4,1,1.3,1.5,2.4.3,3.7Z" style="fill: #ecdd1e; stroke-width: 0px;"/>
  <path d="m109,35.4c1.2-1.3.7-2.4-.3-3.7-2.1,1.1-3.9,2.7-6.2,3.4,0-.6,0-1.1,0-1.7,0-.5-.2-.7-.5-1-.7-.8-1.1-1.8-1.4-2.8-.6-2,0-2.6,2.1-2.7,1.8,0,3.1.8,4.5,1.7,2.4,1.5,3.6,4,5.3,6,.6.6.6,1.5,1,2.1-.6,0-1.2,0-1.8,0,.1-.8-.4-1.4-.6-2.1-.6,0-.6.5-.7.8,0,.3-.3.6-.6.7-.2-.2-.5-.5-.7-.7Zm-5.3-7.1c-.8,0-1.6,0-1.9.8-.3.9-.2,1.8.4,2.4.6.5,1.1,1.5,2.1,1.1.8-.3,1.6-.7,2.3-1,.5-.2.8-.8.4-1.1-1-.9-1.7-2.4-3.5-2.2Z" style="fill: #433e32; stroke-width: 0px;"/>
  <path d="m102.7,40c.4-.4.6-1.1,1.2-1.3.3.8,1.3.2,1.7.9-1-.2-1.6.5-2.3,1-.2-.2-.3-.4-.5-.6Z" style="fill: #433e32; stroke-width: 0px;"/>
  <path d="m102,55.8c.3,0,.6-.1.9-.2.3.2.3.5,0,.6-.4.2-.7,0-.9-.4Z" style="fill: #433e32; stroke-width: 0px;"/>
  <path d="m97.9,67.2c.2.6.2,1.2-.2,1.8-.1-.6-.3-1.2.2-1.8Z" style="fill: #433e32; stroke-width: 0px;"/>
  <path d="m97.3,55.9c.2.4.4.8.3,1.3-.4-.4-.4-.8-.3-1.3Z" style="fill: #433e32; stroke-width: 0px;"/>
  <path d="m105.4,55.7c-.2.4-.6.3-.9.4.2-.4.6-.4.9-.4Z" style="fill: #433e32; stroke-width: 0px;"/>
  <path d="m101.1,46.8c-.2-.3-.1-.6.2-.8,0,.3,0,.6-.2.8Z" style="fill: #433e32; stroke-width: 0px;"/>
  <path d="m100.9,48.4c0-.1,0-.3,0-.4,0,0,0,.2,0,.3,0,0,0,0-.1,0Z" style="fill: #433e32; stroke-width: 0px;"/>
  <path d="m99.8,58.4c0-.2,0-.3.3-.3,0,0-.2.2-.3.3Z" style="fill: #433e32; stroke-width: 0px;"/>
  <path d="m100.9,34.8c0-.2.2-.3.4-.2,0,.2-.2.2-.4.2Z" style="fill: #433e32; stroke-width: 0px;"/>
  <path d="m99.1,64.4c0,.2,0,.4-.1.6-.1-.2,0-.5.1-.6Z" style="fill: #433e32; stroke-width: 0px;"/>
  <path d="m106.3,55.1h0c0,0,0,0,0,0Z" style="fill: #f8f6f6; stroke-width: 0px;"/>
  <path d="m259.1,69.1c-2,0-4,0-6,0,1.2-.6,2.3-1.2,3.7-1.1.9,0,1.8.3,2.4,1.1Z" style="fill: #f8f6f6; stroke-width: 0px;"/>
  <path d="m102,21.7c.7-.2,1.4-.3,2,.2-.7.1-1.3.1-2-.2Z" style="fill: #433e32; stroke-width: 0px;"/>
  <path d="m98.2,21.6c.7-.5,1.5-.6,2.2,0-.7.1-1.5.2-2.2,0Z" style="fill: #433e32; stroke-width: 0px;"/>
  <path d="m117.2,38.9c-1.6.5-3.2-.2-4.8-.3,1.7-1,3.3-.6,4.8.3Z" style="fill: #433e32; stroke-width: 0px;"/>
  <path d="m111.6,38.6c-.6,0-1.1.2-1.4-.5.6,0,1.2-.3,1.4.5Z" style="fill: #433e32; stroke-width: 0px;"/>
  <path d="m106.8,40.8c-.8.2-.8-.2-.8-.8.1,0,.2,0,.4,0,0,.3.2.6.4.8Z" style="fill: #433e32; stroke-width: 0px;"/>
  <path d="m105,37.5c.2-.2.4-.3.6-.2-.2.2-.4.3-.6.2Z" style="fill: #433e32; stroke-width: 0px;"/>
  <path d="m106,40c-.2,0-.3-.2-.3-.4.2,0,.3.2.3.4Z" style="fill: #433e32; stroke-width: 0px;"/>
  <path d="m107.2,41.2c-.5.2-.6,0-.4-.4.2,0,.4.2.4.4Z" style="fill: #433e32; stroke-width: 0px;"/>
</svg>