<?xml version="1.0" encoding="utf-8"?>
<!-- Generator: Adobe Illustrator 27.8.0, SVG Export Plug-In . SVG Version: 6.00 Build 0)  -->
<svg version="1.1" id="logo_xA0_Immagine_00000061455703684480713140000016212981427107754896_"
	 xmlns="http://www.w3.org/2000/svg" xmlns:xlink="http://www.w3.org/1999/xlink" x="0px" y="0px" viewBox="0 0 1202.4 170"
	 style="enable-background:new 0 0 1202.4 170;" xml:space="preserve">
<style type="text/css">
	.st0{fill:#ECDD1E;}
	.st1{fill:#12110B;}
	.st2{fill:#851B12;}
	.st3{fill:#433E32;}
	.st4{fill:#F8F6F6;}
</style>
<g>
	<path class="st0" d="M1202.4,46.8c0,1.6,0,3.2,0,4.8c-0.66-0.03-1.33-0.09-1.99-0.09c-213.57,0-427.14,0-640.71,0
		c-0.73,0-1.47-0.02-2.2,0.06c-2.6,0.28-5.18-0.13-7.77-0.23c-0.72-0.03-1.44-0.26-2.09-0.64c-1.09-0.64-2.2-1.25-3.3-1.87
		c-0.21-1.85,1.56-1.43,2.4-2.08c0.83-0.64,1.53-0.27,2.35,0.2c3.14,1.8,6.31,2.2,9.45-0.05c0.93,0,1.87-0.01,2.8-0.01
		c212.75,0,425.51,0,638.26,0C1200.54,46.89,1201.47,46.83,1202.4,46.8z"/>
	<path class="st1" d="M544.35,48.83c1.1,0.62,2.21,1.23,3.3,1.87c0.65,0.38,1.37,0.61,2.09,0.64c2.59,0.1,5.17,0.52,7.77,0.23
		c0.73-0.08,1.46-0.06,2.2-0.06c213.57,0,427.14,0,640.71,0c0.66,0,1.33,0.06,1.99,0.09c0,0.4,0,0.8,0,1.2
		c-0.79,0.23-1.59,0.11-2.38,0.11c-75.88,0.01-151.75,0.01-227.63,0.01c-0.8,0-1.6,0.01-2.4,0.02c-3.84-0.05-7.68-0.09-11.52-0.13
		c-0.19,0.02-0.38,0.04-0.57,0.05c-0.73,0.02-1.46,0.06-2.19,0.06c-131.28,0-262.55,0-393.83,0c-0.73,0-1.46-0.04-2.19-0.07
		c-0.67-0.13-1.31,0-1.96,0.16c-0.57-0.08-1.14-0.16-1.71-0.24c-0.14-0.26-0.28-0.27-0.43-0.01c-0.3,0.08-0.61,0.16-0.91,0.24
		c-0.65-0.17-1.31-0.22-1.97-0.13c-3.49,0.2-6.67-0.46-9.14-3.19C543.7,49.26,543.96,48.98,544.35,48.83z"/>
	<path class="st1" d="M1202.4,46.8c-0.93,0.03-1.86,0.09-2.79,0.09c-212.75,0-425.51,0-638.26,0c-0.93,0-1.87,0.01-2.8,0.01
		c-0.57-0.29-0.59-0.81-0.56-1.34c0.86-0.03,1.73-0.07,2.59-0.07c132.53,0,265.06,0,397.59-0.01c0.85,0,1.74,0.21,2.55-0.26
		c0.31,0.31,0.7,0.35,1.1,0.35c3.25-0.03,6.49-0.05,9.74-0.08c76.15,0,152.31,0,228.46,0.01c0.79,0,1.6-0.12,2.38,0.11
		C1202.4,46,1202.4,46.4,1202.4,46.8z"/>
	<path class="st0" d="M0,51.6c0-1.6,0-3.2,0-4.8c0.8,0.03,1.59,0.09,2.39,0.09c26.51,0.01,53.03,0.01,79.55,0.02
		c0.21,1.53,0.16,3.07,0.04,4.61c-26.86,0-53.73-0.01-80.59-0.01C0.93,51.51,0.46,51.57,0,51.6z"/>
	<path class="st1" d="M81.93,46.91c-26.51,0-53.03-0.01-79.54-0.02c-0.8,0-1.59-0.06-2.39-0.09c0-0.4,0-0.8,0-1.2
		c0.73-0.04,1.46-0.11,2.18-0.11c14.86-0.01,29.72,0,44.58-0.01c0.8,0,1.6-0.02,2.4-0.03c3.33,0.24,6.67,0.13,10,0.05
		c7.47,0,14.93,0,22.4,0.01C81.99,45.89,82,46.39,81.93,46.91z"/>
	<path class="st1" d="M0,51.6c0.46-0.03,0.93-0.09,1.39-0.09c26.86,0,53.73,0,80.59,0.01c0,0.46,0,0.92-0.01,1.39
		c-8.51,0.02-17.02,0.03-25.53,0.04c-3.86-0.22-7.72-0.15-11.58-0.03c-14.23,0-28.45,0-42.68-0.01c-0.73,0-1.45-0.07-2.18-0.11
		C0,52.4,0,52,0,51.6z"/>
	<path class="st2" d="M463.67,77.99c2.76-2.97,5.53-5.92,8.8-8.37c4.14-3.1,8.78-4.93,13.87-5.68c3.88-0.57,7.78-0.89,11.71-0.84
		c1.73,0.02,1.77,0,2.17-1.76c1.27-5.64,2.8-11.21,4.62-16.69c3.68-11.09,10.08-20.31,19.11-27.69c4.65-3.8,9.91-6.46,15.87-7.55
		c5.85-1.07,11.62-0.7,17.23,1.03c0.2,0.35,0.14,0.6-0.02,0.82c-2.48,3.38-4.99,6.73-7.42,10.14c-0.64,0.9-1.18,0.98-2.11,0.42
		c-2.58-1.54-5.33-2.79-8.28-3.35c-6.89-1.31-12.41,0.97-16.49,6.67c-2.51,3.52-3.88,7.56-5.07,11.66
		c-2.43,8.36-4.05,16.9-5.31,25.51c-0.71,4.85-1.48,9.69-2.21,14.54c-0.05,0.32,0,0.66,0.01,1c-4.22,0.19-8.45,0.19-12.67,0
		c0.37-1.4-0.25-2.1-1.51-2.73c-3.18-1.58-6.45-2.83-9.96-3.37c-6.25-0.96-11.43,0.77-15.12,6.15c-0.5,0.3-0.86,0.7-0.96,1.3
		c-1.22,1.39-2.27,2.87-2.71,4.71c-0.51,0.32-0.83,0.75-0.8,1.39c-0.54,1.21-1.14,2.4-1.6,3.64c-2.32,6.37-4.41,12.82-5.87,19.45
		c-1.93,8.77-3.31,17.6-2.61,26.63c0.16,2.01,0.52,3.96,1.28,5.82c1.17,2.89,4.07,4.11,6.64,2.49c1.13-0.71,2.25-1.4,3.23-2.32
		c3.26-3.08,5.97-6.61,8.51-10.28c6.31-9.11,11.39-18.89,15.98-28.95c2.4-5.26,3.85-10.7,4.1-16.47c4.29-0.05,8.58-0.17,12.86,0.07
		c-1.67,11.48-3.32,22.96-5,34.44c-0.85,5.84-1.82,11.66-2.57,17.51c-0.29,2.27-0.8,4.57-0.19,6.91c0.66,2.53,2.24,3.49,4.78,2.72
		c2.37-0.72,4.17-2.31,5.9-3.96c2.96-2.8,5.45-6.01,7.86-9.27c1.06-1.44,2.1-2.89,3.41-4.71c0,0.72,0.04,1.05-0.01,1.38
		c-0.24,1.57-0.51,3.14-0.75,4.71c-0.14,0.91-0.22,1.85-0.78,2.63c-4.07,5.62-8.38,11.01-14.1,15.09c-2.3,1.64-4.78,2.86-7.56,3.44
		c-1.72,0.36-3.45,0.39-5.15-0.01c-3.26-0.76-5.1-3.04-5.9-6.14c-0.75-2.89-0.89-5.83-0.65-8.87c0.4-4.97,1.19-9.88,1.86-14.8
		c0.72-5.32,1.6-10.62,2.41-15.93c0.04-0.26,0.12-0.51,0.13-0.77c0-0.1-0.13-0.21-0.23-0.29c-0.22-0.18-0.41,0-0.49,0.14
		c-0.19,0.34-0.33,0.72-0.46,1.08c-1.98,5.36-4.05,10.68-6.57,15.82c-4.35,8.88-9.39,17.31-16.64,24.2
		c-2.68,2.55-5.66,4.65-9.36,5.47c-3.93,0.87-7.59,0.23-10.65-2.45c-2.26-1.98-3.44-4.69-4.21-7.56c-1.32-4.87-1.47-9.84-1.25-14.84
		c0.53-12.06,3.93-23.37,9-34.25c1.55-3.32,3.27-6.53,5.2-9.64c0.41-0.66,1-1.26,1.05-2.1c0.68-0.19,0.94-0.74,1.15-1.34
		c1.15-1.54,2.29-3.08,3.44-4.61C463.16,79.05,463.56,78.63,463.67,77.99z"/>
	<path class="st2" d="M667.84,109.24c0.92-0.73,1.02-1.48,1.27-2.13c3.05-8.1,6.57-15.98,10.99-23.43
		c3.3-5.56,6.98-10.86,11.67-15.37c3.01-2.89,6.3-5.34,10.55-6.08c4.78-0.84,9.05,0.88,10.91,5.81c0.71,1.88,1.13,3.82,1.25,5.81
		c0.35,5.51-0.21,10.98-1.03,16.42c-0.87,5.77-1.76,11.53-2.64,17.3c-0.88,5.77-1.82,11.53-2.61,17.31
		c-0.8,5.84-2.04,11.63-2.12,17.56c-0.01,0.74,0.06,1.45,0.28,2.16c0.68,2.19,2.28,3.08,4.47,2.45c2.04-0.59,3.67-1.85,5.2-3.24
		c4.22-3.82,7.6-8.34,10.86-12.96c0.37-0.53,0.61-1.17,1.54-1.7c-0.81,3.7-0.46,7.31-2.98,10.38c-3.59,4.38-7.09,8.82-11.59,12.32
		c-3.14,2.44-6.55,4.35-10.62,4.62c-2.9,0.2-5.54-0.41-7.54-2.8c-1.15-1.38-1.69-3-2.07-4.68c-0.63-2.82-0.64-5.73-0.32-8.55
		c1.38-12.12,3.5-24.14,5.35-36.19c0.99-6.42,1.93-12.85,2.85-19.28c0.28-1.97,0.18-3.97,0.09-5.96c-0.03-0.65-0.2-1.31-0.41-1.94
		c-0.72-2.2-2.28-3-4.51-2.36c-3.15,0.91-5.4,3.11-7.47,5.47c-4.15,4.73-7.34,10.11-10.33,15.61c-4.8,8.82-8.9,17.98-12.87,27.2
		c-0.94,2.19-1.14,4.49-1.51,6.77c-1.26,7.72-2.45,15.45-3.61,23.19c-0.16,1.1-0.42,1.5-1.65,1.6c-3.3,0.26-6.6,0.59-9.92,0.7
		c-0.66,0.02-1.46,0.8-2-0.06c-0.37-0.6,0.11-1.29,0.22-1.93c1.42-7.9,2.94-15.78,4.28-23.69c0.95-5.62,1.67-11.28,2.51-16.92
		c1.02-6.82,2.13-13.62,3.08-20.45c0.71-5.12,1.76-10.21,1.84-15.4c0.01-0.73,0.03-1.46-0.05-2.18c-0.3-2.56-2.21-3.81-4.7-3.1
		c-2.6,0.74-4.54,2.49-6.38,4.31c-3.71,3.65-6.83,7.79-9.84,12.03c-0.27,0.38-0.54,0.74-0.83,1.11c-0.02,0.03-0.13-0.01-0.45-0.04
		c0.38-2.47,0.75-4.93,1.16-7.38c0.04-0.24,0.25-0.47,0.4-0.68c3.77-5.17,7.72-10.17,12.83-14.12c2.87-2.22,5.94-4.03,9.62-4.55
		c5.7-0.8,9.37,1.43,10.64,7.01c0.87,3.8,0.58,7.64,0.17,11.45c-0.86,7.91-2.26,15.75-3.4,23.62
		C668.21,105.82,667.87,107.36,667.84,109.24z"/>
	<path class="st2" d="M738.47,155.54c-0.35-1.44,0.2-2.71,0.42-3.97c1.31-7.58,2.78-15.14,4.07-22.72
		c0.99-5.82,1.78-11.66,2.65-17.5c0.99-6.62,1.98-13.24,2.96-19.87c0.7-4.72,1.44-9.44,1.84-14.2c0.11-1.34,0.03-2.67-0.52-3.92
		c-0.72-1.66-2.08-2.36-3.88-1.94c-1.58,0.37-2.95,1.19-4.23,2.16c-2.66,2.03-4.85,4.53-6.97,7.09c-1.91,2.3-3.71,4.7-5.43,7.15
		c-0.33,0.47-0.64,0.96-1.38,1.47c0.4-2.64,0.76-4.96,1.1-7.29c0.06-0.42,0.26-0.74,0.5-1.07c4.03-5.56,8.29-10.91,13.92-14.98
		c3.24-2.34,6.75-3.96,10.86-3.9c3.84,0.05,6.42,1.82,7.8,5.39c1.08,2.79,1.25,5.72,1.08,8.64c-0.37,6.16-1.35,12.25-2.32,18.34
		c-0.72,4.52-1.38,9.05-2.05,13.57c-0.04,0.3-0.21,0.64,0.09,0.93c0.72,0.12,0.67-0.54,0.8-0.9c1.96-5.23,4.1-10.39,6.57-15.39
		c4.31-8.74,9.24-17.09,16.17-24.06c2.16-2.18,4.58-4.06,7.42-5.32c2.62-1.16,5.33-1.56,8.16-0.89c2.48,0.59,4.28,2.05,5.48,4.28
		c1.66,3.08,2.02,6.44,2.09,9.84c0.09,4.26-0.43,8.48-1.06,12.69c-1.01,6.82-2.04,13.64-3.06,20.46
		c-1.12,7.41-2.29,14.81-3.34,22.22c-0.5,3.54-1.15,7.08-1.07,10.69c0.09,4.38,2.57,5.89,6.45,3.8c2.43-1.31,4.42-3.16,6.27-5.2
		c3.26-3.61,6.19-7.47,8.92-11.49c0.1-0.15,0.17-0.4,0.55-0.25c-0.09,2.44-0.72,4.86-1.01,7.33c-0.03,0.24-0.21,0.47-0.36,0.68
		c-3.99,5.6-8.32,10.9-13.87,15.05c-2.92,2.18-6.12,3.77-9.83,4.04c-3,0.21-5.75-0.44-7.65-2.97c-1.7-2.26-2.19-4.94-2.31-7.71
		c-0.2-4.54,0.39-9.02,1.06-13.49c1.12-7.41,2.27-14.81,3.41-22.22c1.14-7.4,2.34-14.8,3.43-22.21c0.43-2.88,0.89-5.79,0.5-8.73
		c-0.04-0.33-0.06-0.66-0.13-0.99c-0.72-3.36-2.69-4.43-5.85-3.11c-2.45,1.02-4.38,2.76-6.11,4.72c-4.1,4.68-7.31,9.96-10.32,15.38
		c-5.08,9.14-9.26,18.7-13.42,28.27c-0.79,1.81-0.91,3.73-1.21,5.61c-1.27,7.92-2.5,15.85-3.71,23.78
		c-0.17,1.11-0.48,1.71-1.79,1.77c-3.11,0.14-6.21,0.5-9.32,0.68C740.09,155.31,739.32,155.51,738.47,155.54z"/>
	<path class="st2" d="M958.47,52.8c3.84,0.04,7.68,0.09,11.52,0.13c-0.84,2.8-1.16,5.71-1.59,8.58c-1.4,9.31-2.7,18.63-4.07,27.94
		c-1.71,11.67-3.46,23.34-5.16,35.01c-0.78,5.31-1.5,10.63-2.23,15.95c-0.18,1.33-0.08,2.65,0.26,3.96c0.62,2.39,2.38,3.4,4.7,2.58
		c3.11-1.1,5.44-3.31,7.61-5.66c3.25-3.53,6.11-7.36,8.83-11.3c0.19-0.27,0.34-0.58,0.84-0.58c-0.37,2.36-0.74,4.7-1.1,7.05
		c-0.06,0.41-0.23,0.76-0.46,1.09c-4.23,5.92-8.77,11.55-14.86,15.69c-2.04,1.39-4.25,2.42-6.7,2.95
		c-6.46,1.38-10.79-1.68-11.74-8.23c-0.54-3.67-0.24-7.29,0.26-10.9c1.23-8.73,2.57-17.45,3.81-26.17c0.06-0.43,0.6-1.17-0.1-1.38
		c-0.89-0.26-0.78,0.75-0.94,1.21c-3.16,8.92-6.95,17.55-11.89,25.64c-3.09,5.07-6.55,9.87-10.88,13.97
		c-2.48,2.35-5.17,4.38-8.46,5.49c-4.69,1.58-9.94,0.37-12.82-2.99c-1.41-1.64-2.33-3.54-2.99-5.59c-1.11-3.44-1.51-6.99-1.62-10.59
		c-0.41-13.16,2.8-25.53,8.04-37.47c3.6-8.21,8.18-15.83,14.16-22.53c3.6-4.04,7.56-7.67,12.52-10.07c3.59-1.74,7.4-2.49,11.3-2.96
		c3.24-0.39,6.48-0.61,9.74-0.5c0.94,0.03,1.37-0.21,1.59-1.24c0.61-2.86,1.39-5.67,2.11-8.5C958.42,53.26,958.4,53.01,958.47,52.8z
		 M912.09,130.45c0,0.93-0.04,1.87,0.01,2.8c0.05,0.99,0.15,1.98,0.31,2.96c0.28,1.84,0.61,3.67,1.55,5.33
		c1.32,2.32,3.31,3.06,5.73,2.02c1.54-0.66,2.85-1.68,4.07-2.84c3.54-3.37,6.39-7.31,9.11-11.34c6.72-9.96,12.15-20.6,16.71-31.7
		c0.5-1.22,1.1-2.4,1.29-3.75c0.75-5.32,1.58-10.62,2.38-15.93c0.29-1.97,0.29-1.96-1.42-2.87c-3.07-1.65-6.33-2.75-9.76-3.34
		c-5.68-0.98-10.57,0.45-14.38,4.9c-2.13,2.49-3.86,5.25-5.21,8.24c-2.93,6.5-4.98,13.3-6.77,20.18
		C913.55,113.4,912.25,121.84,912.09,130.45z"/>
	<path class="st2" d="M636.85,129.07c-0.41,2.62-0.79,5.03-1.16,7.44c-0.07,0.48-0.31,0.88-0.59,1.25
		c-3.78,5.08-7.68,10.05-12.71,13.98c-3.07,2.41-6.39,4.31-10.38,4.69c-5.28,0.49-8.69-1.92-9.9-7.1c-0.72-3.07-0.68-6.21-0.37-9.32
		c0.72-7.12,1.94-14.18,3-21.26c0.36-2.42,0.78-4.84,1.12-7.27c0.1-0.68,0.42-1.4-0.08-2.19c-0.77,0.28-0.79,0.99-0.99,1.58
		c-2.12,6.1-4.56,12.05-7.46,17.82c-3.45,6.86-7.48,13.35-12.62,19.08c-3.03,3.38-6.37,6.47-10.81,7.96
		c-4.25,1.42-8.29,1.05-11.83-1.85c-2.46-2.02-3.63-4.88-4.42-7.87c-1.14-4.34-1.28-8.77-1.22-13.23
		c0.07-5.47,0.75-10.85,1.95-16.17c1.84-8.15,4.84-15.86,8.83-23.21c2.86-5.28,6.03-10.33,9.91-14.93
		c5.02-5.95,10.9-10.7,18.32-13.35c3.53-1.26,7.15-2.03,10.91-2c3.6,0.02,7.2,0,10.79,0.16c3.04,0.13,6.06,0.48,9.08,0.73
		c0.32,0.61,0.1,1.11,0.01,1.61c-2,11.43-4.33,22.8-5.9,34.31c-1.52,11.16-3.35,22.28-4.98,33.43c-0.42,2.88-0.89,5.77-0.88,8.71
		c0,0.86,0.04,1.72,0.31,2.56c0.7,2.18,2.3,3.07,4.49,2.42c2.16-0.65,3.87-2.02,5.49-3.53c4.23-3.92,7.56-8.57,10.87-13.24
		C635.88,129.9,636.06,129.44,636.85,129.07z M594.84,71.47c-1.97-0.11-4.94,1.15-7.6,3.39c-2.7,2.28-4.56,5.16-6.2,8.22
		c-2.58,4.84-4.2,10.05-5.77,15.27c-3.53,11.68-5.86,23.54-5.32,35.83c0.12,2.68,0.48,5.31,1.88,7.66c1.26,2.11,3.29,2.72,5.49,1.71
		c1.4-0.64,2.65-1.5,3.77-2.57c3.25-3.09,5.96-6.61,8.5-10.28c6.3-9.11,11.52-18.82,15.92-28.97c1.13-2.6,2.53-5.14,3-7.99
		c0.9-5.49,1.72-11,2.58-16.5c0.11-0.69,0.03-1.21-0.71-1.62C606.02,73.22,601.42,71.64,594.84,71.47z"/>
	<path class="st2" d="M1054.32,64.16c-1.48,8.09-3,16.1-4.4,24.13c-0.88,5.09-1.57,10.22-2.35,15.33
		c-1.02,6.75-2.05,13.5-3.04,20.25c-0.71,4.85-1.41,9.71-2.01,14.58c-0.2,1.64-0.21,3.33-0.14,4.99c0.13,3.1,2.3,4.49,5.24,3.4
		c2.69-1,4.71-2.95,6.65-4.96c3.51-3.65,6.54-7.7,9.35-11.91c0.17-0.26,0.41-0.47,0.89-0.99c-0.1,2.92-0.65,5.36-0.99,7.82
		c-0.02,0.18-0.17,0.35-0.29,0.5c-4.1,5.78-8.56,11.23-14.33,15.43c-3.17,2.3-6.66,3.89-10.72,3.76c-3.81-0.12-6.41-1.97-7.72-5.52
		c-0.58-1.57-0.89-3.19-0.95-4.87c-0.18-4.74,0.37-9.42,1.08-14.08c1.11-7.27,2.22-14.54,3.31-21.81c0.04-0.25-0.03-0.52-0.06-0.84
		c-0.87-0.03-0.88,0.65-1.08,1.17c-1.71,4.75-3.49,9.48-5.62,14.06c-3.77,8.11-8.19,15.84-14.1,22.6c-2.45,2.81-5.13,5.4-8.43,7.27
		c-3.07,1.73-6.32,2.49-9.78,1.8c-4.66-0.92-7.27-4.11-8.8-8.36c-1.07-2.96-1.61-6.05-1.69-9.17c-0.13-5.38-0.1-10.75,0.72-16.11
		c1.2-7.8,3.4-15.29,6.62-22.47c3.28-7.3,7.24-14.2,12.25-20.48c4.33-5.43,9.38-9.98,15.66-13.03c4.71-2.29,9.7-3.6,14.99-3.53
		c3.46,0.04,6.93-0.05,10.38,0.18C1048.07,63.49,1051.19,63.5,1054.32,64.16z M997.65,131.66c-0.09,1.44,0.11,4.15,0.71,6.82
		c0.31,1.37,0.73,2.69,1.63,3.82c1.23,1.56,2.9,2.08,4.77,1.43c1.41-0.49,2.57-1.38,3.69-2.33c2.87-2.42,5.14-5.37,7.33-8.38
		c7.97-10.98,14.17-22.94,19.35-35.46c0.46-1.1,0.98-2.22,1.17-3.37c0.91-5.56,1.67-11.14,2.57-16.71c0.18-1.13-0.21-1.68-1.13-2.15
		c-3.38-1.76-6.9-3.11-10.69-3.63c-4.63-0.63-8.82,0.18-12.38,3.52c-3.13,2.93-5.28,6.48-6.99,10.32
		c-2.73,6.15-4.66,12.57-6.34,19.07C999.17,113.06,997.74,121.62,997.65,131.66z"/>
	<path class="st2" d="M136.36,77.66c5.86-7.09,13.17-11.88,22.2-13.9c2-0.45,4.05-0.7,6.13-0.66c3.66,0.07,7.33,0.03,10.98,0.17
		c2.71,0.1,5.41,0.46,8.12,0.63c1.09,0.07,1.11,0.64,0.95,1.46c-0.71,3.71-1.41,7.43-2.1,11.14c-0.08,0.45-0.11,0.92-0.16,1.38
		c-0.44,0.4-0.46,0.91-0.38,1.45c-0.27,1.51-0.53,3.03-0.8,4.54c-0.04,0.46-0.07,0.92-0.11,1.37c-0.87,2.66-1.07,5.45-1.49,8.19
		c-1.23,7.93-2.43,15.86-3.58,23.79c-1.11,7.61-2.18,15.22-3.17,22.84c-0.19,1.49-0.25,3.05,0.23,4.55c0.69,2.18,2.3,3.08,4.49,2.42
		c2.15-0.65,3.87-2,5.49-3.52c4.2-3.94,7.61-8.52,10.87-13.24c0.29-0.42,0.51-0.92,1.29-1.36c-0.45,2.78-0.86,5.35-1.29,7.91
		c-0.04,0.25-0.21,0.49-0.37,0.7c-4.08,5.7-8.47,11.11-14.23,15.24c-2.68,1.92-5.59,3.33-8.93,3.65c-5.58,0.54-9.18-2.29-10.11-7.82
		c-0.68-4.05-0.36-8.08,0.19-12.1c0.95-6.89,2.02-13.77,3.05-20.65c0.21-1.38,0.47-2.74,0.63-4.12c0.08-0.74,0.36-1.51-0.02-2.44
		c-0.77,0.45-0.83,1.15-1.03,1.72c-2.37,6.64-5.03,13.16-8.33,19.4c-3.9,7.39-8.4,14.35-14.49,20.16c-2.42,2.31-5.1,4.3-8.35,5.29
		c-4.19,1.27-8.15,0.85-11.63-2.05c-1.46-1.22-2.44-2.79-3.21-4.51c-1.11-2.51-1.69-5.17-1.99-7.89c-0.49-4.37-0.41-8.74-0.12-13.13
		c0.77-11.73,4.32-22.64,9.55-33.06c1.43-2.85,3.03-5.61,4.76-8.3c0.32-0.5,0.69-0.98,0.69-1.62c2.78-0.06,5.57-0.14,8.35,0.04
		c-0.3,0.66-0.62,1.31-0.9,1.99c-2.41,5.84-4.19,11.89-5.76,18c-2.4,9.37-3.77,18.86-3.41,28.56c0.1,2.61,0.44,5.16,1.64,7.52
		c1.27,2.49,3.53,3.27,6.02,2.06c1.14-0.55,2.17-1.29,3.12-2.13c3.21-2.84,5.77-6.23,8.23-9.7c6.94-9.8,12.4-20.41,17.27-31.36
		c2.15-4.82,3.09-9.82,3.43-15c0.39-0.39,0.34-0.88,0.31-1.36c0.48-1.49,0.59-3.05,0.75-4.59c0.04-0.45,0.08-0.91,0.11-1.36
		c0.79-2.22,0.21-1.99-0.95-2.63c-3.28-1.8-6.75-3.1-10.47-3.61c-3.4-0.46-6.79-0.42-9.84,1.47c-1.95,1.21-3.93,2.45-4.88,4.72
		c-1.11,0.01-2.21,0.09-3.32,0.03C138.65,77.89,137.46,78.27,136.36,77.66z"/>
	<path class="st2" d="M888.5,92.41c-0.08,12.76-2.86,24.87-8.83,36.19c-3.56,6.74-7.85,12.97-13.4,18.25
		c-4.96,4.72-10.61,8.12-17.51,9.28c-8.45,1.42-13.85-1.35-18.27-8.23c-3.73-5.81-5.17-12.31-5.38-19.12
		c-0.27-8.9,0.91-17.62,3.63-26.11c2.06-6.43,4.95-12.47,8.54-18.17c3.01-4.8,6.39-9.33,10.53-13.24c4.42-4.17,9.36-7.43,15.42-8.69
		c3.7-0.77,7.37-0.88,10.98,0.46c4.13,1.53,6.97,4.56,9.25,8.16c2.6,4.11,3.95,8.67,4.63,13.46
		C888.44,87.23,888.56,89.81,888.5,92.41z M839.28,122.03c-0.05,4.6,0.3,9.16,1.12,13.68c0.65,3.55,1.66,7.01,4.01,9.87
		c2.23,2.72,5.12,3.85,8.64,3.28c3.2-0.51,5.64-2.3,7.7-4.63c2.98-3.37,5.04-7.31,6.8-11.42c4.6-10.72,6.34-22.01,6.72-33.56
		c0.09-2.65-0.01-5.31-0.18-7.97c-0.22-3.39-0.55-6.74-1.28-10.06c-0.68-3.08-1.71-6.03-3.75-8.49c-2.35-2.85-5.37-4-9.06-3.16
		c-3.02,0.68-5.23,2.54-7.14,4.82c-3.46,4.13-5.71,8.94-7.64,13.92C841.01,99.15,839.4,110.46,839.28,122.03z"/>
	<path class="st2" d="M44.86,52.92c3.86-0.12,7.72-0.19,11.58,0.03c-1.53,6.12-2.21,12.39-3.2,18.61
		c-1.93,12.18-3.47,24.41-5.67,36.54c-0.87,4.77-2.12,9.46-3.76,14.03c-2.82,7.84-7.67,14.21-14.1,19.43
		c-0.49,0.4-1.11,0.67-1.55,1.55c0.68,0,1.18,0,1.68,0c5.39,0.04,10.8-0.12,16.18,0.2c5.19,0.3,10.37,0.18,15.55,0.29
		c9.53,0.21,18.22-2.47,25.87-8.29c0.3-0.23,0.57-0.58,1.27-0.52c-0.14,1.25-0.29,2.5-0.41,3.76c-0.16,1.64-0.88,2.95-1.99,4.19
		c-2.85,3.16-5.7,6.31-8.85,9.2c-3.23,2.97-7.04,4.43-11.32,4.81c-3.18,0.28-6.37,0.12-9.54-0.22c-1.52-0.16-3.06-0.05-4.59-0.14
		c-3.91-0.22-7.83-0.27-11.75-0.44c-4.97-0.22-9.94-0.52-14.91-0.75c-3.78-0.18-7.57-0.28-11.35-0.45
		c-3.16-0.14-6.31-0.32-9.63-0.49c0.74-1.72,1.95-2.96,2.91-4.35c1.62-2.35,3.42-4.59,5.05-6.93c0.57-0.81,1.17-1.11,2.13-1.08
		c1.66,0.04,3.31,0.05,4.97-0.22c3.91-0.64,6.74-2.73,8.54-6.18c2.04-3.92,3.07-8.2,3.96-12.49c1.76-8.51,2.77-17.14,4.11-25.72
		c1.6-10.21,2.86-20.48,4.74-30.65c0.75-4.05,1.93-8,3.53-11.81C44.56,54.21,44.9,53.62,44.86,52.92z"/>
	<path class="st2" d="M1156.36,119.29c0,1.83-0.06,3.68,0.01,5.52c0.17,4.46,0.58,8.88,2.13,13.12c0.81,2.21,1.88,4.27,3.65,5.87
		c2.51,2.28,5.47,3.06,8.82,2.75c6.54-0.62,11.97-3.77,17.17-7.43c3.21-2.26,6.25-4.74,9.09-7.45c0.13-0.13,0.34-0.18,0.73-0.37
		c-0.29,2.29-0.54,4.42-0.85,6.53c-0.04,0.28-0.36,0.55-0.6,0.77c-5.26,4.71-10.68,9.21-16.85,12.71c-4.3,2.44-8.8,4.43-13.75,5.03
		c-8.5,1.03-14.38-2.47-18.65-10.11c-2.67-4.78-3.81-9.99-4.16-15.44c-0.8-12.38,1.46-24.19,6.46-35.48
		c4.07-9.2,9.37-17.61,16.67-24.63c3.93-3.78,8.39-6.72,13.79-8.02c2.29-0.55,4.6-0.83,6.92-0.55c3.47,0.41,5.96,2.45,7.84,5.29
		c2.08,3.13,2.94,6.69,3.16,10.36c0.35,5.84-0.5,11.53-2.87,16.93c-2.67,6.11-6.81,11.06-11.98,15.2
		c-6.78,5.43-14.48,8.54-23.19,9.03C1158.77,118.96,1157.66,119.14,1156.36,119.29z M1156.62,113.56c1.47,0.24,2.76-0.13,4.05-0.39
		c6.18-1.23,11.85-3.58,16.51-7.92c5.23-4.88,8.08-10.98,8.72-18.08c0.34-3.78,0.39-7.58-0.68-11.29c-1.36-4.73-5.22-6.42-9.66-4.3
		c-2.85,1.36-4.97,3.54-6.76,6.05c-4.26,5.96-7.2,12.54-9.23,19.56C1158.03,102.51,1157.05,107.92,1156.62,113.56z"/>
	<path class="st2" d="M348.74,77.93c4.15-5.51,8.89-10.36,15.16-13.47c3.56-1.76,7.35-2.63,11.33-2.4c3.16,0.18,5.65,1.67,7.58,4.16
		c2.66,3.43,3.76,7.38,4.01,11.64c-4.13,0.18-8.26,0.12-12.39,0.03c-0.19-4.65-3.02-7.47-7.18-7.15c-1.14,0.09-2.22,0.45-3.2,1
		c-2.64,1.49-4.79,3.53-6.38,6.13c-0.52,0.29-0.86,0.71-0.94,1.32c-1.2,1.4-2.16,2.93-2.72,4.69c-0.52,0.32-0.83,0.75-0.79,1.39
		c-0.35,0.64-0.73,1.26-1.03,1.92c-3.25,7.19-5.33,14.7-6.23,22.54c-0.14,1.24-0.93,2.82-0.17,3.62c0.9,0.96,2.51,0.06,3.76-0.19
		c7.14-1.4,13.5-4.3,18.43-9.87c4.54-5.14,6.81-11.14,6.86-18c3.91-0.09,7.81-0.17,11.72,0.05c-0.9,7.06-3.78,13.25-8.4,18.61
		c-6.36,7.37-14.22,12.3-23.83,14.28c-2.61,0.54-5.26,0.64-7.9,0.89c-0.67,0.06-1.13,0.09-1.13,0.96
		c-0.05,6.53,0.08,13.04,2.7,19.19c1.94,4.56,5.38,7.25,10.41,7.38c3,0.08,5.91-0.71,8.7-1.88c5.83-2.45,10.89-6.08,15.69-10.12
		c1.26-1.06,2.49-2.16,3.97-3.45c-0.02,2.41-0.49,4.49-0.84,6.57c-0.06,0.34-0.42,0.67-0.71,0.93c-6.9,6.31-14.15,12.1-22.94,15.62
		c-3.79,1.52-7.72,2.45-11.86,2.1c-5.09-0.42-9-2.89-12.07-6.89c-3.51-4.56-5.35-9.79-6-15.41c-1.53-13.29,0.63-26.06,5.88-38.33
		c1.54-3.61,3.51-7,5.31-10.48c0.43-0.36,0.69-0.84,0.89-1.35c1.18-1.46,2.18-3.03,3.09-4.67
		C348.05,78.95,348.54,78.57,348.74,77.93z"/>
	<path class="st2" d="M1064.93,89.41c0.19-1.25,0.48-2.48,0.56-3.74c0.14-1.99,0.87-3.66,2.06-5.27c3.59-4.82,7.42-9.41,12.02-13.29
		c2.76-2.33,5.78-4.21,9.45-4.87c5.27-0.95,8.81,1.38,10.15,5.75c1.06,3.45,1.42,6.99,1,10.61c-0.24,2.04-0.21,4.1-0.45,6.15
		c-0.74,6.26-1.83,12.46-2.72,18.69c-0.27,1.87-0.72,3.72-0.69,6.04c0.6-0.83,0.76-1.43,0.98-2.02c2.79-7.41,5.9-14.68,9.88-21.54
		c3.65-6.29,7.72-12.28,12.96-17.38c2.54-2.47,5.31-4.65,8.73-5.8c3.88-1.3,7.57-0.87,11.09,1.24c0.82,0.49,0.91,0.93,0.44,1.75
		c-2.44,4.35-4.82,8.73-7.23,13.09c-0.63,1.15-0.69,1.17-1.76,0.32c-4.05-3.22-6.85-3.56-11.88,0.7c-3.53,2.99-6.21,6.74-8.67,10.61
		c-6.52,10.24-11.51,21.26-16.38,32.33c-0.79,1.79-0.92,3.72-1.2,5.62c-1.24,8.26-2.48,16.52-3.72,24.78
		c-0.12,0.77-0.32,1.29-1.33,1.34c-3.24,0.18-6.47,0.53-9.71,0.74c-0.78,0.05-1.56,0.2-2.29,0.27c-0.54-0.62-0.24-1.24-0.14-1.79
		c1.38-7.7,2.87-15.39,4.18-23.1c0.94-5.49,1.65-11.01,2.47-16.52c1.3-8.72,2.66-17.43,3.9-26.16c0.42-2.95,0.67-5.93,0.83-8.91
		c0.09-1.71-0.09-3.46-0.7-5.1c-0.83-2.23-2.34-2.92-4.6-2.17c-2.14,0.71-3.83,2.1-5.44,3.61c-4,3.77-7.1,8.26-10.24,12.72
		c-0.37,0.53-0.58,1.21-1.21,1.55C1065.17,89.59,1065.05,89.5,1064.93,89.41z"/>
	<path class="st2" d="M200,77.87c2.06-2.42,4.01-4.93,6.27-7.18c3.12-3.1,6.35-6.05,10.53-7.67c2.25-0.87,4.55-1.28,6.99-0.78
		c2.72,0.55,4.44,2.18,5.55,4.62c1.26,2.78,1.44,5.75,1.55,8.74c0.03,0.73,0.03,1.46,0.05,2.19c-0.17,0.49-0.19,0.98-0.13,1.49
		c-0.28,1.52-0.38,3.06-0.35,4.6c-0.01,0.47-0.03,0.94-0.04,1.42c-0.1,0.25-0.26,0.48-0.29,0.74c-0.77,6.45-1.9,12.84-2.83,19.26
		c-0.18,1.24-0.58,2.49-0.43,3.86c0.24-0.14,0.4-0.17,0.44-0.26c0.23-0.48,0.45-0.96,0.63-1.46c2.06-5.61,4.4-11.11,7.09-16.45
		c0.95-1.89,2.17-3.65,2.91-5.66c2.33-0.14,4.67-0.18,7,0.02c-4.93,6.8-8.96,14.13-12.64,21.65c-2.6,5.31-5.03,10.7-7.35,16.14
		c-0.9,2.1-0.94,4.4-1.28,6.62c-1.21,7.72-2.41,15.45-3.54,23.19c-0.16,1.12-0.46,1.56-1.66,1.61c-3.24,0.15-6.47,0.54-9.71,0.68
		c-0.72,0.03-1.69,0.85-2.17-0.04c-0.28-0.51,0.11-1.4,0.24-2.11c1.11-6.2,2.21-12.4,3.34-18.59c1.03-5.61,1.81-11.25,2.66-16.89
		c0.86-5.7,1.71-11.4,2.53-17.11c0.72-5.04,1.66-10.06,2.13-15.14c0.04-0.47,0.08-0.95,0.13-1.42c0.5-1.53,0.5-3.1,0.4-4.68
		c-0.01-0.45-0.02-0.91-0.02-1.36c-0.06-1.33-0.11-2.66-0.59-3.91c-0.86-2.23-2.36-2.99-4.58-2.18c-3.21,1.17-5.67,3.35-7.64,6.1
		C203.45,77.98,201.72,78.03,200,77.87z"/>
	<path class="st2" d="M300.02,85.34c-0.79,5.3-1.57,10.61-2.36,15.91c-1.33,8.98-2.68,17.95-3.96,26.93
		c-0.49,3.47-0.83,6.97-1.2,10.46c-0.15,1.4,0.1,2.79,0.44,4.14c0.64,2.5,2.4,3.62,4.95,3.16c1.85-0.33,3.54-1.12,5.12-2.13
		c3.9-2.5,7.15-5.72,10.24-9.13c0.57-0.63,1.1-1.29,2.12-1.94c-0.43,2.65-0.71,5-1.23,7.3c-0.31,1.38-1.48,2.32-2.37,3.38
		c-3.49,4.14-7.27,7.95-12.08,10.58c-2.9,1.58-5.98,2.54-9.32,2.5c-4.61-0.06-7.65-2.16-9.28-6.48c-1.41-3.74-1.65-7.66-1.4-11.58
		c0.22-3.5,0.54-6.99,1.09-10.47c1.18-7.52,2.28-15.06,3.42-22.59c0.88-5.83,1.75-11.66,2.63-17.49c0.13-0.85,0.23-1.7,0.34-2.55
		C291.46,85.18,295.74,85.17,300.02,85.34z"/>
	<path class="st3" d="M557.99,45.56c-0.03,0.54-0.01,1.06,0.56,1.34c-3.14,2.25-6.31,1.85-9.45,0.05c-0.81-0.47-1.52-0.84-2.35-0.2
		c-0.84,0.64-2.61,0.22-2.4,2.08c-0.4,0.15-0.66,0.43-0.79,0.83c-0.24,0.01-0.52-0.26-0.72,0.01c-0.6,0.81-0.97,1.68-0.95,2.75
		c0.05,1.84,0.16,3.71-0.1,5.52c-0.27,1.9-0.05,3.83-0.53,5.7c-0.08,0.32,0.04,0.66,0.38,0.85c0.06,0,0.13,0.02,0.18,0
		c3.06-1.78,5.8-4.17,9.41-4.93c0.98-0.21,1.53-0.95,1.89-1.88c0.66-1.7,0.12-3.26-0.44-4.83c0.67-0.09,1.32-0.04,1.97,0.13
		c-0.67,1.09-0.18,2.17-0.02,3.27c0.29,2.01,1.23,3.91,0.96,6.03c-0.24,1.98,0.13,4.2-0.68,5.89c-0.96,2-1.19,4.24-2.4,6.1
		c-0.18,0.28-0.08,0.65,0.27,0.85c0.4,0.23,0.79,0.49,1.21,0.68c1.35,0.6,1.79,0.38,2.37-1.02c1.1-2.65,1.5-5.47,2.06-8.25
		c0.73-3.62,0.05-7.26,0.23-10.88c0.64-0.36,0.59-0.98,0.44-1.52c-0.16-0.6-0.51-0.38-0.8-0.04c-0.2-0.36-0.41-0.73-0.61-1.09
		c0.64-0.16,1.29-0.29,1.96-0.16c-0.53,0.67,0.11,1.26,0.17,1.88c0.38,4.26,0.02,8.51-0.23,12.75c-1.13,1.96-0.53,4.29-1.31,6.31
		c-0.41,1.04-0.95,2.01-1.2,3.13c-0.22,0.97,0.07,1.46,0.95,1.86c1.4,0.63,2.19,2.05,2.08,3.47c-0.1,1.32-0.8,2.08-2.14,2.15
		c-0.86,0.05-1.74,0.04-2.59-0.07c-1.43-0.2-2.47,0.29-3.16,1.54c-0.75,1.37-1.84,2.44-3.01,3.44c-0.35,0.3-0.72,0.66-1.15,0.77
		c-1.62,0.41-2.97,1.41-4.44,2.11c-2.14,1.03-4.19,0.51-6.22,0.23c-1.61-0.22-3.34-3.04-3.35-4.75c0-0.8,0.09-1.6-0.13-2.39
		c-0.01-0.45-0.02-0.89-0.04-1.34c0.41-1.2,0.33-2.47,0.49-3.71c0.05-0.41-0.04-0.79-0.44-1.02c0-0.42,0-0.84,0-1.25
		c0.95-0.07,1.75-0.42,1.77-1.49c0.04-2,1.05-3.68,1.64-5.5c0.26-0.8,0.2-1.4-0.27-2.04c-0.39-0.53-0.76-1.09-1.14-1.63
		c-0.63-0.89-1.03-1.93-1.02-2.96c0.04-2.86-0.25-5.7-0.13-8.56c0.06-1.43,0.76-2.64,0.87-3.99c0.14-1.74,0.99-3.09,1.99-4.44
		c1.26-1.71,1.19-2.21-0.35-3.75c-1.67-1.67-2.86-3.62-3.77-5.77c-0.19-0.44-0.53-0.87-0.2-1.28c0.82-1.03,0.73-2.25,0.85-3.42
		c0.1-0.94,0.42-1.61,1.32-2.04c0.82-0.4,1.32-1.31,2.27-1.56c2.46-0.65,4.76-0.25,6.99,0.95c1.19,0.64,2.44,1.15,3.6,1.9
		c2.44,1.58,4.47,3.46,5.93,5.99C555.68,40.7,557.01,43.04,557.99,45.56z M541.44,40.41c0.51,0.18,0.92,0.5,1.3,0.87
		c0.32,0.31,0.71,0.33,1.1,0.17c0.73-0.3,1.47-0.59,2.17-0.95c0.8-0.42,0.89-0.94,0.27-1.55c-0.51-0.51-1.06-0.98-1.63-1.43
		c-0.88-0.69-1.89-0.56-2.82-0.24c-1,0.34-0.64,1.31-0.68,2.06c-0.02,0.4,0.08,0.78,0.32,1.12c-1.61-0.75-1.63-2.26-1.72-3.7
		c-0.03-0.51,0.35-0.89,0.88-0.92c1.26-0.06,2.63-0.42,3.74,0.23c1.69,1,3.47,2.01,4.62,3.68c1.31,1.9,3,3.52,4,5.64
		c0.48,1,1.24,1.21,2.1,0.84c0.94-0.4,0.94-1.09,0.72-1.98c-0.57-2.31-1.79-4.29-3.08-6.22c-1.42-2.12-3.17-3.94-5.61-4.94
		c-0.75-0.31-1.41-0.79-1.87-1.45c-0.39-0.55-0.88-0.74-1.52-0.79c-1.39-0.1-2.78-0.26-4.18-0.35c-0.72-0.05-1.47-0.11-2.14,0.28
		c-2.22,1.31-3.57,6.19-2.12,8.38c0.83,1.25,1.86,2.39,2.64,3.7c0.16,0.27,0.48,0.46,0.75,0.65c0.89,0.63,1.69,0.61,2.51-0.05
		c0.92-0.74,0.97-1.06,0.41-2.3C541.48,40.94,541.48,40.66,541.44,40.41z M543.15,87.25c0.17-0.61,1.22-0.94,0.83-1.61
		c-0.4-0.69-1.31-0.17-1.98-0.3c-0.06-0.01-0.13,0-0.19,0c-0.51,0.01-0.65,0.31-0.63,0.76c0.05,0.93,0.34,1.09,2.02,1.1
		c0.21,0.71-0.4,0.7-0.78,0.89c-1.73,0.87-2.26,0.6-2.66-1.32c-0.32-1.51,0.01-3.02,0.15-4.49c0.2-2.21,0.24-4.53,1.65-6.45
		c0.38-4.2,3.92-6.43,6-9.57c0.16-0.24,0.59-0.28,0.86-0.45c1-0.63,1.96-1.31,2.97-1.92c0.77-0.47,0.81-1.16,0.72-1.91
		c-0.12-0.92-0.88-0.58-1.41-0.7c-1.12-0.26-2.04,0.07-2.97,0.75c-1.43,1.04-2.44,2.62-4.2,3.25c-0.28,0.1-0.61,0.43-0.66,0.71
		c-0.35,1.8-1.86,2.82-2.8,4.21c-0.38,0.56-0.7,1.11-0.94,1.73c-0.3,0.8-0.48,1.72-1,2.35c-0.67,0.8-0.8,1.63-0.84,2.57
		c-0.04,0.93,0.01,1.87-1.02,2.42c-0.38,0.2-0.27,0.71-0.32,1.1c-0.18,1.51-0.36,3.03-0.58,4.54c-0.27,1.83,0.25,3.5,1.19,5
		c0.39,0.62,1.03,1.28,1.83,1.46c2.45,0.53,4.75-0.15,6.83-1.31c0.82-0.46,1.59-1.21,2.45-1.62c1.33-0.64,2-1.9,3.08-2.77
		c0.52-0.42,0.63-1.15,0.59-1.85c-0.02-0.35-0.14-0.63-0.48-0.8c-1.26-0.65-2.86-0.23-3.61,0.96c-0.96,1.52-2.73,2.08-3.92,3.32
		C543.32,87.33,543.22,87.27,543.15,87.25z M536.37,60.03c-0.19,2.02,0.36,3.94,0.7,5.9c0.14,0.8,0.6,0.92,1.27,0.89
		c0.61-0.02,1.16,0.01,1.35-0.82c0.41-1.75,0.71-3.5,0.58-5.31c-0.27-3.73-0.23-7.47,1.39-10.91c0.84-1.78,1.82-3.64,4.11-4.25
		c0.99-0.26,1.87-0.99,2.78-1.55c0.77-0.48,0.77-1.2,0.43-1.92c-0.39-0.83-1.02-0.98-1.91-0.74c-1.99,0.55-3.28,2.13-4.91,3.2
		c-1.78,1.16-2.35,3.31-3.79,4.76c0.05,1.36-1.41,2.05-1.48,3.39C536.76,55.13,536.55,57.58,536.37,60.03z M556.64,83.25
		c1.6-0.02,2.2-0.45,2.4-1.44c0.19-0.95-0.22-1.69-1.28-2.19c-0.41-0.2-0.85-0.41-1.3-0.46c-2.25-0.26-4.2-1.08-5.71-2.82
		c-0.26-0.3-0.54-0.66-0.97-0.65c-1.07,0.04-1.69-0.62-2.32-1.34c-0.58-0.66-1.22-1.41-2.19-0.98c-0.79,0.35-0.79,1.3-1,2.05
		c-0.09,0.31-0.02,0.66-0.02,0.99c0,0.43,0.16,0.69,0.59,0.91c2.39,1.21,4.47,3.04,7.22,3.54c0.23,0.04,0.51,0.24,0.63,0.44
		C553.64,83.05,555.54,82.66,556.64,83.25z M554.51,66.73c-0.04-1.52-0.35-1.79-1.34-1.51c-0.44,0.12-0.9,0.3-1.26,0.57
		c-1.36,1.02-2.81,1.89-4.33,2.62c-0.71,0.35-1.07,0.97-1.47,1.57c-0.35,0.53-0.28,1.02,0.28,1.36c1.31,0.77,2.61,1.57,3.96,2.26
		c0.91,0.47,1.59,0.1,1.65-0.95c0.05-0.92,0.5-1.59,0.88-2.36C553.52,69.02,554.35,67.79,554.51,66.73z M543.53,83.87
		c0.33,0,0.67,0.01,1,0c1.98-0.08,2.65-1.53,1.77-3.29c-0.71-1.42-1.81-1.27-3-1.25c-1.78,0.04-1.87,0.09-2.09,1.85
		C540.87,83.8,540.92,83.86,543.53,83.87z M551.77,45.84c-0.15-0.6-0.61-0.96-1.16-1.21c-0.51-0.23-1.08-0.4-1.36,0.28
		c-0.29,0.72,0.35,0.89,0.82,1.11c0.52,0.25,1.04,0.72,1.59,0.06C551.71,46.02,551.72,45.95,551.77,45.84z"/>
	<path class="st2" d="M81.97,52.9c0-0.46,0-0.92,0.01-1.39c0.11-1.54,0.16-3.07-0.04-4.61c0.06-0.52,0.05-1.02-0.38-1.4
		c0.17-0.76-0.15-1.46-0.36-2.13c-2.13-6.76-7.54-8.82-12.99-7.56c-4.94,1.14-7.52,5.06-9.04,9.69c-3.33,0.08-6.67,0.19-10-0.05
		c3.96-6.27,8.81-11.62,15.6-14.91c3.88-1.88,8.02-2.81,12.33-2.46c3.43,0.28,6.43,1.86,9.41,3.51c2.18,1.21,3.11,2.55,2.44,5.16
		c-0.72,2.81-0.92,5.74-1.35,8.62c-0.01,0.08-0.01,0.17,0,0.25c-0.44,0.35-0.34,0.83-0.3,1.3c-0.09,1.54-0.72,3.02-0.49,4.59
		c-0.51,0.37-0.37,0.93-0.41,1.43c0.05,0.98-0.15,1.68-1.4,1.57c-0.92-0.09-1.85-0.02-2.76-0.02C81.86,53.94,82.13,53.38,81.97,52.9
		z"/>
	<path class="st3" d="M117.98,44.81c0.8,0.85,1.89,0.56,2.8,0.5c1.47-0.09,2.13,0.66,2.68,1.8c0.16,0.34,0.22,0.59,0,0.9
		c-0.75,1.01-0.87,2.38-2.22,3.09c-1.02,0.54-1.66,1.49-0.95,2.96c0.45,0.95,0.38,2.21,0.35,3.32c-0.08,3.31,0.19,6.73-0.54,9.9
		c-0.61,2.63-0.26,5.51-1.89,7.97c-0.38,0.57-1.12,1.75-0.2,2.72c-0.14,0.3-0.28,0.59-0.42,0.89c-0.89,0.01-1.58-0.65-2.45-0.75
		c-2.03-0.24-3.72-1.32-4.91-2.8c-1.05-1.31-2.5-1.65-3.78-2.39c-0.72-0.42-1.27-0.25-1.9,0.62c-1,1.36-0.55,2.74,0.75,3.69
		c0.42,0.31,0.87,0.56,1.23,0.96c2.29,2.53,5.12,4.16,8.38,5.09c0.44,0.13,0.89,0.29,1.22,0.65c-0.36,0.11-0.77,0.13-0.95,0.54
		c-1.08-0.31-1.75,0.16-2.18,1.12c-0.76,1.68-1.99,3.07-3.5,3.99c-2.06,1.25-4.26,2.41-6.56,3.09c-1.49,0.44-3.3,0.23-4.89-0.21
		c-1.28-0.35-1.92-1.57-2.71-2.54c-0.44-0.54-0.61-1.15-0.6-1.85c0.05-2.92,0-5.83,0.38-8.74c0.11-0.86,0.37-1.53,1.12-1.97
		c0.35,0.49,0.47,1.13,1.03,1.46c-0.29,0.42-0.72,0.72-0.77,1.34c-0.13,1.66-0.32,3.31-0.54,4.96c-0.22,1.71,0.28,3.26,1.14,4.67
		c0.43,0.71,1.11,1.41,1.96,1.6c2.38,0.53,4.64-0.13,6.66-1.25c1.01-0.55,1.95-1.34,2.96-1.96c1.16-0.7,1.91-1.81,2.84-2.75
		c0.58-0.58,0.76-1.5,0.25-2.22c-0.58-0.82-3.23-0.51-3.7,0.47c-0.44,0.92-1.11,1.47-1.96,1.85c-0.45,0.2-0.84,0.41-1.03,0.87
		c-0.58,1.4-2.08,1.48-3.13,2.21c-0.39,0.27-0.75-0.03-1.02-0.35c-0.4-0.49-0.46-1.09-0.58-1.68c-0.2-1.01,0.03-1.99,0.12-2.97
		c0.22-2.54,0.54-5.01,1.4-7.51c1.03-2.98,2.54-5.4,4.57-7.72c1.32-1.51,2.75-2.75,4.43-3.78c0.68-0.41,1.37-1.2,2.03-1.17
		c1.56,0.09,1.58-0.74,1.56-1.83c-0.04-1.63-0.62-2.11-2.05-1.36c-1.9,1.01-4.12,1.39-5.75,2.93c-0.55-0.32-0.52-0.68-0.09-1.09
		c1.23-1.2,2.76-1.82,4.38-2.28c2.47-0.71,3.51-2.45,3-4.94c-0.36-1.77-0.52-1.89-2.35-1.93c-0.4-0.01-0.79-0.06-1.19-0.09
		c-0.14-0.29-0.28-0.29-0.42,0.01c-0.39,0.16-0.79,0.16-1.18,0c0.01-0.71-0.44-1.06-1.01-1.33c0-0.58-1.13-0.72-0.59-1.52
		c2.41,1.18,5.15,0.7,7.67,1.52c2.26,0.74,4.36-0.48,6.41-1.37c0.48-0.21,0.61-0.64,0.53-1.16c-0.21-1.34-0.94-1.96-2.31-1.82
		c-0.52,0.05-1.02,0.24-1.53,0.37C117.89,46.62,117.14,45.71,117.98,44.81z M119.22,58.89c0.09-1.7,0.02-2.93-0.36-4.16
		c-0.44-1.45-1.59-2.24-3.01-1.78c-0.71,0.23-1.12,0.69-0.93,1.51c0.15,0.64,0.31,1.29,0.4,1.94c0.3,2.09,1.18,4.08,0.91,6.26
		c-0.2,1.65-0.37,3.3-0.54,4.95c-0.04,0.4-0.07,0.77-0.32,1.13c-1.09,1.56-1.35,3.41-1.76,5.21c-0.25,1.1,0.08,1.58,1.33,2
		c1.08,0.36,1.5,0.15,1.97-0.95c1.19-2.83,1.6-5.85,2.19-8.83C119.63,63.6,119.45,61.03,119.22,58.89z M115.14,66.36
		c-0.03-1.15-0.44-1.45-1.52-1.1c-0.38,0.12-0.76,0.28-1.08,0.51c-1.42,1.06-2.94,1.94-4.51,2.74c-0.7,0.36-1.01,1.03-1.41,1.64
		c-0.26,0.39-0.23,0.81,0.17,1.05c1.42,0.86,2.84,1.71,4.3,2.49c0.74,0.39,1.47,0.01,1.5-0.75c0.08-1.92,1.46-3.23,2.04-4.9
		C114.82,67.47,115.24,66.99,115.14,66.36z M101.64,83.67c0.04,0.86,0.01,1.74,0.15,2.59c0.15,0.92,0.73,1.19,1.61,0.89
		c0.6-0.21,1.03-0.63,1.28-1.19c0.48-1.05,1.17-1.93,2.01-2.71c0.82-0.76,0.82-1.61,0.26-2.5c-0.49-0.78-0.97-1.57-1.53-2.31
		c-0.99-1.3-2.14-1.15-2.9,0.35C101.74,80.33,101.61,81.98,101.64,83.67z"/>
	<path class="st1" d="M97.26,78.82c-0.56-0.34-0.68-0.98-1.03-1.46c0.15-0.71,0.29-1.41,0.44-2.12c0.52-0.18,0.69-0.43,0.17-0.82
		c0.51-1.32,0.74-2.75,1.51-3.98c0.6-0.32,0.57-0.61-0.05-0.87c-0.93-1.34-2.15-2.51-2.51-4.21c-0.08-0.39-0.19-0.76-0.18-1.16
		c0.04-3.69-0.38-7.37,0.02-11.25c-3.16,0-6.2,0-9.23,0c0.04-0.51-0.1-1.06,0.41-1.43c1.73,0,3.47,0.02,5.2-0.01
		c1.26-0.03,2.78,0.49,3.7-0.23c0.81-0.63,0.96-2.1,1.41-3.19c0.14-0.34,0.62-0.57,0.26-1.16c-3.31,0-6.7,0-10.08,0
		c-0.04-0.46-0.13-0.94,0.3-1.3c0.16-0.02,0.31-0.04,0.47-0.06c3.18,0,6.37,0,9.49,0c0.45-1.26,0.14-2.1-0.65-2.88
		c-0.82-0.79-1.38-1.78-1.87-2.81c-0.14-0.29-0.33-0.6,0.09-0.84c0.15-0.08,0.31-0.15,0.46-0.23c1,1.44,1.86,2.98,3.08,4.27
		c0.69,0.73,1.32,0.96,2.2,0.54c0.18,0.01,0.3-0.06,0.36-0.23c0.35-0.39,0.44-1.07,1.14-1.11c0.01,0.56,0.02,1.13,0.03,1.69
		c-1.47,1.34-2.79,2.79-3.8,4.55c-0.98,1.72-1.57,3.45-1.53,5.45c0.06,3.57-0.33,7.14,0.21,10.7c-0.12,0.49-0.15,0.96,0.28,1.32
		c0.2,0.47,0.3,1.02,0.61,1.41c0.57,0.73,1.17,0.7,1.61-0.2c0.09-0.09,0.18-0.18,0.27-0.28c0.78-0.56,1.78-1.04,0.79-2.24
		c-0.07-0.08-0.06-0.26-0.04-0.39c0.5-2.36-0.29-4.74,0.16-7.1c0.05-0.03,0.14-0.06,0.14-0.1c0-0.1-0.04-0.21-0.06-0.31
		c-0.09-0.41-0.13-0.82,0.02-1.23c0.21-0.24,0.22-0.51,0.15-0.8c-0.08-2.16,0.21-4.22,1.55-6.01c0.17,0.19,0.34,0.39,0.51,0.58
		c0.17,0.76-0.79,1.22-0.51,2.14c1.67,0,3.36,0,5.05,0c0.57,0.27,1.02,0.62,1.01,1.33c-1.65,0.03-3.31,0.1-4.96,0.06
		c-0.98-0.02-1.34,0.24-1.43,1.31c-0.15,1.64-0.11,3.28-0.21,4.92c-0.11,1.81-0.58,3.64-0.24,5.48c0.21,0.37,0.53,0.62,0.94,0.44
		c0.29-0.13,0.26-0.41-0.02-0.61c0.63-1,1.67-1.36,2.72-1.65c0.37-0.1,0.91-0.34,1.14,0.31c-0.14,0.29-0.29,0.57-0.43,0.86
		l0.05-0.08c-0.33,0.2-0.67,0.4-1,0.6c-0.4-0.08-0.75-0.07-0.95,0.36c-1.42,1.45-1.87,3.59-3.47,4.92
		c-1.08,0.89-1.11,2.37-1.89,3.43c-0.2,0.17-0.23,0.38-0.12,0.62c-0.25,0.78-1.16,1.24-1.06,2.19c-0.44,0.56-0.29,1.17-0.17,1.78
		C97.76,78.22,97.71,78.6,97.26,78.82z"/>
	<path class="st1" d="M300.02,85.34c-4.28-0.16-8.57-0.16-12.85,0c-14.08,0.01-28.16,0.01-42.24,0.02c-2.33-0.21-4.67-0.16-7-0.02
		c-2.51-0.01-5.01-0.02-7.52-0.03c0.01-0.47,0.03-0.94,0.04-1.42c0.87,0,1.73,0.01,2.6,0.01c36.26,0,72.52,0,108.77,0
		c0.86,0,1.73,0.05,2.59,0.07c-0.2,0.51-0.47,0.99-0.89,1.35C329.03,85.33,314.53,85.33,300.02,85.34z"/>
	<path class="st1" d="M386.54,85.35c-3.91-0.22-7.81-0.13-11.72-0.05c-7.2-0.01-14.4-0.02-21.6-0.03c-0.03-0.63,0.28-1.07,0.8-1.39
		c34.19,0,68.38,0.01,102.56,0.01c0.87,0,1.73,0.04,2.6,0.06c-0.21,0.6-0.47,1.15-1.15,1.34c-22.96,0-45.93,0-68.89,0.01
		C388.27,85.32,387.41,85.34,386.54,85.35z"/>
	<path class="st1" d="M533.94,83.96c0.01,0.45,0.02,0.89,0.04,1.34c-7.55,0.01-15.1,0.02-22.65,0.03c-0.79,0-1.59,0.03-2.38,0.04
		c-4.29-0.23-8.58-0.11-12.86-0.07c-9.89,0-19.77,0-29.65-0.01c-0.03-0.63,0.29-1.06,0.8-1.39c21.44,0,42.88,0.01,64.33,0.01
		C532.34,83.91,533.14,83.94,533.94,83.96z"/>
	<path class="st1" d="M115.17,84.46c0.19-0.41,0.59-0.44,0.95-0.54c17.42,0,34.84,0,52.26-0.01c0.03,0.48,0.08,0.98-0.32,1.36
		c-0.8,0.01-1.59,0.04-2.39,0.04c-9.09,0.01-18.17,0.02-27.26,0.02c-2.78-0.18-5.57-0.11-8.35-0.04c-3.43,0.01-6.87,0.04-10.3,0.01
		C118.2,85.29,116.65,85.02,115.17,84.46z"/>
	<path class="st1" d="M217.61,83.94c-0.04,0.47-0.08,0.95-0.13,1.42c-6.18,0-12.36,0-18.54,0c-0.98-0.18-1.97-0.19-2.96-0.02
		c-4.93-0.03-9.86-0.07-14.79-0.1c0.04-0.46,0.07-0.92,0.11-1.37c0.93,0.01,1.86,0.03,2.79,0.04
		C195.26,83.92,206.44,83.93,217.61,83.94z"/>
	<path class="st2" d="M195.98,85.34c0.99-0.17,1.97-0.16,2.96,0.02c-1.01,1.52-2.01,3.04-3.2,4.82
		C195.33,88.32,196.19,86.85,195.98,85.34z"/>
	<path class="st3" d="M98.29,69.57c0.62,0.25,0.66,0.54,0.05,0.87C98.33,70.15,98.31,69.86,98.29,69.57z"/>
	<path class="st3" d="M96.84,74.41c0.51,0.39,0.35,0.64-0.17,0.82C96.49,74.91,96.59,74.65,96.84,74.41z"/>
	<path class="st2" d="M1065.29,89.68c-0.1,0.15-0.2,0.3-0.3,0.45c-0.15-0.23-0.19-0.47-0.06-0.72
		C1065.05,89.5,1065.17,89.59,1065.29,89.68z"/>
	<path class="st3" d="M958.47,52.8c-0.07,0.21-0.05,0.46-0.3,0.58c-0.09-0.18-0.18-0.35-0.27-0.53
		C958.09,52.84,958.28,52.82,958.47,52.8z"/>
	<path class="st2" d="M288.33,77.85c0.36-2.35,0.72-4.7,1.12-7.32c-4.81,0-9.47,0-14.53,0c1.57-2.25,2.91-4.12,4.2-6.02
		c0.39-0.57,0.91-0.45,1.42-0.46c2.6-0.01,5.19,0,7.79-0.01c1.98,0,2.01,0,2.32-1.99c0.85-5.5,1.67-11,2.5-16.51
		c0.12-0.79,0.35-1.57,0.36-2.35c0.02-1.92,0.82-2.89,2.78-3.4c3.58-0.93,7.08-2.2,10.92-3.42c-1.34,9.29-2.65,18.36-3.99,27.65
		c7.73,0,15.41,0,23.51,0c-1.2,1.73-2.15,3.13-3.12,4.52c-0.68,0.98-1.19,2.22-2.12,2.86c-0.98,0.68-2.3-0.09-3.47-0.21
		c-4.76-0.52-9.52-0.81-14.31-0.69c-1.51,0.04-1.54,0.03-1.72,1.48c-0.25,1.97-0.81,3.89-0.74,5.9
		C296.93,78.01,292.63,78.04,288.33,77.85z"/>
	<path class="st2" d="M971.55,45.48c-3.25,0.03-6.49,0.05-9.74,0.08c-0.4,0-0.8-0.04-1.1-0.35c1.21-4.46,3.14-8.62,5.53-12.54
		c4.16-6.83,9.35-12.77,15.93-17.39c4.8-3.38,10.06-5.58,15.98-6.2c5.1-0.54,10.05-0.12,14.88,1.37c0.28,0.55-0.09,0.83-0.31,1.12
		c-2.35,3.22-4.71,6.44-7.09,9.65c-0.92,1.24-0.95,1.25-2.35,0.49c-2.93-1.59-5.94-3-9.29-3.43c-5.61-0.73-10.35,0.98-14.09,5.28
		c-2.77,3.18-4.24,7.02-5.58,10.94c-1.08,3.15-1.82,6.38-2.65,9.6C971.56,44.54,971.59,45.02,971.55,45.48z"/>
	<path class="st2" d="M242.8,77.87c2.5-3.26,4.98-6.54,7.97-9.38c2.47-2.35,5.11-4.46,8.35-5.63c3.89-1.41,7.68-1.14,11.25,1.06
		c1.17,0.72,1.18,0.75,0.5,2.01c-1.82,3.39-3.66,6.77-5.48,10.16c-0.31,0.57-0.77,1.11-0.66,1.83c-0.67,0.21-0.9,0.75-1.06,1.36
		c-0.65,1.27-1.24,2.57-2.26,3.96c-0.31-1.61-0.48-2.94-1.35-4c-0.04-0.65-0.4-1.08-0.96-1.36c-0.57-0.83-1.41-1.06-2.36-1.14
		c-1.37-0.12-2.52,0.48-3.67,1.07C249.65,78.1,246.22,77.98,242.8,77.87z"/>
	<path class="st0" d="M100.86,43.63c-0.88,0.42-1.52,0.18-2.2-0.54c-1.22-1.3-2.08-2.83-3.08-4.27c-0.02-1.47-0.04-2.94-0.06-4.41
		c0.12-0.88,0.52-1.64,0.97-2.39c0.22-0.14,0.46-0.26,0.67-0.41c0.33-0.24,0.66-0.61,0.43-0.99c-0.3-0.48-0.78-0.39-1.18-0.02
		c0.39-0.61,0.91-0.77,1.57-0.46c0,0,0.04,0.18,0.04,0.18l0.18,0.05c0.74,0.27,1.48,0.13,2.22,0.02c0.53,0.16,1.07,0.22,1.62,0.16
		c0.63,0.33,1.29,0.33,1.96,0.23c1.41,0.09,2.03,1.46,3.16,1.97c2.21,0.99,3.81,2.67,5.32,4.45c1.69,1.99,2.99,4.24,4,6.64
		c0.42,0.99-0.03,1.67-1.1,1.73c-0.66,0.04-1.33-0.02-2-0.03c-0.43-0.67-0.48-1.51-1.04-2.14c-1.76-1.99-2.9-4.47-5.34-5.96
		c-1.46-0.89-2.71-1.77-4.5-1.67c-2.12,0.12-2.62,0.67-2.05,2.7c0.29,1.02,0.69,2.02,1.43,2.82c0.28,0.3,0.55,0.57,0.47,1.02
		c-0.7,0.04-0.78,0.72-1.14,1.11C101.03,43.37,100.92,43.45,100.86,43.63z"/>
	<path class="st1" d="M374.43,77.9c4.13,0.09,8.26,0.15,12.39-0.03c24.82,0.01,49.64,0.01,74.46,0.02c0.79,0,1.59,0.07,2.38,0.1
		c-0.11,0.64-0.5,1.06-1.05,1.36c-0.87-0.02-1.73-0.06-2.6-0.06c-33.63,0-67.26,0-100.89-0.01c-0.8,0-1.59-0.06-2.39-0.09
		c0.08-0.61,0.42-1.03,0.94-1.32C363.26,77.89,368.85,77.89,374.43,77.9z"/>
	<path class="st1" d="M263.67,79.27c0.16-0.6,0.4-1.15,1.06-1.36c7.86-0.02,15.73-0.04,23.6-0.06c4.3,0.19,8.6,0.16,12.9,0.01
		c14.97,0.01,29.95,0.01,44.92,0.02c0.86,0,1.73,0.03,2.59,0.04c-0.2,0.64-0.69,1.03-1.22,1.38c-7.92-0.01-15.84-0.01-23.76-0.02
		C303.73,79.29,283.7,79.28,263.67,79.27z"/>
	<path class="st1" d="M533.99,77.97c0,0.42,0,0.84,0,1.25c-0.46,0.02-0.93,0.07-1.39,0.07c-20.36,0-40.73,0-61.09,0
		c-0.53,0-1.06-0.06-1.59-0.1c0.1-0.6,0.45-1,0.96-1.3c8.86-0.02,17.73-0.03,26.59-0.05c4.22,0.2,8.45,0.19,12.67,0
		c7.22,0.01,14.45,0.02,21.67,0.04C532.54,77.89,533.27,77.94,533.99,77.97z"/>
	<path class="st1" d="M117.59,78.86c0.14-0.3,0.28-0.59,0.42-0.89c5.33-0.03,10.66-0.06,15.99-0.09c0.79-0.01,1.6,0.12,2.36-0.22
		c1.1,0.61,2.29,0.22,3.44,0.29c1.1,0.06,2.21-0.01,3.32-0.03c8.71,0.01,17.42,0.03,26.13,0.04c-0.04,0.45-0.08,0.91-0.11,1.36
		c-0.86-0.01-1.73-0.02-2.59-0.02c-15.35,0-30.7,0-46.05-0.01C119.51,79.29,118.49,79.45,117.59,78.86z"/>
	<path class="st1" d="M98.19,30.37l-0.18-0.05c0,0-0.04-0.18-0.04-0.18c-0.37-0.76,0.37-0.76,0.68-0.8
		c2.53-0.33,5.02-0.26,7.35,0.94c5.15,2.64,8.75,6.76,11.23,11.91c0.39,0.81,0.74,1.69,0.74,2.63c-0.85,0.91-0.1,1.81,0,2.72
		c-0.22,0.2-0.47,0.24-0.74,0.17c-1.57-0.87-3.17-1.21-4.83-0.26c-0.25-0.01-0.51-0.03-0.76-0.04c-0.27-0.76-0.87-0.59-1.44-0.5
		c-1.13-0.25-2.06,0.04-2.79,0.97c-0.28,0.36-0.68,0.61-1.03,0.91c-0.13-0.01-0.25,0-0.38,0.03l-0.01-0.02
		c0.01-0.23-0.1-0.36-0.32-0.4c0,0-0.08-0.06-0.08-0.06c-0.35-0.68-1.39-0.05-1.67-0.87c0.21-0.52,0.33-1.12,1.06-1.18
		c0.26,0.08,0.47,0.02,0.63-0.2c1.11-0.62,2.23-1.24,3.34-1.86c0.24,0.24,0.49,0.48,0.73,0.72c0.46,0.75,1.21,0.67,1.93,0.67
		c0.59-0.03,1.17-0.06,1.76-0.09c0.67,0.01,1.33,0.07,2,0.03c1.06-0.06,1.52-0.73,1.1-1.73c-1.02-2.4-2.32-4.65-4-6.64
		c-1.51-1.78-3.11-3.46-5.32-4.45c-1.13-0.5-1.75-1.88-3.16-1.97c-0.6-0.54-1.27-0.46-1.96-0.23c-0.55,0.06-1.09,0-1.62-0.16
		C99.68,29.76,98.94,29.9,98.19,30.37z"/>
	<path class="st1" d="M200,77.87c1.72,0.16,3.45,0.11,5.18,0.03c4.27,0,8.54,0,12.81,0c0.01,0.45,0.02,0.91,0.02,1.36
		c-0.86,0.01-1.73,0.03-2.59,0.03c-11.11,0.01-22.21,0.02-33.32,0.03c-0.08-0.54-0.06-1.05,0.38-1.45
		C188.32,77.88,194.16,77.88,200,77.87z"/>
	<path class="st1" d="M259.1,77.88c0.56,0.28,0.92,0.71,0.96,1.36c-9.75,0.02-19.5,0.03-29.25,0.05c-0.06-0.51-0.04-1.01,0.13-1.49
		c3.95,0.03,7.9,0.05,11.86,0.08c3.42,0.11,6.85,0.23,10.27-0.07C255.08,77.83,257.09,77.85,259.1,77.88z"/>
	<path class="st1" d="M96.49,32.01c-0.45,0.74-0.84,1.51-0.97,2.39c-0.71,1.49-0.14,3.1-0.43,4.63c-1.03-0.24-1.06-1.36-1.04-1.89
		c0.07-1.84-0.3-3.86,1.25-5.37C95.7,31.85,96.09,31.93,96.49,32.01z"/>
	<path class="st3" d="M96.49,32.01c-0.39-0.08-0.79-0.16-1.18-0.24c0.24-0.51,0.68-0.83,1.1-1.18c0.4-0.37,0.88-0.46,1.18,0.02
		c0.24,0.38-0.1,0.74-0.43,0.99C96.95,31.75,96.71,31.88,96.49,32.01z"/>
	<path class="st3" d="M95.09,39.03c0.29-1.53-0.28-3.14,0.43-4.63c0.02,1.47,0.04,2.94,0.06,4.41c-0.15,0.08-0.31,0.15-0.46,0.23
		C95.12,39.04,95.09,39.03,95.09,39.03z"/>
	<path class="st3" d="M88.06,45.56c-0.16,0.02-0.31,0.04-0.47,0.06c-0.01-0.08-0.01-0.17,0-0.25C87.75,45.44,87.91,45.5,88.06,45.56
		z"/>
	<path class="st0" d="M557.72,53c0.2,0.36,0.41,0.73,0.61,1.09c-0.06,0.56-0.07,1.11,0.36,1.56c-0.18,3.62,0.49,7.26-0.23,10.88
		c-0.56,2.78-0.97,5.6-2.06,8.25c-0.58,1.4-1.02,1.62-2.37,1.02c-0.42-0.19-0.81-0.45-1.21-0.68c-0.35-0.2-0.45-0.57-0.27-0.85
		c1.22-1.86,1.45-4.11,2.4-6.1c0.81-1.68,0.43-3.91,0.68-5.89c0.26-2.12-0.68-4.02-0.96-6.03c-0.16-1.1-0.65-2.18,0.02-3.27
		c0.3-0.08,0.61-0.16,0.91-0.24c0.14,0,0.29,0.01,0.43,0.01C556.58,52.84,557.15,52.92,557.72,53z"/>
	<path class="st3" d="M556.02,52.77c-0.14,0-0.29-0.01-0.43-0.01C555.74,52.5,555.88,52.5,556.02,52.77z"/>
	<path class="st0" d="M356.74,79.2c0.8,0.03,1.59,0.09,2.39,0.09c33.63,0,67.26,0,100.89,0.01c0.86,0,1.73,0.04,2.6,0.06
		c-1.15,1.54-2.29,3.08-3.44,4.61c-0.87-0.02-1.73-0.06-2.6-0.06c-34.19-0.01-68.38-0.01-102.56-0.01
		C354.58,82.13,355.54,80.6,356.74,79.2z"/>
	<path class="st0" d="M469.92,79.19c0.53,0.03,1.06,0.1,1.59,0.1c20.36,0.01,40.73,0,61.09,0c0.46,0,0.93-0.04,1.39-0.07
		c0.4,0.23,0.49,0.61,0.44,1.02c-0.16,1.24-0.08,2.5-0.49,3.71c-0.8-0.02-1.6-0.05-2.4-0.05c-21.44-0.01-42.88-0.01-64.33-0.01
		C467.65,82.06,468.7,80.58,469.92,79.19z"/>
	<path class="st0" d="M117.59,78.86c0.9,0.59,1.92,0.43,2.91,0.43c15.35,0.01,30.7,0,46.05,0.01c0.86,0,1.73,0.02,2.59,0.02
		c-0.16,1.55-0.27,3.1-0.75,4.59c-17.42,0-34.84,0-52.26,0.01c-0.33-0.36-0.77-0.52-1.22-0.65c-3.26-0.93-6.09-2.56-8.38-5.09
		c-0.36-0.39-0.81-0.65-1.23-0.96c-1.3-0.95-1.74-2.33-0.75-3.69c0.63-0.87,1.19-1.04,1.9-0.62c1.28,0.74,2.72,1.08,3.78,2.39
		c1.19,1.48,2.88,2.57,4.91,2.8C116,78.21,116.69,78.87,117.59,78.86z"/>
	<path class="st0" d="M182.09,79.32c11.11-0.01,22.21-0.02,33.32-0.03c0.86,0,1.73-0.02,2.59-0.03c0.1,1.58,0.1,3.15-0.4,4.68
		c-11.17-0.01-22.35-0.02-33.52-0.04c-0.93,0-1.86-0.02-2.79-0.04C181.56,82.35,181.83,80.84,182.09,79.32z"/>
	<path class="st0" d="M230.81,79.29c9.75-0.02,19.5-0.03,29.25-0.05c0.87,1.06,1.03,2.38,1.35,4c1.02-1.39,1.61-2.69,2.26-3.96
		c20.03,0.01,40.06,0.01,60.1,0.02c7.92,0,15.84,0.01,23.76,0.02c-0.91,1.63-1.92,3.21-3.09,4.67c-0.86-0.02-1.73-0.07-2.59-0.07
		c-36.26,0-72.52,0-108.77,0c-0.87,0-1.73-0.01-2.6-0.01C230.43,82.35,230.53,80.81,230.81,79.29z"/>
	<path class="st0" d="M543.15,87.25c0.06,0.02,0.17,0.07,0.19,0.05c1.19-1.25,2.96-1.81,3.92-3.32c0.75-1.19,2.35-1.61,3.61-0.96
		c0.34,0.18,0.46,0.45,0.48,0.8c0.04,0.69-0.07,1.43-0.59,1.85c-1.08,0.87-1.75,2.13-3.08,2.77c-0.87,0.42-1.63,1.17-2.45,1.62
		c-2.08,1.16-4.38,1.84-6.83,1.31c-0.81-0.17-1.44-0.84-1.83-1.46c-0.94-1.5-1.46-3.17-1.19-5c0.22-1.51,0.4-3.02,0.58-4.54
		c0.05-0.39-0.06-0.89,0.32-1.1c1.02-0.55,0.97-1.5,1.02-2.42c0.04-0.94,0.17-1.77,0.84-2.57c0.52-0.62,0.7-1.55,1-2.35
		c0.24-0.62,0.56-1.17,0.94-1.73c0.94-1.39,2.45-2.42,2.8-4.21c0.05-0.28,0.38-0.61,0.66-0.71c1.75-0.64,2.77-2.21,4.2-3.25
		c0.93-0.68,1.85-1.01,2.97-0.75c0.53,0.12,1.29-0.21,1.41,0.7c0.09,0.75,0.05,1.44-0.72,1.91c-1.01,0.61-1.98,1.29-2.97,1.92
		c-0.27,0.17-0.7,0.22-0.86,0.45c-2.08,3.14-5.62,5.37-6,9.57c-1.41,1.93-1.45,4.24-1.65,6.45c-0.13,1.48-0.46,2.98-0.15,4.49
		c0.4,1.92,0.94,2.19,2.66,1.32c0.38-0.19,0.99-0.18,0.78-0.89L543.15,87.25z"/>
	<path class="st0" d="M541.44,40.41c0.05,0.26,0.04,0.54,0.15,0.77c0.56,1.24,0.51,1.56-0.41,2.3c-0.82,0.66-1.62,0.68-2.51,0.05
		c-0.27-0.19-0.58-0.38-0.75-0.65c-0.78-1.31-1.81-2.44-2.64-3.7c-1.44-2.19-0.09-7.07,2.12-8.38c0.67-0.4,1.42-0.33,2.14-0.28
		c1.39,0.09,2.78,0.25,4.18,0.35c0.64,0.04,1.13,0.24,1.52,0.79c0.47,0.66,1.12,1.14,1.87,1.45c2.44,1,4.19,2.82,5.61,4.94
		c1.29,1.93,2.51,3.91,3.08,6.22c0.22,0.89,0.22,1.58-0.72,1.98c-0.85,0.36-1.62,0.16-2.1-0.84c-1.01-2.13-2.7-3.74-4-5.64
		c-1.15-1.68-2.93-2.68-4.62-3.68c-1.1-0.65-2.48-0.3-3.74-0.23c-0.53,0.03-0.91,0.4-0.88,0.92c0.09,1.44,0.11,2.95,1.72,3.7
		C541.47,40.46,541.44,40.41,541.44,40.41z"/>
	<path class="st0" d="M536.37,60.03c0.18-2.45,0.39-4.9,0.51-7.36c0.07-1.34,1.53-2.02,1.48-3.39c1.44-1.44,2.01-3.59,3.79-4.76
		c1.63-1.07,2.92-2.65,4.91-3.2c0.89-0.25,1.51-0.09,1.91,0.74c0.35,0.73,0.34,1.45-0.43,1.92c-0.91,0.56-1.78,1.29-2.78,1.55
		c-2.28,0.6-3.27,2.47-4.11,4.25c-1.62,3.44-1.66,7.18-1.39,10.91c0.13,1.81-0.17,3.56-0.58,5.31c-0.19,0.83-0.74,0.79-1.35,0.82
		c-0.67,0.03-1.13-0.09-1.27-0.89C536.73,63.97,536.18,62.05,536.37,60.03z"/>
	<path class="st0" d="M556.64,83.25c-1.11-0.59-3-0.2-3.95-1.95c-0.11-0.2-0.39-0.4-0.63-0.44c-2.75-0.5-4.83-2.33-7.22-3.54
		c-0.43-0.22-0.59-0.48-0.59-0.91c0-0.33-0.07-0.69,0.02-0.99c0.21-0.74,0.21-1.7,1-2.05c0.97-0.43,1.61,0.32,2.19,0.98
		c0.63,0.72,1.25,1.38,2.32,1.34c0.43-0.01,0.71,0.35,0.97,0.65c1.51,1.74,3.47,2.56,5.71,2.82c0.45,0.05,0.89,0.26,1.3,0.46
		c1.06,0.51,1.47,1.24,1.28,2.19C558.85,82.8,558.24,83.23,556.64,83.25z"/>
	<path class="st0" d="M543.53,83.87c-2.61-0.01-2.66-0.07-2.32-2.69c0.23-1.75,0.31-1.81,2.09-1.85c1.19-0.02,2.28-0.18,3,1.25
		c0.88,1.76,0.22,3.21-1.77,3.29C544.19,83.88,543.86,83.87,543.53,83.87z"/>
	<path class="st1" d="M558.69,55.66c-0.43-0.45-0.42-1-0.36-1.56c0.29-0.34,0.64-0.56,0.8,0.04
		C559.28,54.68,559.33,55.29,558.69,55.66z"/>
	<path class="st0" d="M87.29,46.92c3.38,0,6.76,0,10.08,0c0.36,0.59-0.12,0.82-0.26,1.16c-0.45,1.09-0.6,2.56-1.41,3.19
		c-0.92,0.72-2.44,0.2-3.7,0.23c-1.73,0.04-3.46,0.01-5.2,0.01C86.58,49.94,87.21,48.46,87.29,46.92z"/>
	<path class="st0" d="M97.26,78.82c0.45-0.22,0.51-0.6,0.43-1.04c0.33-0.57,0.32-1.17,0.17-1.78c-0.1-0.95,0.81-1.41,1.06-2.19
		c0.18-0.18,0.19-0.39,0.13-0.62c0.78-1.06,0.82-2.54,1.89-3.43c1.61-1.33,2.05-3.46,3.47-4.92c0.35-0.02,0.73,0,0.95-0.36
		c0.33-0.2,0.67-0.4,1-0.6c0,0-0.05,0.08-0.05,0.08c0.14-0.29,0.29-0.57,0.43-0.86c0,0-0.09,0.08-0.09,0.08
		c1.63-1.53,3.85-1.92,5.75-2.93c1.42-0.75,2.01-0.28,2.05,1.36c0.03,1.1,0,1.92-1.56,1.83c-0.65-0.04-1.35,0.75-2.03,1.17
		c-1.68,1.03-3.11,2.27-4.43,3.78c-2.03,2.33-3.54,4.75-4.57,7.72c-0.87,2.5-1.19,4.97-1.4,7.51c-0.08,0.98-0.32,1.97-0.12,2.97
		c0.12,0.59,0.17,1.19,0.58,1.68c0.27,0.33,0.63,0.62,1.02,0.35c1.05-0.73,2.55-0.81,3.13-2.21c0.19-0.46,0.58-0.67,1.03-0.87
		c0.85-0.38,1.52-0.93,1.96-1.85c0.47-0.98,3.11-1.29,3.7-0.47c0.51,0.72,0.33,1.64-0.25,2.22c-0.92,0.93-1.68,2.04-2.84,2.75
		c-1.01,0.61-1.96,1.4-2.96,1.96c-2.03,1.12-4.29,1.78-6.66,1.25c-0.86-0.19-1.53-0.89-1.96-1.6c-0.86-1.41-1.36-2.96-1.14-4.67
		c0.22-1.65,0.41-3.3,0.54-4.96C96.54,79.54,96.97,79.24,97.26,78.82z"/>
	<path class="st0" d="M119.22,58.89c0.24,2.14,0.41,4.71-0.1,7.28c-0.59,2.98-1,6-2.19,8.83c-0.47,1.1-0.89,1.31-1.97,0.95
		c-1.26-0.42-1.58-0.9-1.33-2c0.41-1.8,0.67-3.65,1.76-5.21c0.25-0.36,0.28-0.73,0.32-1.13c0.17-1.65,0.33-3.31,0.54-4.95
		c0.27-2.17-0.62-4.17-0.91-6.26c-0.09-0.65-0.25-1.3-0.4-1.94c-0.19-0.82,0.21-1.28,0.93-1.51c1.42-0.46,2.57,0.33,3.01,1.78
		C119.24,55.97,119.31,57.19,119.22,58.89z"/>
	<path class="st0" d="M106.38,48.78c0.35-0.3,0.75-0.56,1.03-0.91c0.74-0.94,1.66-1.22,2.79-0.97c0.3,0.68,0.88,0.55,1.44,0.5
		c0.25,0.01,0.51,0.03,0.76,0.04c1.61,0.11,3.19,0.75,4.83,0.26c0.28,0.07,0.53,0.02,0.74-0.17c0.51-0.13,1.01-0.32,1.53-0.37
		c1.36-0.14,2.1,0.47,2.31,1.82c0.08,0.52-0.05,0.95-0.53,1.16c-2.05,0.89-4.15,2.11-6.41,1.37c-2.52-0.82-5.25-0.34-7.67-1.52
		c0,0,0.02,0.03,0.02,0.03c-0.07-0.22-0.21-0.36-0.43-0.43l0.04,0.03C106.63,49.35,106.39,49.13,106.38,48.78z"/>
	<path class="st0" d="M107.8,51.49c-1.69,0-3.38,0-5.05,0c-0.28-0.92,0.68-1.38,0.51-2.14c0.72-0.47,1.33-1.19,2.33-1.02
		c0,0,0.08,0.06,0.08,0.06c0.02,0.21,0.1,0.36,0.32,0.4c0,0,0.01,0.02,0.01,0.02c0,0.55,0.07,1.03,0.82,0.79
		c0,0-0.04-0.03-0.04-0.03c-0.14,0.43-0.11,0.69,0.43,0.43c0,0-0.02-0.03-0.02-0.03C106.67,50.77,107.8,50.91,107.8,51.49z"/>
	<path class="st1" d="M110.41,52.82c-0.14,0-0.28,0-0.42,0.01C110.12,52.53,110.26,52.53,110.41,52.82z"/>
	<path class="st0" d="M108.95,44.21c-1.11,0.62-2.23,1.24-3.34,1.86c-0.26-0.08-0.47-0.02-0.63,0.2c-0.73,0.06-0.85,0.66-1.06,1.18
		c-0.6,0.25-0.78,0.87-1.18,1.3c-1.34,1.79-1.63,3.85-1.55,6.01c-0.26,0.23-0.33,0.49-0.15,0.8c-0.15,0.41-0.11,0.82-0.02,1.23
		c-0.03,0.14-0.06,0.27-0.09,0.41c-0.45,2.36,0.33,4.74-0.16,7.1c-0.03,0.12-0.03,0.3,0.04,0.39c0.99,1.2,0,1.68-0.79,2.24
		c-0.22-0.03-0.31,0.06-0.27,0.28c-0.43,0.9-1.03,0.93-1.61,0.2c-0.3-0.39-0.41-0.93-0.61-1.41c0.13-0.49-0.04-0.92-0.28-1.32
		c-0.54-3.56-0.15-7.14-0.21-10.7c-0.03-2,0.55-3.73,1.53-5.45c1.01-1.76,2.33-3.21,3.8-4.55c2.31-0.71,4.12-2.37,6.25-3.44
		C109.61,41.81,110.11,42.96,108.95,44.21z"/>
	<path class="st3" d="M108.95,44.21c1.15-1.26,0.65-2.4-0.32-3.67c-2.13,1.06-3.95,2.73-6.25,3.44c-0.01-0.56-0.02-1.13-0.03-1.69
		c0.08-0.45-0.19-0.72-0.47-1.02c-0.74-0.8-1.14-1.8-1.43-2.82c-0.57-2.03-0.07-2.58,2.05-2.7c1.79-0.1,3.05,0.77,4.5,1.67
		c2.44,1.5,3.58,3.97,5.34,5.96c0.55,0.62,0.61,1.46,1.04,2.14c-0.59,0.03-1.17,0.06-1.76,0.09c0.13-0.84-0.43-1.43-0.62-2.11
		c-0.58,0.1-0.59,0.47-0.67,0.77c-0.09,0.35-0.27,0.59-0.64,0.67C109.44,44.7,109.2,44.46,108.95,44.21z M103.65,37.09
		c-0.76,0.03-1.58-0.04-1.87,0.83c-0.29,0.86-0.19,1.84,0.45,2.41c0.57,0.51,1.09,1.49,2.14,1.14c0.81-0.27,1.58-0.65,2.35-1.03
		c0.46-0.23,0.8-0.78,0.4-1.12C106.07,38.41,105.37,36.89,103.65,37.09z"/>
	<path class="st3" d="M102.74,48.77c0.39-0.43,0.57-1.06,1.18-1.3c0.28,0.82,1.32,0.19,1.67,0.87c-1-0.17-1.61,0.55-2.33,1.02
		C103.08,49.16,102.91,48.96,102.74,48.77z"/>
	<path class="st3" d="M101.97,64.59c0.31-0.06,0.62-0.11,0.93-0.17c0.28,0.2,0.31,0.48,0.02,0.61
		C102.5,65.22,102.18,64.97,101.97,64.59z"/>
	<path class="st3" d="M97.86,76c0.15,0.61,0.16,1.21-0.17,1.78C97.57,77.17,97.41,76.56,97.86,76z"/>
	<path class="st3" d="M97.26,64.68c0.25,0.41,0.42,0.83,0.28,1.32C97.11,65.64,97.14,65.17,97.26,64.68z"/>
	<path class="st3" d="M105.36,64.48c-0.22,0.36-0.6,0.34-0.95,0.36C104.61,64.41,104.97,64.4,105.36,64.48z"/>
	<path class="st3" d="M101.05,55.58c-0.18-0.31-0.11-0.57,0.15-0.8C101.27,55.07,101.25,55.34,101.05,55.58z"/>
	<path class="st3" d="M100.94,57.21c0.03-0.14,0.06-0.27,0.09-0.41c0.02,0.1,0.06,0.21,0.06,0.31
		C101.08,57.15,100.99,57.18,100.94,57.21z"/>
	<path class="st3" d="M99.76,67.22c-0.04-0.22,0.05-0.31,0.27-0.28C99.93,67.03,99.84,67.12,99.76,67.22z"/>
	<path class="st3" d="M100.86,43.63c0.05-0.18,0.17-0.26,0.36-0.23C101.16,43.57,101.04,43.64,100.86,43.63z"/>
	<path class="st3" d="M99.05,73.19c0.07,0.23,0.06,0.44-0.13,0.62C98.82,73.57,98.85,73.36,99.05,73.19z"/>
	<path class="st4" d="M106.32,63.95c0,0,0.05-0.08,0.05-0.08C106.37,63.87,106.32,63.95,106.32,63.95z"/>
	<path class="st4" d="M259.1,77.88c-2.01-0.02-4.02-0.05-6.03-0.07c1.16-0.59,2.3-1.18,3.67-1.07
		C257.69,76.82,258.53,77.05,259.1,77.88z"/>
	<path class="st3" d="M102.04,30.54c0.69-0.23,1.36-0.32,1.96,0.23C103.33,30.87,102.66,30.87,102.04,30.54z"/>
	<path class="st3" d="M98.19,30.37c0.74-0.47,1.48-0.6,2.22,0.02C99.67,30.5,98.93,30.64,98.19,30.37z"/>
	<path class="st3" d="M117.23,47.7c-1.64,0.49-3.22-0.15-4.83-0.26C114.07,46.49,115.67,46.82,117.23,47.7z"/>
	<path class="st3" d="M111.64,47.39c-0.55,0.05-1.13,0.17-1.44-0.5C110.77,46.81,111.37,46.63,111.64,47.39z"/>
	<path class="st3" d="M106.82,49.61c-0.76,0.24-0.83-0.24-0.82-0.79c0.12-0.03,0.25-0.04,0.38-0.03
		C106.39,49.13,106.63,49.35,106.82,49.61z"/>
	<path class="st3" d="M104.98,46.28c0.16-0.22,0.37-0.28,0.63-0.2C105.46,46.3,105.24,46.37,104.98,46.28z"/>
	<path class="st3" d="M105.99,48.79c-0.22-0.04-0.31-0.2-0.32-0.4C105.89,48.43,106.01,48.56,105.99,48.79z"/>
	<path class="st3" d="M107.22,50.01c-0.54,0.25-0.57,0-0.43-0.43C107.01,49.65,107.16,49.79,107.22,50.01z"/>
</g>
</svg>
