<?xml version="1.0" encoding="utf-8"?>
<!-- Generator: Adobe Illustrator 27.8.0, SVG Export Plug-In . SVG Version: 6.00 Build 0)  -->
<svg version="1.1" id="Capa_1" xmlns="http://www.w3.org/2000/svg" xmlns:xlink="http://www.w3.org/1999/xlink" x="0px" y="0px"
	 viewBox="0 0 800 800" style="enable-background:new 0 0 800 800;" xml:space="preserve">
<style type="text/css">
	.st0{fill:#A18464;}
</style>
<g>
	<g>
		<path class="st0" d="M596.6,196.6C596.6,88,508.7,0,400,0C291.4,0,203.4,88,203.4,196.6c0,108.6,88,196.6,196.6,196.6
			C508.7,393.1,596.6,305.1,596.6,196.6z M252.6,200.8c0,0-5.7-55.8,34.5-98.3c28.3,28.3,112.9,98.3,260.4,98.3
			c0,81.3-66.1,147.4-147.4,147.4S252.6,282.1,252.6,200.8z"/>
		<path class="st0" d="M62.6,544.4v86.9v112.5c0,31.1,25.2,56.2,56.2,56.2h562.3c31.1,0,56.2-25.2,56.2-56.2V631.3v-86.9
			c0-62.1-50.3-112.5-112.5-112.5h-99.7c-7,0-15.9,4.8-19.8,10.6l-98.3,139c-3.9,5.9-10.2,5.9-14.2,0l-98.3-139
			c-3.9-5.9-12.8-10.6-19.8-10.6h-99.7C113,431.9,62.6,482.3,62.6,544.4z"/>
	</g>
</g>
</svg>
