<?xml version="1.0" encoding="utf-8"?>
<!-- Generator: Adobe Illustrator 27.8.0, SVG Export Plug-In . SVG Version: 6.00 Build 0)  -->
<svg version="1.1" id="Capa_1" xmlns="http://www.w3.org/2000/svg" xmlns:xlink="http://www.w3.org/1999/xlink" x="0px" y="0px"
	 viewBox="0 0 800 800" style="enable-background:new 0 0 800 800;" xml:space="preserve">
<style type="text/css">
	.st0{fill:#E8E8E8;}
</style>
<g>
	<path class="st0" d="M159.1,378v61.7c0,8.4-6.8,15.2-15.2,15.2c-29.8,0-46.1,30.6-48.3,91H144c8.4,0,15.2,6.8,15.2,15.2v130.2
		c0,8.4-6.8,15.1-15.2,15.1H15.2c-8.4,0-15.2-6.8-15.2-15.1V561c0-29,2.9-55.5,8.7-79c5.9-24,14.9-45.1,26.9-62.5
		c12.3-17.9,27.7-32,45.7-41.8c18.2-9.8,39.3-14.8,62.7-14.8C152.4,362.8,159.1,369.6,159.1,378z M354.5,362.8
		c-23.5,0-44.6,5-62.7,14.8c-18,9.8-33.4,23.9-45.7,41.8c-11.9,17.4-21,38.5-26.9,62.5c-5.7,23.5-8.7,50-8.7,79v130.2
		c0,8.4,6.8,15.1,15.1,15.1h128.8c8.4,0,15.1-6.8,15.1-15.1V561c0-8.4-6.8-15.2-15.1-15.2h-47.6c2.2-60.4,18.2-91,47.6-91
		c8.4,0,15.1-6.8,15.1-15.2V378C369.6,369.6,362.8,362.8,354.5,362.8z M784.9,93.7H656c-8.4,0-15.2,6.8-15.2,15.2V239
		c0,8.4,6.8,15.2,15.2,15.2h48.3c-2.2,60.4-18.5,91-48.3,91c-8.4,0-15.2,6.8-15.2,15.2V422c0,8.4,6.8,15.2,15.2,15.2
		c23.5,0,44.6-5,62.7-14.8c18-9.8,33.4-23.8,45.7-41.8c11.9-17.4,21-38.5,26.9-62.5c5.7-23.5,8.7-50,8.7-79V108.8
		C800,100.5,793.2,93.7,784.9,93.7z M574.4,93.7H445.5c-8.4,0-15.1,6.8-15.1,15.2V239c0,8.4,6.8,15.2,15.1,15.2h47.6
		c-2.2,60.4-18.2,91-47.6,91c-8.4,0-15.1,6.8-15.1,15.2V422c0,8.4,6.8,15.2,15.1,15.2c23.5,0,44.6-5,62.7-14.8
		c18-9.8,33.4-23.8,45.7-41.8c12-17.4,21-38.5,26.9-62.5c5.7-23.5,8.6-50,8.6-79V108.8C589.5,100.5,582.7,93.7,574.4,93.7z"/>
</g>
</svg>
