<?xml version="1.0" encoding="utf-8"?>
<!-- Generator: Adobe Illustrator 27.8.0, SVG Export Plug-In . SVG Version: 6.00 Build 0)  -->
<svg version="1.1" id="Capa_1" xmlns="http://www.w3.org/2000/svg" xmlns:xlink="http://www.w3.org/1999/xlink" x="0px" y="0px"
	 viewBox="0 0 800 800" style="enable-background:new 0 0 800 800;" xml:space="preserve">
<style type="text/css">
	.st0{fill:#FFFFFF;}
</style>
<path class="st0" d="M438.6,41.5l90.2,182.8c6.3,12.7,18.4,21.5,32.4,23.6l201.8,29.3c35.3,5.1,49.4,48.6,23.9,73.5L641,493
	c-10.1,9.9-14.8,24.2-12.4,38.1l34.5,201c6,35.2-30.9,62-62.5,45.4l-180.5-94.9c-12.5-6.6-27.6-6.6-40.1,0l-180.5,94.9
	c-31.6,16.6-68.6-10.2-62.5-45.4l34.5-201c2.4-14-2.2-28.2-12.4-38.1l-146-142.3c-25.6-24.9-11.5-68.4,23.9-73.5l201.8-29.3
	c14-2,26.2-10.8,32.4-23.6l90.2-182.8C377.2,9.5,422.8,9.5,438.6,41.5z"/>
</svg>
