<?xml version="1.0" encoding="UTF-8"?><svg id="Capa_1" xmlns="http://www.w3.org/2000/svg" viewBox="0 0 799.89 765.04"><defs><style>.cls-1{fill:#a18464;stroke-width:0px;}</style></defs><path class="cls-1" d="m438.58,24l90.2,182.8c6.3,12.7,18.4,21.5,32.4,23.6l201.8,29.3c35.3,5.1,49.4,48.6,23.9,73.5l-145.9,142.3c-10.1,9.9-14.8,24.2-12.4,38.1l34.5,201c6,35.2-30.9,62-62.5,45.4l-180.5-94.9c-12.5-6.6-27.6-6.6-40.1,0l-180.5,94.9c-31.6,16.6-68.6-10.2-62.5-45.4l34.5-201c2.4-14-2.2-28.2-12.4-38.1L13.08,333.2c-25.6-24.9-11.5-68.4,23.9-73.5l201.8-29.3c14-2,26.2-10.8,32.4-23.6L361.38,24c15.8-32,61.4-32,77.2,0Z"/></svg>