<?xml version="1.0" encoding="utf-8"?>
<!-- Generator: Adobe Illustrator 27.8.0, SVG Export Plug-In . SVG Version: 6.00 Build 0)  -->
<svg version="1.1" id="Layer_1" xmlns="http://www.w3.org/2000/svg" xmlns:xlink="http://www.w3.org/1999/xlink" x="0px" y="0px"
	 viewBox="0 0 800 800" style="enable-background:new 0 0 800 800;" xml:space="preserve">
<style type="text/css">
	.st0{fill:#A18464;}
</style>
<g>
	<g>
		<path class="st0" d="M120,360v360h280V360H120z M360,680H160V400h200V680z"/>
	</g>
</g>
<g>
	<g>
		<path class="st0" d="M800,240v-80c0-4.3-0.7-8.6-2.1-12.7l-40-120C752.5,11,737.2,0,720,0H80C62.8,0,47.5,11,42.1,27.3l-40,120
			C0.7,151.4,0,155.7,0,160v80c0,22.1,17.9,40,40,40v480H20c-11.1,0-20,8.9-20,20c0,11.1,8.9,20,20,20h760c11.1,0,20-8.9,20-20
			s-8.9-20-20-20h-20V280C782.1,280,800,262.1,800,240z M720,40l33.3,100H604.1L578.7,40C578.7,40,720,40,720,40z M420,40h117.4
			l25,100H420V40z M420,180h148v60H420V180z M262.6,40H380v100H237.6L262.6,40z M232,180h148v60H232V180z M80,40h141.3l-25.4,100
			H46.7L80,40z M40,180h152v60H80H40V180z M640,760H480V600h40v-40h-40V400h160V760z M720,760h-40V360H440v400H80V280h640V760
			L720,760z M720,240H608v-60h152v60H720z"/>
	</g>
</g>
</svg>
